<svg width="1003" height="641" viewBox="0 0 1003 641" fill="none" xmlns="http://www.w3.org/2000/svg">
<g filter="url(#filter0_d)">
<path d="M952.654 47H50V587.338H952.654V47Z" fill="#30363D" fill-opacity="0.22"/>
</g>
<path opacity="0.3" d="M683.452 435.724C684.228 435.724 684.857 435.095 684.857 434.319C684.857 433.543 684.228 432.914 683.452 432.914C682.676 432.914 682.047 433.543 682.047 434.319C682.047 435.095 682.676 435.724 683.452 435.724Z" fill="white"/>
<path opacity="0.3" d="M820.266 417.569C821.042 417.569 821.671 416.94 821.671 416.164C821.671 415.388 821.042 414.759 820.266 414.759C819.49 414.759 818.861 415.388 818.861 416.164C818.861 416.94 819.49 417.569 820.266 417.569Z" fill="black"/>
<path opacity="0.3" d="M545.126 254.711C545.902 254.711 546.531 254.082 546.531 253.306C546.531 252.53 545.902 251.901 545.126 251.901C544.35 251.901 543.721 252.53 543.721 253.306C543.721 254.082 544.35 254.711 545.126 254.711Z" fill="black"/>
<path opacity="0.3" d="M893.644 108.171C894.42 108.171 895.049 107.542 895.049 106.766C895.049 105.99 894.42 105.361 893.644 105.361C892.868 105.361 892.239 105.99 892.239 106.766C892.239 107.542 892.868 108.171 893.644 108.171Z" fill="black"/>
<path opacity="0.3" d="M872.03 171.391C872.806 171.391 873.435 170.762 873.435 169.986C873.435 169.21 872.806 168.581 872.03 168.581C871.254 168.581 870.625 169.21 870.625 169.986C870.625 170.762 871.254 171.391 872.03 171.391Z" fill="black"/>
<path opacity="0.3" d="M673.618 102.438C673.618 102.715 673.536 102.986 673.382 103.216C673.228 103.446 673.009 103.625 672.754 103.731C672.498 103.837 672.216 103.865 671.945 103.811C671.673 103.757 671.424 103.624 671.228 103.428C671.032 103.232 670.899 102.983 670.845 102.711C670.791 102.44 670.818 102.158 670.924 101.902C671.03 101.646 671.21 101.428 671.44 101.274C671.67 101.12 671.941 101.038 672.218 101.038C672.587 101.046 672.938 101.196 673.199 101.457C673.46 101.717 673.61 102.069 673.618 102.438Z" fill="black"/>
<path opacity="0.3" d="M716.737 179.388C717.513 179.388 718.142 178.759 718.142 177.983C718.142 177.207 717.513 176.578 716.737 176.578C715.961 176.578 715.332 177.207 715.332 177.983C715.332 178.759 715.961 179.388 716.737 179.388Z" fill="black"/>
<path opacity="0.3" d="M558.85 95.203C559.626 95.203 560.255 94.574 560.255 93.798C560.255 93.022 559.626 92.393 558.85 92.393C558.074 92.393 557.445 93.022 557.445 93.798C557.445 94.574 558.074 95.203 558.85 95.203Z" fill="black"/>
<path opacity="0.3" d="M443.042 184.899C443.042 185.399 442.637 185.804 442.137 185.804C441.637 185.804 441.232 185.399 441.232 184.899C441.232 184.399 441.637 183.994 442.137 183.994C442.637 183.994 443.042 184.399 443.042 184.899Z" fill="white" stroke="black"/>
<path opacity="0.3" d="M499.737 131.838C500.513 131.838 501.142 131.209 501.142 130.433C501.142 129.657 500.513 129.028 499.737 129.028C498.961 129.028 498.332 129.657 498.332 130.433C498.332 131.209 498.961 131.838 499.737 131.838Z" fill="black"/>
<path opacity="0.3" d="M893.644 432.806C894.42 432.806 895.049 432.177 895.049 431.401C895.049 430.625 894.42 429.996 893.644 429.996C892.868 429.996 892.239 430.625 892.239 431.401C892.239 432.177 892.868 432.806 893.644 432.806Z" fill="black"/>
<path opacity="0.3" d="M802.327 121.139C803.103 121.139 803.732 120.51 803.732 119.734C803.732 118.958 803.103 118.329 802.327 118.329C801.551 118.329 800.922 118.958 800.922 119.734C800.922 120.51 801.551 121.139 802.327 121.139Z" fill="black"/>
<path opacity="0.3" d="M614.181 148.259C614.181 148.536 614.099 148.807 613.945 149.037C613.791 149.267 613.573 149.446 613.317 149.552C613.061 149.658 612.779 149.686 612.508 149.632C612.236 149.578 611.987 149.445 611.791 149.249C611.595 149.053 611.462 148.804 611.408 148.532C611.354 148.261 611.382 147.979 611.488 147.723C611.594 147.467 611.773 147.249 612.003 147.095C612.233 146.941 612.504 146.859 612.781 146.859C613.15 146.867 613.501 147.017 613.762 147.278C614.023 147.539 614.173 147.89 614.181 148.259V148.259Z" fill="white"/>
<path opacity="0.3" d="M887.808 518.612C888.584 518.612 889.213 517.983 889.213 517.207C889.213 516.431 888.584 515.802 887.808 515.802C887.032 515.802 886.403 516.431 886.403 517.207C886.403 517.983 887.032 518.612 887.808 518.612Z" fill="black"/>
<path opacity="0.3" d="M469.262 248.119C470.038 248.119 470.667 247.49 470.667 246.714C470.667 245.938 470.038 245.309 469.262 245.309C468.486 245.309 467.857 245.938 467.857 246.714C467.857 247.49 468.486 248.119 469.262 248.119Z" fill="black"/>
<path opacity="0.3" d="M881.324 240.986C882.1 240.986 882.729 240.357 882.729 239.581C882.729 238.805 882.1 238.176 881.324 238.176C880.548 238.176 879.919 238.805 879.919 239.581C879.919 240.357 880.548 240.986 881.324 240.986Z" fill="black"/>
<path opacity="0.3" d="M744.294 133.243C745.07 133.243 745.699 132.614 745.699 131.838C745.699 131.062 745.07 130.433 744.294 130.433C743.518 130.433 742.889 131.062 742.889 131.838C742.889 132.614 743.518 133.243 744.294 133.243Z" fill="black"/>
<path opacity="0.3" d="M463.534 394.118C464.31 394.118 464.939 393.489 464.939 392.713C464.939 391.937 464.31 391.308 463.534 391.308C462.758 391.308 462.129 391.937 462.129 392.713C462.129 393.489 462.758 394.118 463.534 394.118Z" fill="black"/>
<path opacity="0.3" d="M488.606 513.42C488.606 513.697 488.524 513.968 488.37 514.198C488.216 514.428 487.997 514.608 487.742 514.713C487.486 514.819 487.204 514.847 486.933 514.793C486.661 514.739 486.412 514.606 486.216 514.41C486.02 514.214 485.887 513.965 485.833 513.693C485.779 513.422 485.807 513.14 485.912 512.884C486.018 512.628 486.198 512.41 486.428 512.256C486.658 512.102 486.929 512.02 487.206 512.02C487.575 512.028 487.926 512.178 488.187 512.439C488.448 512.699 488.598 513.051 488.606 513.42Z" fill="black"/>
<path opacity="0.3" d="M558.418 457.23C559.194 457.23 559.823 456.601 559.823 455.825C559.823 455.049 559.194 454.42 558.418 454.42C557.642 454.42 557.013 455.049 557.013 455.825C557.013 456.601 557.642 457.23 558.418 457.23Z" fill="white"/>
<path d="M735 476.249L731.434 472.791L726.463 473.007L728.624 468.468L726.895 463.821L731.758 464.469L735.758 461.335L736.623 466.306L740.838 469.116L736.407 471.385L735 476.249Z" fill="#FFB61A"/>
<path d="M514.325 370.451L509.462 369.267L505.247 371.861L504.923 366.89L501.141 363.751L505.788 361.914L507.625 357.267L510.759 361.157L515.73 361.481L513.141 365.696L514.325 370.451Z" fill="#FFB61A"/>
<path d="M821.238 363.21L816.483 362.021L812.268 364.615L811.944 359.644L808.162 356.51L812.809 354.673L814.646 350.026L817.78 353.916L822.751 354.24L820.051 358.347L821.238 363.21Z" fill="#FFB61A"/>
<path d="M489.362 162.42L486.985 160.043L483.635 160.151L485.035 157.125L483.846 153.991L487.196 154.423L489.896 152.37L490.436 155.72L493.246 157.557L490.334 159.07L489.362 162.42Z" fill="#FFB61A"/>
<path d="M831.072 182.953L828.586 180.684L825.236 180.792L826.749 177.766L825.56 174.632L828.91 175.064L831.504 172.903L832.044 176.253L834.962 178.09L831.936 179.711L831.072 182.953Z" fill="#FFB61A"/>
<defs>
<filter id="filter0_d" x="0" y="0" width="1002.65" height="640.338" filterUnits="userSpaceOnUse" color-interpolation-filters="sRGB">
<feFlood flood-opacity="0" result="BackgroundImageFix"/>
<feColorMatrix in="SourceAlpha" type="matrix" values="0 0 0 0 0 0 0 0 0 0 0 0 0 0 0 0 0 0 127 0"/>
<feOffset dy="3"/>
<feGaussianBlur stdDeviation="25"/>
<feColorMatrix type="matrix" values="0 0 0 0 0 0 0 0 0 0 0 0 0 0 0 0 0 0 0.161 0"/>
<feBlend mode="normal" in2="BackgroundImageFix" result="effect1_dropShadow"/>
<feBlend mode="normal" in="SourceGraphic" in2="effect1_dropShadow" result="shape"/>
</filter>
</defs>
</svg>
