<svg width="68" height="68" viewBox="0 0 68 68" fill="none" xmlns="http://www.w3.org/2000/svg">
<path opacity="0.1" d="M62.6215 16.8046C65.9344 22.5542 67.468 29.1571 67.0283 35.7782C66.5886 42.3994 64.1953 48.7415 60.1512 54.0025C56.1071 59.2635 50.5937 63.2072 44.3083 65.3347C38.0228 67.4623 31.2477 67.6783 24.8395 65.9553C18.4313 64.2323 12.678 60.6478 8.30702 55.655C3.93605 50.6622 1.14378 44.4854 0.283304 37.9057C-0.577176 31.326 0.532781 24.6388 3.47282 18.6899C6.41285 12.741 11.0509 7.79752 16.8005 4.48459C20.6177 2.28342 24.8313 0.856011 29.2004 0.283903C33.5695 -0.288205 38.0085 0.00620401 42.2637 1.15033C46.519 2.29445 50.5071 4.26587 54.0002 6.9519C57.4933 9.63793 60.4229 12.9859 62.6215 16.8046V16.8046Z" fill="white"/>
<path d="M55.0555 21.2356C57.5004 25.4929 58.6273 30.3799 58.2937 35.278C57.96 40.1761 56.1807 44.8651 53.181 48.7515C50.1812 52.6379 46.0959 55.547 41.4422 57.1106C36.7884 58.6743 31.7753 58.8221 27.0375 57.5354C22.2997 56.2487 18.0501 53.5854 14.8266 49.8825C11.603 46.1796 9.55051 41.6036 8.92878 36.7337C8.30705 31.8638 9.14407 26.9189 11.3339 22.5249C13.5237 18.1309 16.9679 14.4853 21.2305 12.0496C26.9445 8.82875 33.6968 7.98682 40.0268 9.70588C46.3568 11.4249 51.7556 15.5668 55.0555 21.2356Z" fill="#FF9C1A"/>
<path d="M47.5996 40.5806C44.8828 42.1522 41.8827 43.1725 38.7711 43.5831C35.6595 43.9937 32.4975 43.7866 29.466 42.9736C26.4346 42.1605 23.5932 40.7575 21.1047 38.845C18.6162 36.9324 16.5293 34.5478 14.9636 31.8276C13.4831 29.2202 12.4941 26.3632 12.0456 23.3986C10.4638 26.7763 9.69449 30.4774 9.79922 34.2057C9.90394 37.9339 10.8798 41.586 12.6487 44.8696C14.4176 48.1532 16.9304 50.9772 19.9862 53.1157C23.042 55.2543 26.5558 56.6479 30.2467 57.1853C33.9375 57.7226 37.7029 57.3886 41.2415 56.2101C44.7802 55.0316 47.9939 53.0413 50.6256 50.3984C53.2573 47.7554 55.234 44.5332 56.3974 40.9896C57.5608 37.4459 57.8786 33.6791 57.3256 29.9906C55.2012 34.4041 51.8167 38.0892 47.5996 40.5806V40.5806Z" fill="#FF721A"/>
<path d="M22.5275 48.4696C24.4725 50.3066 25.2275 52.7926 24.0405 54.0896C22.8515 55.2786 20.3665 54.8466 18.3125 53.0086C16.3675 51.1716 15.6125 48.6857 16.7995 47.3887C17.9865 46.0917 20.5825 46.5246 22.5275 48.4696Z" fill="#FF9C1A"/>
<path d="M20.4743 41.8766C20.9737 42.2062 21.3295 42.713 21.4698 43.2947C21.6101 43.8764 21.5245 44.4896 21.2304 45.0106C20.5824 45.8756 19.0693 45.8756 17.9883 45.1186C17.489 44.789 17.1332 44.2823 16.9929 43.7006C16.8526 43.1189 16.9382 42.5057 17.2324 41.9846C17.8804 41.1206 19.3934 41.1206 20.4743 41.8766Z" fill="#FF9C1A"/>
<path d="M28.6864 45.6596C30.3074 46.7406 30.9554 48.6856 30.0864 49.8746C29.2174 51.0636 27.2764 51.1746 25.6554 50.0906C24.0344 49.0066 23.3864 47.0646 24.2554 45.8756C25.1204 44.5786 27.0654 44.4706 28.6864 45.6596Z" fill="#FF9C1A"/>
<path d="M15.5034 44.1466C15.7679 44.4655 15.9127 44.8668 15.9127 45.2811C15.9127 45.6954 15.7679 46.0967 15.5034 46.4156C14.8554 46.8476 13.9904 46.5236 13.3424 45.7676C13.0779 45.4487 12.9331 45.0474 12.9331 44.6331C12.9331 44.2188 13.0779 43.8175 13.3424 43.4986C13.9904 43.0656 14.8544 43.3896 15.5034 44.1466Z" fill="#FF9C1A"/>
<path d="M25.4454 39.0676C27.0664 40.1486 27.8234 41.8776 27.1744 42.8496C26.5254 43.8216 24.5804 43.8226 22.9594 42.6336C21.3384 41.5526 20.5824 39.8236 21.2304 38.8516C21.8784 37.8796 23.8244 37.9866 25.4454 39.0676Z" fill="#FF9C1A"/>
<path d="M23.3924 53.7646C22.3114 54.4126 20.3664 53.7646 18.9614 52.3646C18.1415 51.6461 17.542 50.7099 17.2324 49.6646C17.1244 49.2326 16.9084 48.2646 17.4484 47.7196C17.5564 47.6116 17.6644 47.5036 17.7724 47.5036C18.8534 46.8556 20.6904 47.5036 22.2034 48.9036C23.9324 50.5246 24.5804 52.5776 23.7164 53.5506C23.6084 53.6566 23.5004 53.7646 23.3924 53.7646Z" fill="#FF721A"/>
<path d="M20.3664 44.9026C20.0306 45.0581 19.6561 45.1104 19.2906 45.0527C18.9251 44.995 18.5849 44.83 18.3134 44.5786C17.9544 44.3382 17.6923 43.9782 17.5736 43.5628C17.455 43.1474 17.4875 42.7033 17.6654 42.3096C17.7734 42.2016 17.8814 42.0936 17.9894 42.0936C18.3251 41.938 18.6996 41.8858 19.0651 41.9435C19.4307 42.0012 19.7708 42.1662 20.0424 42.4176C20.4266 42.7124 20.6944 43.1335 20.7984 43.6066C20.8469 43.7913 20.8526 43.9847 20.8152 44.172C20.7778 44.3593 20.6981 44.5357 20.5824 44.6876C20.5784 44.7435 20.5543 44.796 20.5146 44.8355C20.4749 44.875 20.4223 44.8989 20.3664 44.9026V44.9026Z" fill="#FF721A"/>
<path d="M29.1204 49.9826C28.6069 50.1962 28.0457 50.2687 27.4947 50.1928C26.9437 50.1169 26.423 49.8951 25.9864 49.5506C24.6864 48.6856 24.0414 47.1736 24.6864 46.2006C24.7944 45.9846 25.0104 45.8766 25.1184 45.7686C25.632 45.555 26.1932 45.4824 26.7442 45.5584C27.2952 45.6343 27.8158 45.856 28.2524 46.2006C28.8904 46.6142 29.3806 47.2196 29.6524 47.9296C29.7726 48.187 29.8257 48.4705 29.8068 48.754C29.788 49.0374 29.6977 49.3114 29.5444 49.5506C29.5524 49.6576 29.3364 49.7656 29.1204 49.9826Z" fill="#FF721A"/>
<path d="M14.9634 45.8756C14.7334 45.9321 14.491 45.9096 14.2753 45.8117C14.0597 45.7137 13.8832 45.546 13.7744 45.3356C13.604 45.1471 13.501 44.9074 13.4814 44.654C13.4619 44.4007 13.527 44.148 13.6664 43.9356V43.9356C13.8965 43.879 14.1388 43.9016 14.3545 43.9995C14.5702 44.0975 14.7466 44.2652 14.8554 44.4756C15.0557 44.7204 15.1696 45.0245 15.1794 45.3406C15.2023 45.39 15.2148 45.4436 15.2163 45.498C15.2177 45.5524 15.208 45.6066 15.1878 45.6571C15.1676 45.7077 15.1373 45.7536 15.0987 45.792C15.0601 45.8305 15.0141 45.8606 14.9634 45.8806V45.8756Z" fill="#FF721A"/>
<path d="M26.3103 42.8486C25.7992 43.0047 25.2583 43.0372 24.7322 42.9433C24.2061 42.8494 23.7099 42.6319 23.2843 42.3086C21.8843 41.3356 21.3393 39.9306 21.7713 39.3906C21.8793 39.2826 21.8793 39.1746 22.0953 39.1746C22.6064 39.0184 23.1473 38.986 23.6734 39.0799C24.1995 39.1737 24.6958 39.3913 25.1213 39.7146C25.763 40.1545 26.2834 40.7492 26.6343 41.4436C26.7417 41.6434 26.7979 41.8667 26.7979 42.0936C26.7979 42.3205 26.7417 42.5438 26.6343 42.7436C26.5263 42.6326 26.4183 42.7406 26.3103 42.8486Z" fill="#FF721A"/>
</svg>
