<svg width="133" height="133" viewBox="0 0 133 133" fill="none" xmlns="http://www.w3.org/2000/svg">
<path opacity="0.1" d="M132.19 67.8911C131.837 80.961 127.617 93.6327 120.062 104.304C112.507 114.975 101.958 123.167 89.7479 127.842C77.5379 132.518 64.2155 133.468 51.4655 130.572C38.7156 127.676 27.1106 121.065 18.1182 111.574C9.12583 102.082 3.14983 90.1377 0.945952 77.2501C-1.25793 64.3625 0.409282 51.1108 5.73676 39.1707C11.0642 27.2306 19.8127 17.1385 30.8759 10.1704C41.9391 3.20239 54.82 -0.328572 67.89 0.0240557C76.5697 0.253239 85.1192 2.19106 93.0495 5.72672C100.98 9.26237 108.135 14.3265 114.107 20.6296C120.079 26.9327 124.75 34.351 127.853 42.4605C130.955 50.57 132.429 59.2116 132.19 67.8911Z" fill="white"/>
<path d="M115.004 67.3511C114.737 77.0226 111.608 86.3978 106.012 94.291C100.417 102.184 92.6068 108.241 83.5692 111.695C74.5316 115.15 64.6727 115.847 55.239 113.698C45.8054 111.549 37.2208 106.651 30.5709 99.6233C23.9209 92.5956 19.5043 83.7537 17.8794 74.2159C16.2545 64.6781 17.4944 54.8726 21.4423 46.0394C25.3903 37.2063 31.8688 29.7422 40.0588 24.591C48.2488 19.4399 57.7824 16.833 67.454 17.1001C73.8762 17.2757 80.2009 18.715 86.0667 21.3357C91.9325 23.9565 97.2245 27.7073 101.64 32.3739C106.056 37.0405 109.509 42.5314 111.802 48.5329C114.095 54.5344 115.183 60.9289 115.004 67.3511Z" fill="#BC1625"/>
<path d="M82.479 92.0991C74.8134 91.8759 67.3176 89.7887 60.6397 86.018C53.9619 82.2473 48.3032 76.9067 44.1529 70.4579C40.0026 64.0091 37.4858 56.6464 36.8201 49.0065C36.1543 41.3666 37.3597 33.6795 40.332 26.61C34.1657 30.6364 29.0289 36.052 25.3338 42.4224C21.6386 48.7927 19.488 55.9405 19.0544 63.2922C18.6208 70.6439 19.9164 77.9948 22.8371 84.7554C25.7578 91.5159 30.2224 97.4977 35.8727 102.221C41.523 106.944 48.2017 110.278 55.373 111.953C62.5442 113.629 70.0085 113.601 77.1668 111.871C84.3251 110.14 90.9783 106.756 96.5925 101.99C102.207 97.2242 106.626 91.2086 109.495 84.4261C101.496 89.7071 92.06 92.387 82.479 92.0991V92.0991Z" fill="#ED9EA5" fill-opacity="0.35"/>
<path d="M32.3348 79.6711C33.8478 84.8581 32.4428 89.7211 29.2008 90.5861C26.0668 91.4511 22.2848 87.992 20.7718 82.913C19.3718 77.726 20.6638 72.8631 23.9058 71.9981C27.1478 71.0261 30.9298 74.4861 32.3348 79.6711Z" fill="#ED9EA5" fill-opacity="0.25"/>
<path d="M35.4689 66.594C36.4419 69.08 35.5769 71.781 33.4159 72.538C31.3629 73.294 28.8769 71.89 28.0159 69.296C27.0429 66.702 28.0159 64.109 30.0689 63.352C32.1219 62.595 34.4959 64.001 35.4689 66.594Z" fill="#ED9EA5" fill-opacity="0.25"/>
<path d="M45.5189 81.2921C47.1399 84.8581 46.2749 88.6411 43.6819 89.8291C41.0889 91.0171 37.6299 89.1811 36.0089 85.6141C34.3879 82.0471 35.2529 78.2651 37.8459 77.0771C40.4389 75.8891 43.8979 77.7251 45.5189 81.2921Z" fill="#ED9EA5" fill-opacity="0.25"/>
<path d="M24.7749 65.1901C24.8829 67.1351 23.8019 68.7561 22.3979 68.8641C20.9939 68.9721 19.6979 67.4641 19.4799 65.5141C19.3719 63.5691 20.4529 61.9481 21.8569 61.8401C23.3659 61.7311 24.6629 63.2441 24.7749 65.1901Z" fill="#ED9EA5" fill-opacity="0.25"/>
<path d="M46.7089 66.919C48.3299 70.485 47.8979 74.16 45.6279 75.132C43.4669 76.105 40.3279 74.051 38.7119 70.485C37.0959 66.919 37.5229 63.244 39.7929 62.272C42.0629 61.3 45.0879 63.354 46.7089 66.919Z" fill="#ED9EA5" fill-opacity="0.25"/>
<path d="M28.1208 89.5051C25.7438 89.3971 23.1498 86.4791 22.0688 82.5891C21.41 80.5243 21.3353 78.3176 21.8528 76.2131C22.1768 75.2401 22.8258 73.619 24.3388 73.187C24.5805 73.0985 24.838 73.0618 25.0948 73.079C27.4718 73.187 30.0658 76.105 31.1468 79.995C32.4468 84.426 31.3628 88.7481 28.8778 89.3951C28.636 89.4844 28.3781 89.5219 28.1208 89.5051V89.5051Z" fill="#BC1625"/>
<path d="M32.2269 71.5671C31.5194 71.4915 30.8514 71.2031 30.3111 70.74C29.7709 70.2768 29.3838 69.6608 29.2009 68.9731C28.5529 67.1361 29.0929 65.0831 30.5009 64.5421C30.7426 64.4536 31.0001 64.4168 31.2569 64.4341C31.9645 64.5097 32.6325 64.7981 33.1727 65.2612C33.7129 65.7244 34.1001 66.3404 34.2829 67.0281C34.6399 67.9247 34.6781 68.9167 34.3909 69.8381C34.2989 70.1854 34.1231 70.505 33.8791 70.7687C33.635 71.0325 33.3301 71.2324 32.9909 71.3511C32.7591 71.4877 32.4959 71.5621 32.2269 71.5671V71.5671Z" fill="#BC1625"/>
<path d="M41.8449 88.9651C40.0079 88.9651 38.0629 87.3441 37.0899 85.0751C35.7899 82.2651 36.3338 79.0231 38.3898 78.1591C38.7992 77.9824 39.2454 77.9083 39.6899 77.9431C41.5269 77.9431 43.4718 79.5641 44.4448 81.8331C45.0936 83.2144 45.2828 84.7673 44.9848 86.2641C44.8732 86.7994 44.6525 87.3061 44.3365 87.7523C44.0204 88.1986 43.6158 88.575 43.1479 88.858C42.7197 88.9477 42.2819 88.9837 41.8449 88.9651V88.9651Z" fill="#BC1625"/>
<path d="M22.2849 67.6761C21.6369 67.6761 20.8849 66.8111 20.7719 65.5151C20.6589 64.2191 21.3119 63.2461 21.9609 63.1381H22.0709C22.7189 63.1381 23.4709 64.0031 23.5839 65.2991C23.6218 65.9062 23.4709 66.5101 23.1519 67.0281C22.9606 67.35 22.6496 67.583 22.2869 67.6761H22.2849Z" fill="#BC1625"/>
<path d="M44.4379 74.1601C43.1379 74.1601 41.1959 72.6471 39.8989 70.0531C38.4989 66.9191 39.0339 64.1091 40.3309 63.4611C40.5704 63.3646 40.8298 63.3275 41.0869 63.3531C42.3869 63.3531 44.3289 64.8661 45.6259 67.4601C46.2756 68.8025 46.5374 70.2998 46.3819 71.7831C46.3632 72.2105 46.2463 72.6278 46.04 73.0026C45.8338 73.3774 45.5439 73.6996 45.1929 73.9441C44.9637 74.0792 44.7038 74.1535 44.4379 74.1601Z" fill="#BC1625"/>
</svg>
