<svg width="903" height="541" viewBox="0 0 903 541" fill="none" xmlns="http://www.w3.org/2000/svg">
<path opacity="0.3" d="M633.452 388.724C634.228 388.724 634.857 388.095 634.857 387.319C634.857 386.543 634.228 385.914 633.452 385.914C632.676 385.914 632.047 386.543 632.047 387.319C632.047 388.095 632.676 388.724 633.452 388.724Z" fill="white"/>
<path opacity="0.3" d="M770.266 370.569C771.042 370.569 771.671 369.94 771.671 369.164C771.671 368.388 771.042 367.759 770.266 367.759C769.49 367.759 768.861 368.388 768.861 369.164C768.861 369.94 769.49 370.569 770.266 370.569Z" fill="white"/>
<path opacity="0.3" d="M495.126 207.711C495.902 207.711 496.531 207.082 496.531 206.306C496.531 205.53 495.902 204.901 495.126 204.901C494.35 204.901 493.721 205.53 493.721 206.306C493.721 207.082 494.35 207.711 495.126 207.711Z" fill="white"/>
<path opacity="0.3" d="M843.644 61.171C844.42 61.171 845.049 60.542 845.049 59.766C845.049 58.9901 844.42 58.361 843.644 58.361C842.868 58.361 842.239 58.9901 842.239 59.766C842.239 60.542 842.868 61.171 843.644 61.171Z" fill="white"/>
<path opacity="0.3" d="M822.03 124.391C822.806 124.391 823.435 123.762 823.435 122.986C823.435 122.21 822.806 121.581 822.03 121.581C821.254 121.581 820.625 122.21 820.625 122.986C820.625 123.762 821.254 124.391 822.03 124.391Z" fill="white"/>
<path opacity="0.3" d="M623.618 55.438C623.618 55.7149 623.536 55.9856 623.382 56.2158C623.228 56.4461 623.009 56.6255 622.754 56.7315C622.498 56.8374 622.216 56.8651 621.945 56.8111C621.673 56.7571 621.424 56.6238 621.228 56.428C621.032 56.2322 620.899 55.9827 620.845 55.7112C620.791 55.4396 620.818 55.1581 620.924 54.9023C621.03 54.6465 621.21 54.4278 621.44 54.274C621.67 54.1201 621.941 54.038 622.218 54.038C622.587 54.0457 622.938 54.1956 623.199 54.4566C623.46 54.7175 623.61 55.0691 623.618 55.438Z" fill="white"/>
<path opacity="0.3" d="M666.737 132.388C667.513 132.388 668.142 131.759 668.142 130.983C668.142 130.207 667.513 129.578 666.737 129.578C665.961 129.578 665.332 130.207 665.332 130.983C665.332 131.759 665.961 132.388 666.737 132.388Z" fill="white"/>
<path opacity="0.3" d="M508.85 48.203C509.626 48.203 510.255 47.574 510.255 46.798C510.255 46.022 509.626 45.393 508.85 45.393C508.074 45.393 507.445 46.022 507.445 46.798C507.445 47.574 508.074 48.203 508.85 48.203Z" fill="white"/>
<path opacity="0.3" d="M393.042 137.899C393.042 138.399 392.637 138.804 392.137 138.804C391.637 138.804 391.232 138.399 391.232 137.899C391.232 137.399 391.637 136.994 392.137 136.994C392.637 136.994 393.042 137.399 393.042 137.899Z" fill="white" stroke="white"/>
<path opacity="0.3" d="M449.737 84.838C450.513 84.838 451.142 84.209 451.142 83.433C451.142 82.6571 450.513 82.028 449.737 82.028C448.961 82.028 448.332 82.6571 448.332 83.433C448.332 84.209 448.961 84.838 449.737 84.838Z" fill="white"/>
<path opacity="0.3" d="M843.644 385.806C844.42 385.806 845.049 385.177 845.049 384.401C845.049 383.625 844.42 382.996 843.644 382.996C842.868 382.996 842.239 383.625 842.239 384.401C842.239 385.177 842.868 385.806 843.644 385.806Z" fill="white"/>
<path opacity="0.3" d="M752.327 74.139C753.103 74.139 753.732 73.5099 753.732 72.734C753.732 71.958 753.103 71.329 752.327 71.329C751.551 71.329 750.922 71.958 750.922 72.734C750.922 73.5099 751.551 74.139 752.327 74.139Z" fill="white"/>
<path opacity="0.3" d="M564.181 101.259C564.181 101.536 564.099 101.807 563.945 102.037C563.791 102.267 563.573 102.446 563.317 102.552C563.061 102.658 562.779 102.686 562.508 102.632C562.236 102.578 561.987 102.445 561.791 102.249C561.595 102.053 561.462 101.804 561.408 101.532C561.354 101.261 561.382 100.979 561.488 100.723C561.594 100.467 561.773 100.249 562.003 100.095C562.233 99.9411 562.504 99.859 562.781 99.859C563.15 99.8669 563.501 100.017 563.762 100.278C564.023 100.539 564.173 100.89 564.181 101.259Z" fill="white"/>
<path opacity="0.3" d="M837.808 471.612C838.584 471.612 839.213 470.983 839.213 470.207C839.213 469.431 838.584 468.802 837.808 468.802C837.032 468.802 836.403 469.431 836.403 470.207C836.403 470.983 837.032 471.612 837.808 471.612Z" fill="white"/>
<path opacity="0.3" d="M419.262 201.119C420.038 201.119 420.667 200.49 420.667 199.714C420.667 198.938 420.038 198.309 419.262 198.309C418.486 198.309 417.857 198.938 417.857 199.714C417.857 200.49 418.486 201.119 419.262 201.119Z" fill="white"/>
<path opacity="0.3" d="M831.324 193.986C832.1 193.986 832.729 193.357 832.729 192.581C832.729 191.805 832.1 191.176 831.324 191.176C830.548 191.176 829.919 191.805 829.919 192.581C829.919 193.357 830.548 193.986 831.324 193.986Z" fill="white"/>
<path opacity="0.3" d="M694.294 86.243C695.07 86.243 695.699 85.6139 695.699 84.838C695.699 84.062 695.07 83.433 694.294 83.433C693.518 83.433 692.889 84.062 692.889 84.838C692.889 85.6139 693.518 86.243 694.294 86.243Z" fill="white"/>
<path opacity="0.3" d="M413.534 347.118C414.31 347.118 414.939 346.489 414.939 345.713C414.939 344.937 414.31 344.308 413.534 344.308C412.758 344.308 412.129 344.937 412.129 345.713C412.129 346.489 412.758 347.118 413.534 347.118Z" fill="white"/>
<path opacity="0.3" d="M438.606 466.42C438.606 466.697 438.524 466.968 438.37 467.198C438.216 467.428 437.997 467.608 437.742 467.713C437.486 467.819 437.204 467.847 436.933 467.793C436.661 467.739 436.412 467.606 436.216 467.41C436.02 467.214 435.887 466.965 435.833 466.693C435.779 466.422 435.807 466.14 435.912 465.884C436.018 465.628 436.198 465.41 436.428 465.256C436.658 465.102 436.929 465.02 437.206 465.02C437.575 465.028 437.926 465.178 438.187 465.439C438.448 465.699 438.598 466.051 438.606 466.42Z" fill="white"/>
<path opacity="0.3" d="M508.418 410.23C509.194 410.23 509.823 409.601 509.823 408.825C509.823 408.049 509.194 407.42 508.418 407.42C507.642 407.42 507.013 408.049 507.013 408.825C507.013 409.601 507.642 410.23 508.418 410.23Z" fill="white"/>
<path d="M685 429.249L681.434 425.791L676.463 426.007L678.624 421.468L676.895 416.821L681.758 417.469L685.758 414.335L686.623 419.306L690.838 422.116L686.407 424.385L685 429.249Z" fill="#FFB61A"/>
<path d="M464.325 323.451L459.462 322.267L455.247 324.861L454.923 319.89L451.141 316.751L455.788 314.914L457.625 310.267L460.759 314.157L465.73 314.481L463.141 318.696L464.325 323.451Z" fill="#FFB61A"/>
<path d="M771.238 316.21L766.483 315.021L762.268 317.615L761.944 312.644L758.162 309.51L762.809 307.673L764.646 303.026L767.78 306.916L772.751 307.24L770.051 311.347L771.238 316.21Z" fill="#FFB61A"/>
<path d="M439.362 115.42L436.985 113.043L433.635 113.151L435.035 110.125L433.846 106.991L437.196 107.423L439.896 105.37L440.436 108.72L443.246 110.557L440.334 112.07L439.362 115.42Z" fill="#FFB61A"/>
<path d="M781.072 135.953L778.586 133.684L775.236 133.792L776.749 130.766L775.56 127.632L778.91 128.064L781.504 125.903L782.044 129.253L784.962 131.09L781.936 132.711L781.072 135.953Z" fill="#FFB61A"/>
</svg>
