<svg xmlns="http://www.w3.org/2000/svg" width="40" height="62" viewBox="0 0 40 62">
    <g fill="#FFF" fill-rule="evenodd">
        <path fill-rule="nonzero" d="M33.706 0H5.85C2.785 0 .278 2.536.278 5.636v50.728c0 3.1 2.507 5.636 5.571 5.636h27.857c3.065 0 5.572-2.536 5.572-5.636V5.636c0-3.1-2.507-5.636-5.572-5.636zm0 53.545H5.85V8.455h27.857v45.09z"/>
        <path d="M12.2 29.365l1.591-.92 1.59.92 1.59.921v3.681l-1.59.92-1.59.92-1.59-.92-1.59-.92v-3.68l1.59-.922zm12.425 4.6l1.592.92 1.592.922v3.684l-1.592.922-1.592.92-1.591-.92-1.593-.922v-3.684l1.593-.922 1.59-.92zm-.067-13.298l1.913 1.105 1.912 1.104v4.416l-1.912 1.104L24.56 29.5l-1.911-1.104-1.912-1.104v-4.416l1.912-1.104 1.91-1.105zm2.62 8.15l1.277.736 1.276.735V33.228l-1.276.735-1.277.735-1.277-.735-1.276-.735V30.288l1.276-.735 1.277-.735zm-8.283 6.261l.958.552.958.55v2.205l-.958.55-.958.551-.959-.55-.958-.551V36.181l.958-.551.959-.552zm-1.917-11.416l1.272.734 1.273.736v2.942l-1.273.734-1.272.736-1.272-.736-1.272-.734v-2.941l1.272-.737 1.272-.734z"/>
    </g>
</svg>
