<svg xmlns="http://www.w3.org/2000/svg" width="64" height="64" viewBox="0 0 64 64">
    <g fill="none" fill-rule="evenodd">
        <path d="M-2-2h68v68H-2z"/>
        <path fill="#FFF" fill-rule="nonzero" d="M43.333.833c-6.8 0-12.806 3.429-16.376 8.642.028-.028.028-.057.056-.085-1.133-.057-2.323-.057-3.513-.057C10.977 9.333.833 10.75.833 20.667V49c0 2.493 1.105 4.732 2.834 6.29v5.043A2.842 2.842 0 0 0 6.5 63.167h2.833a2.842 2.842 0 0 0 2.834-2.834V57.5h22.666v2.833a2.842 2.842 0 0 0 2.834 2.834H40.5a2.842 2.842 0 0 0 2.833-2.834V55.29c1.729-1.558 2.834-3.797 2.834-6.29v-8.727c9.605-1.388 17-9.605 17-19.606C63.167 9.702 54.298.833 43.333.833zm-32.583 51a4.244 4.244 0 0 1-4.25-4.25 4.244 4.244 0 0 1 4.25-4.25 4.244 4.244 0 0 1 4.25 4.25 4.244 4.244 0 0 1-4.25 4.25zm-4.25-17V20.667h17c0 5.553 2.295 10.568 5.978 14.166H6.5zm29.75 17a4.244 4.244 0 0 1-4.25-4.25 4.244 4.244 0 0 1 4.25-4.25 4.244 4.244 0 0 1 4.25 4.25 4.244 4.244 0 0 1-4.25 4.25zm7.083-17c-7.82 0-14.166-6.346-14.166-14.166S35.513 6.5 43.333 6.5 57.5 12.847 57.5 20.667c0 7.82-6.347 14.166-14.167 14.166zm1.417-25.5H40.5V23.5l10.257 6.12 2.125-3.485-8.132-4.76V9.333z"/>
    </g>
</svg>
