<svg xmlns="http://www.w3.org/2000/svg" width="80" height="80" viewBox="0 0 80 80">
    <g fill="none" fill-rule="evenodd">
        <circle cx="40" cy="40" r="40" fill="#0274B3"/>
        <path fill="#FFF" fill-rule="nonzero" d="M57.063 19H22.937A3.95 3.95 0 0 0 19 22.938v34.124A3.95 3.95 0 0 0 22.938 61h34.124A3.95 3.95 0 0 0 61 57.062V22.938A3.95 3.95 0 0 0 57.062 19zM34.75 53.125H29.5V34.75h5.25v18.375zm-2.625-21A2.622 2.622 0 0 1 29.5 29.5a2.622 2.622 0 0 1 2.625-2.625A2.622 2.622 0 0 1 34.75 29.5a2.622 2.622 0 0 1-2.625 2.625zm21 21h-5.25v-10.5A2.622 2.622 0 0 0 45.25 40a2.622 2.622 0 0 0-2.625 2.625v10.5h-5.25V34.75h5.25v3.257c1.083-1.485 2.74-3.257 4.594-3.257 3.265 0 5.906 2.937 5.906 6.563v11.812z"/>
    </g>
</svg>
