<svg xmlns="http://www.w3.org/2000/svg" width="21" height="22" viewBox="0 0 21 22">
    <path fill="#FFF" fill-rule="evenodd" d="M1.694 9.26l1.697-.98 1.696.98 1.696.98v3.919l-1.696.979-1.696.98-1.697-.98L0 14.159V10.24l1.694-.98zm13.25 4.896l1.697.98 1.698.981V20.039l-1.698.98-1.698.981-1.696-.98-1.699-.981V16.117l1.699-.981 1.696-.98zM14.872 0l2.04 1.177 2.038 1.175v4.7l-2.039 1.176-2.039 1.175-2.037-1.175-2.039-1.175V2.352l2.039-1.175L14.873 0zm2.793 8.677l1.362.783 1.36.782v3.13l-1.36.783-1.362.782-1.361-.782-1.362-.783v-3.13l1.362-.782 1.361-.783zM8.833 15.34l1.023.588 1.02.586v2.346l-1.02.587-1.023.586-1.022-.586-1.021-.587v-2.346l1.021-.586 1.022-.588zM6.79 3.188l1.357.782 1.357.784V7.885l-1.357.782-1.356.783-1.357-.783-1.357-.782V4.754l1.357-.784 1.356-.782z"/>
</svg>
