<svg xmlns="http://www.w3.org/2000/svg" width="19" height="14" viewBox="0 0 19 14">
    <g fill="#FFF" fill-rule="nonzero">
        <path d="M2.5 0C3.875 0 5 1.125 5 2.5S3.875 5 2.5 5A2.507 2.507 0 0 1 0 2.5C0 1.125 1.125 0 2.5 0zm7 0C10.875 0 12 1.125 12 2.5S10.875 5 9.5 5A2.507 2.507 0 0 1 7 2.5C7 1.125 8.125 0 9.5 0zm7 0C17.875 0 19 1.125 19 2.5S17.875 5 16.5 5A2.507 2.507 0 0 1 14 2.5C14 1.125 15.125 0 16.5 0zM2.5 9C3.875 9 5 10.125 5 11.5S3.875 14 2.5 14A2.507 2.507 0 0 1 0 11.5C0 10.125 1.125 9 2.5 9zm7 0c1.375 0 2.5 1.125 2.5 2.5S10.875 14 9.5 14A2.507 2.507 0 0 1 7 11.5C7 10.125 8.125 9 9.5 9zm7 0c1.375 0 2.5 1.125 2.5 2.5S17.875 14 16.5 14a2.507 2.507 0 0 1-2.5-2.5c0-1.375 1.125-2.5 2.5-2.5z"/>
    </g>
</svg>
