<svg xmlns="http://www.w3.org/2000/svg" width="20" height="16" viewBox="0 0 20 16">
    <path fill="#FFF" fill-rule="nonzero" d="M19.696 1.892a7.968 7.968 0 0 1-2.32.635A4.063 4.063 0 0 0 19.155.292c-.78.462-1.646.8-2.566.981A4.04 4.04 0 0 0 13.638 0a4.038 4.038 0 0 0-3.934 4.958A11.466 11.466 0 0 1 1.377.735a4.04 4.04 0 0 0-.546 2.03c0 1.4.711 2.639 1.796 3.362a4.044 4.044 0 0 1-1.83-.504v.05a4.04 4.04 0 0 0 3.241 3.962 4.047 4.047 0 0 1-1.826.069 4.053 4.053 0 0 0 3.773 2.808A8.103 8.103 0 0 1 0 14.185 11.427 11.427 0 0 0 6.196 16c7.43 0 11.496-6.158 11.496-11.496 0-.177-.004-.35-.011-.523a8.132 8.132 0 0 0 2.015-2.089z"/>
</svg>
