<svg xmlns="http://www.w3.org/2000/svg" width="80" height="80" viewBox="0 0 80 80">
    <g fill="none" fill-rule="evenodd">
        <circle cx="40" cy="40" r="40" fill="#2DAAE1"/>
        <path fill="#FFF" fill-rule="nonzero" d="M65.167 27.982a18.748 18.748 0 0 1-5.457 1.493 9.56 9.56 0 0 0 4.181-5.258 19.117 19.117 0 0 1-6.036 2.308 9.507 9.507 0 0 0-6.941-2.996 9.501 9.501 0 0 0-9.502 9.503c0 .742.081 1.466.244 2.163-7.9-.399-14.905-4.181-19.593-9.937a9.504 9.504 0 0 0-1.285 4.778 9.492 9.492 0 0 0 4.227 7.91 9.516 9.516 0 0 1-4.308-1.186v.118a9.507 9.507 0 0 0 7.629 9.321 9.522 9.522 0 0 1-4.299.163c1.213 3.774 4.724 6.525 8.878 6.606a19.065 19.065 0 0 1-11.81 4.073c-.77 0-1.52-.046-2.271-.136a26.888 26.888 0 0 0 14.579 4.271c17.484 0 27.05-14.488 27.05-27.05 0-.416-.01-.823-.028-1.23a19.135 19.135 0 0 0 4.742-4.914z"/>
    </g>
</svg>
