<svg xmlns="http://www.w3.org/2000/svg" width="20" height="15" viewBox="0 0 20 15">
    <path fill="#FFF" fill-rule="nonzero" d="M19.758 3.03s-.195-1.377-.795-1.981c-.76-.796-1.61-.8-2-.846C14.172 0 9.981 0 9.981 0h-.008S5.782 0 2.99.203c-.39.047-1.24.05-2 .846C.39 1.653.2 3.029.2 3.029S0 4.643 0 6.261v1.513c0 1.614.199 3.232.199 3.232s.195 1.376.791 1.98c.76.796 1.759.768 2.203.854 1.598.152 6.788.199 6.788.199s4.194-.008 6.986-.207c.39-.046 1.24-.05 2-.846.6-.604.795-1.98.795-1.98s.199-1.614.199-3.232V6.26c-.004-1.614-.203-3.232-.203-3.232zM7.914 9.61V4l5.392 2.815L7.914 9.61z"/>
</svg>
