<svg width="16" height="16" viewBox="0 0 16 16" fill="none" xmlns="http://www.w3.org/2000/svg">
<rect x="6.46806" y="6.12766" width="3.06383" height="7.82979" rx="1.53191" fill="white"/>
<ellipse cx="7.99997" cy="3.74467" rx="1.53191" ry="1.70213" fill="white"/>
<path d="M8.00001 0C3.68824 0 1.36275e-05 3.68127 1.36275e-05 8C1.36275e-05 9.47522 0.422743 11.0441 1.13551 12.2307L0.0160048 15.5887C-0.0213487 15.7009 0.00782612 15.8248 0.0915663 15.9084C0.175673 15.9926 0.299696 16.0212 0.41139 15.9839L3.76942 14.8645C4.95594 15.5774 6.52479 16 8.00001 16C12.3129 16 16 12.3182 16 8C16 3.68713 12.3184 0 8.00001 0V0ZM8.00001 15.375C6.58485 15.375 5.0807 14.9574 3.97633 14.2579C3.89808 14.2084 3.80055 14.1953 3.71022 14.2255L0.806654 15.1934L1.77455 12.2898C1.80433 12.2007 1.79237 12.103 1.74208 12.0237C1.04262 10.9194 0.625013 9.41516 0.625013 8C0.625013 4.00232 4.00233 0.625 8.00001 0.625C11.9977 0.625 15.375 4.00232 15.375 8C15.375 11.9977 11.9977 15.375 8.00001 15.375Z" fill="white"/>
</svg>
