<?xml version="1.0" encoding="UTF-8" standalone="no"?>
<!-- Created with Inkscape (http://www.inkscape.org/) -->

<svg
   xmlns:dc="http://purl.org/dc/elements/1.1/"
   xmlns:cc="http://creativecommons.org/ns#"
   xmlns:rdf="http://www.w3.org/1999/02/22-rdf-syntax-ns#"
   xmlns:svg="http://www.w3.org/2000/svg"
   xmlns="http://www.w3.org/2000/svg"
   xmlns:sodipodi="http://sodipodi.sourceforge.net/DTD/sodipodi-0.dtd"
   xmlns:inkscape="http://www.inkscape.org/namespaces/inkscape"
   width="6.6261001mm"
   height="3.96875mm"
   viewBox="0 0 6.6260999 3.96875"
   version="1.1"
   id="svg8"
   inkscape:version="0.92.4 (5da689c313, 2019-01-14)"
   sodipodi:docname="flag-br.svg">
  <defs
     id="defs2" />
  <sodipodi:namedview
     id="base"
     pagecolor="#ffffff"
     bordercolor="#666666"
     borderopacity="1.0"
     inkscape:pageopacity="0.0"
     inkscape:pageshadow="2"
     inkscape:zoom="11.2"
     inkscape:cx="9.9568851"
     inkscape:cy="14.007726"
     inkscape:document-units="mm"
     inkscape:current-layer="layer1"
     showgrid="false"
     inkscape:window-width="1862"
     inkscape:window-height="1016"
     inkscape:window-x="58"
     inkscape:window-y="27"
     inkscape:window-maximized="1" />
  <metadata
     id="metadata5">
    <rdf:RDF>
      <cc:Work
         rdf:about="">
        <dc:format>image/svg+xml</dc:format>
        <dc:type
           rdf:resource="http://purl.org/dc/dcmitype/StillImage" />
        <dc:title></dc:title>
      </cc:Work>
    </rdf:RDF>
  </metadata>
  <g
     inkscape:label="Camada 1"
     inkscape:groupmode="layer"
     id="layer1"
     transform="translate(-65.049709,-133.71429)">
    <path
       style="fill:#484848;fill-opacity:1;stroke-width:0.01725547"
       d="m 65.049709,135.69866 v -1.98437 h 3.313048 3.313052 v 1.98437 1.98438 h -3.313052 -3.313048 z m 4.48378,0.73336 c 0.637063,-0.3986 1.158335,-0.72861 1.158383,-0.73336 5.2e-5,-0.005 -0.524007,-0.33632 -1.164567,-0.73682 l -1.164654,-0.72818 -1.164523,0.72818 c -0.640488,0.4005 -1.164562,0.73208 -1.164608,0.73682 -1.31e-4,0.0123 2.317827,1.4642 2.331142,1.46079 0.0059,-0.001 0.531766,-0.32883 1.168827,-0.72743 z m -1.427427,0.22298 c -0.24845,-0.0669 -0.492995,-0.26111 -0.610773,-0.48524 -0.08361,-0.15911 -0.116089,-0.29092 -0.116089,-0.4711 0,-0.18019 0.03247,-0.312 0.116089,-0.4711 0.11965,-0.2277 0.364095,-0.41991 0.618168,-0.48608 0.129792,-0.0339 0.368807,-0.0339 0.498603,0 0.335921,0.0875 0.620391,0.37196 0.707887,0.70788 0.0338,0.12978 0.0338,0.3688 0,0.49861 -0.0875,0.33591 -0.371966,0.62038 -0.707887,0.70788 -0.1262,0.0328 -0.382229,0.0325 -0.505998,-8.8e-4 z m 0.73985,-0.47319 c 0,-0.009 -0.0034,-0.0173 -0.0076,-0.0173 -0.0042,0 -0.01248,0.008 -0.01828,0.0173 -0.0059,0.009 -0.0025,0.0173 0.0076,0.0173 0.01002,0 0.01828,-0.008 0.01828,-0.0173 z m -0.172555,-0.0711 c 0,-0.009 -0.0077,-0.0123 -0.01726,-0.006 -0.0096,0.006 -0.01726,0.0185 -0.01726,0.0279 0,0.009 0.0077,0.0123 0.01726,0.006 0.0096,-0.006 0.01726,-0.0183 0.01726,-0.0279 z m 0.181182,-0.0154 c 0.0059,-0.009 -0.0014,-0.0173 -0.01623,-0.0173 -0.0148,0 -0.0269,0.008 -0.0269,0.0173 0,0.009 0.0072,0.0173 0.01623,0.0173 0.0089,0 0.02104,-0.008 0.0269,-0.0173 z m -0.103529,-0.0518 c 0.0059,-0.009 0.0025,-0.0173 -0.0076,-0.0173 -0.01002,0 -0.01828,0.008 -0.01828,0.0173 0,0.009 0.0034,0.0173 0.0076,0.0173 0.0042,0 0.01248,-0.008 0.01828,-0.0173 z m -0.146668,-0.0173 c 0,-0.009 -0.0082,-0.0173 -0.01828,-0.0173 -0.01002,0 -0.01341,0.008 -0.0076,0.0173 0.0059,0.009 0.01403,0.0173 0.01828,0.0173 0.0042,0 0.0076,-0.008 0.0076,-0.0173 z m 0.327853,0 c 0,-0.009 -0.0034,-0.0173 -0.0076,-0.0173 -0.0042,0 -0.01233,0.008 -0.01828,0.0173 -0.0059,0.009 -0.0025,0.0173 0.0076,0.0173 0.01002,0 0.01828,-0.008 0.01828,-0.0173 z m -0.845517,-0.0259 c 0,-0.0139 -0.01171,-0.0259 -0.02588,-0.0259 -0.01418,0 -0.02588,0.0123 -0.02588,0.0259 0,0.0139 0.01171,0.0259 0.02588,0.0259 0.01418,0 0.02588,-0.0123 0.02588,-0.0259 z m 0.75924,0.009 c 0,-0.009 -0.0034,-0.0173 -0.0076,-0.0173 -0.0042,0 -0.01248,0.008 -0.01828,0.0173 -0.0059,0.009 -0.0025,0.0173 0.0076,0.0173 0.01002,0 0.01828,-0.008 0.01828,-0.0173 z m 0.156593,-0.022 c -0.0022,-0.0206 -0.0258,-0.0166 -0.03321,0.006 -0.0039,0.0108 0.0025,0.0176 0.01387,0.0139 0.01141,-0.005 0.02013,-0.0123 0.0194,-0.0194 z m -0.574563,-0.0629 c -0.0063,-0.0327 -0.03724,-0.0304 -0.04433,0.003 -0.0028,0.0139 0.0072,0.0239 0.02229,0.0239 0.01563,0 0.02506,-0.0123 0.02204,-0.0273 z m -0.479314,-0.0108 c 0,-0.0154 -0.0077,-0.022 -0.01726,-0.0162 -0.0096,0.006 -0.01726,0.018 -0.01726,0.027 0,0.009 0.0077,0.0162 0.01726,0.0162 0.0096,0 0.01726,-0.0123 0.01726,-0.0268 z m 1.105643,0.005 c -0.0022,-0.0207 -0.0258,-0.0167 -0.03321,0.006 -0.0039,0.0108 0.0025,0.0176 0.01387,0.0139 0.0114,-0.005 0.02013,-0.0123 0.0194,-0.0194 z m -0.0225,-0.0783 c 0.0037,-0.0108 -0.0054,-0.0205 -0.0205,-0.0205 -0.01495,0 -0.02733,0.0123 -0.02733,0.0273 0,0.0305 0.03714,0.0251 0.04781,-0.006 z m 0.107489,0.0139 c 0,-0.009 -0.0077,-0.0173 -0.01726,-0.0173 -0.0096,0 -0.01726,0.008 -0.01726,0.0173 0,0.009 0.0077,0.0173 0.01726,0.0173 0.0096,0 0.01726,-0.008 0.01726,-0.0173 z m -1.156115,-0.0139 c 0,-0.0225 -0.02052,-0.0375 -0.03721,-0.0271 -0.01785,0.0108 -0.0025,0.0415 0.02096,0.0415 0.0089,0 0.01623,-0.006 0.01623,-0.0139 z m -0.293342,-0.0202 c 0,-0.009 -0.0034,-0.0173 -0.0076,-0.0173 -0.0042,0 -0.01233,0.008 -0.01828,0.0173 -0.0059,0.009 -0.0025,0.0173 0.0076,0.0173 0.01002,0 0.01828,-0.008 0.01828,-0.0173 z m 1.556064,-0.11205 c 0.0049,-0.0448 -0.0082,-0.0609 -0.114348,-0.14118 -0.06595,-0.0498 -0.194227,-0.12777 -0.285069,-0.17321 -0.131148,-0.0657 -0.163866,-0.0892 -0.158853,-0.11483 0.0042,-0.0213 -0.0015,-0.0293 -0.01689,-0.0237 -0.01279,0.005 -0.02096,0.0182 -0.0182,0.0299 0.0034,0.0139 -0.0054,0.0174 -0.02588,0.009 -0.19097,-0.0764 -0.622086,-0.13672 -0.847436,-0.11853 -0.146206,0.0123 -0.165435,0.0208 -0.189225,0.0891 l -0.01624,0.0465 0.321194,8.7e-4 c 0.288973,8.8e-4 0.337766,0.006 0.486393,0.0455 0.293739,0.0791 0.587781,0.2253 0.766596,0.3812 0.07372,0.0643 0.08799,0.0598 0.09798,-0.0311 z m -0.09729,-0.008 c -0.0065,-0.0108 -7e-4,-0.0139 0.01418,-0.008 0.01449,0.006 0.02887,-0.002 0.03365,-0.0177 0.0071,-0.0231 0.008,-0.0228 0.0059,0.002 -0.0031,0.0344 -0.03775,0.0503 -0.05364,0.0245 z m -0.06757,-0.0794 c -0.01665,-0.0435 -0.01171,-0.0546 0.0086,-0.0196 0.01002,0.0173 0.01464,0.0351 0.01017,0.0396 -0.0045,0.005 -0.01295,-0.005 -0.01883,-0.02 z m -0.103883,-0.0396 c -0.0049,-0.008 0.0025,-0.0139 0.01623,-0.0139 0.01387,0 0.02512,0.006 0.02512,0.0139 0,0.008 -0.0072,0.0139 -0.01623,0.0139 -0.0089,0 -0.02024,-0.006 -0.02512,-0.0139 z m 0.0068,-0.0575 c 0,-0.008 0.0072,-0.0139 0.01623,-0.0139 0.0089,0 0.02024,0.006 0.02512,0.0139 0.0049,0.008 -0.0025,0.0139 -0.01623,0.0139 -0.01387,0 -0.02512,-0.006 -0.02512,-0.0139 z m -0.120791,-0.0139 c 0,-0.009 0.0077,-0.021 0.01706,-0.0268 0.0097,-0.006 0.01264,8.6e-4 0.0068,0.0162 -0.01141,0.0299 -0.02384,0.0353 -0.02384,0.0108 z m -0.128312,-0.0923 c 0.0065,-0.017 0.01614,-0.0267 0.02144,-0.0213 0.0052,0.005 1.1e-5,0.0193 -0.01171,0.031 -0.01705,0.017 -0.01902,0.0154 -0.0097,-0.009 z m -0.141829,-0.0388 c -0.0055,-0.0154 -0.0054,-0.0314 5.25e-4,-0.0375 0.0059,-0.006 0.01079,0.003 0.01079,0.0199 0,0.0205 0.0088,0.0273 0.02677,0.0204 0.01541,-0.006 0.02229,-0.003 0.01623,0.006 -0.01569,0.0254 -0.04272,0.0206 -0.05431,-0.009 z m -0.363702,-0.10141 c 0.0022,-0.0182 0.01566,-0.0362 0.0299,-0.0401 0.01665,-0.005 0.01911,-0.002 0.0069,0.008 -0.01048,0.008 -0.02389,0.0259 -0.0299,0.0401 -0.0077,0.0182 -0.0097,0.016 -0.0069,-0.008 z m -0.487507,-0.0139 c -1.3e-4,-0.017 0.0131,-0.0307 0.02993,-0.0314 0.026,-8.8e-4 0.0254,-0.003 -0.0043,-0.0171 -0.03201,-0.0154 -0.03214,-0.0156 -0.0017,-0.0123 0.0181,0.002 0.03488,0.0177 0.03731,0.0344 0.0025,0.017 -0.0032,0.0256 -0.01326,0.0194 -0.0097,-0.006 -0.02444,-1.8e-4 -0.03274,0.0123 -0.01187,0.0188 -0.0151,0.0174 -0.01526,-0.006 z m -0.05954,-0.0251 c -0.0094,-0.0247 -0.0074,-0.0265 0.0097,-0.009 0.01187,0.0123 0.01709,0.0256 0.01171,0.031 -0.0052,0.005 -0.01495,-0.005 -0.02144,-0.0213 z m 0.164819,-8.8e-4 c -0.002,-0.0394 0.03805,-0.0544 0.05828,-0.0217 0.0059,0.009 -5.69e-4,0.0123 -0.0148,0.008 -0.01541,-0.006 -0.02847,0.003 -0.03342,0.0217 -0.0065,0.0253 -0.0085,0.0237 -0.01017,-0.008 z m 0.103528,0 c -0.0015,-0.0299 0.0069,-0.0384 0.03682,-0.0368 0.02751,0.001 0.03033,0.005 0.0097,0.009 -0.01603,0.005 -0.0326,0.0208 -0.03682,0.0368 -0.0054,0.0207 -0.0083,0.0177 -0.0097,-0.009 z m 0.101524,0.003 c 0,-0.0139 0.0077,-0.0243 0.01726,-0.0243 0.0096,0 0.01737,0.009 0.01752,0.0216 1.96e-4,0.0139 0.0062,0.0139 0.01857,-0.005 0.01433,-0.0202 0.01688,-0.0207 0.01171,-0.001 -0.0086,0.0324 -0.06509,0.0398 -0.06509,0.009 z m 0.465897,0.51819 c 0,-0.0154 -0.0077,-0.0221 -0.01726,-0.0162 -0.0096,0.006 -0.01726,0.018 -0.01726,0.0268 0,0.009 0.0077,0.0162 0.01726,0.0162 0.0096,0 0.01726,-0.0123 0.01726,-0.027 z m -0.723435,-0.0123 c -0.0022,-0.0207 -0.0258,-0.0166 -0.03321,0.006 -0.0039,0.0108 0.0025,0.0176 0.01387,0.0139 0.01141,-0.005 0.02013,-0.0123 0.01941,-0.0194 z m 0.533626,0.005 c 0,-0.009 -0.0034,-0.0173 -0.0076,-0.0173 -0.0042,0 -0.01248,0.008 -0.01828,0.0173 -0.0059,0.009 -0.0025,0.0173 0.0076,0.0173 0.01002,0 0.01828,-0.008 0.01828,-0.0173 z m 0.0949,-0.0691 c 0.0059,-0.009 -0.0014,-0.0173 -0.01623,-0.0173 -0.0148,0 -0.02689,0.008 -0.02689,0.0173 0,0.009 0.0072,0.0173 0.01623,0.0173 0.0089,0 0.02104,-0.008 0.0269,-0.0173 z m -0.319225,-0.10358 c 0,-0.009 -0.01218,-0.0173 -0.0269,-0.0173 -0.0148,0 -0.0221,0.008 -0.01623,0.0173 0.0059,0.009 0.01797,0.0173 0.02689,0.0173 0.0089,0 0.01623,-0.008 0.01623,-0.0173 z m -0.372111,-0.188 c 0.0052,-0.009 -0.0019,-0.0199 -0.01569,-0.0251 -0.02696,-0.0108 -0.05,0.0108 -0.03161,0.0296 0.0156,0.0156 0.03613,0.0139 0.0473,-0.005 z"
       id="path21"
       inkscape:connector-curvature="0" />
  </g>
</svg>
