<?xml version="1.0" encoding="UTF-8" standalone="no"?>
<!DOCTYPE svg PUBLIC "-//W3C//DTD SVG 1.1//EN"
 "http://www.w3.org/Graphics/SVG/1.1/DTD/svg11.dtd">
<!-- Generated by graphviz version 2.26.3 (20100126.1600)
 -->
<!-- Title: models_diagram Pages: 1 -->
<svg width="2243pt" height="734pt"
 viewBox="0.00 0.00 2243.00 734.00" xmlns="http://www.w3.org/2000/svg" xmlns:xlink="http://www.w3.org/1999/xlink">
<g id="graph1" class="graph" transform="scale(1 1) rotate(0) translate(4 730)">
<title>models_diagram</title>
<polygon fill="white" stroke="white" points="-4,5 -4,-730 2240,-730 2240,5 -4,5"/>
<!-- _diagram_info -->
<g id="node1" class="node"><title>_diagram_info</title>
<text text-anchor="start" x="358" y="-709.8" font-family="Times Roman,serif" font-size="13.00">Models diagram</text>
<text text-anchor="start" x="358" y="-692.8" font-family="Times Roman,serif" font-size="13.00">Date: Jan 22 2013 &#45; 11:30</text>
<text text-anchor="start" x="358" y="-675.8" font-family="Times Roman,serif" font-size="13.00">Migration version: 20121031205028</text>
<text text-anchor="start" x="358" y="-658.8" font-family="Times Roman,serif" font-size="13.00">Generated by RailRoady 1.1.0</text>
<text text-anchor="start" x="358" y="-641.8" font-family="Times Roman,serif" font-size="13.00">http://railroady.prestonlee.com</text>
</g>
<!-- SitesStyle -->
<g id="node2" class="node"><title>SitesStyle</title>
<ellipse fill="none" stroke="black" cx="1019" cy="-483" rx="60.8112" ry="18.3848"/>
<text text-anchor="middle" x="1019" y="-479.4" font-family="Times Roman,serif" font-size="14.00">SitesStyle</text>
</g>
<!-- Role -->
<g id="node3" class="node"><title>Role</title>
<ellipse fill="none" stroke="black" cx="908" cy="-483" rx="32.0265" ry="18.3848"/>
<text text-anchor="middle" x="908" y="-479.4" font-family="Times Roman,serif" font-size="14.00">Role</text>
</g>
<!-- User -->
<g id="node6" class="node"><title>User</title>
<ellipse fill="none" stroke="black" cx="909" cy="-371" rx="33.9411" ry="18.3848"/>
<text text-anchor="middle" x="909" y="-367.4" font-family="Times Roman,serif" font-size="14.00">User</text>
</g>
<!-- Role&#45;&gt;User -->
<g id="edge2" class="edge"><title>Role&#45;&gt;User</title>
<path fill="none" stroke="#a977af" d="M908.259,-454.029C908.407,-437.426 908.592,-416.654 908.741,-400.039"/>
<polygon fill="#a977af" stroke="#a977af" points="908.257,-454.254 903.668,-464.213 908.212,-459.254 908.167,-464.254 908.167,-464.254 908.167,-464.254 908.212,-459.254 912.667,-464.294 908.257,-454.254 908.257,-454.254"/>
<polygon fill="#a977af" stroke="#a977af" points="908.743,-399.807 913.332,-389.848 908.787,-394.807 908.832,-389.807 908.832,-389.807 908.832,-389.807 908.787,-394.807 904.332,-389.767 908.743,-399.807 908.743,-399.807"/>
</g>
<!-- Right -->
<g id="node10" class="node"><title>Right</title>
<ellipse fill="none" stroke="black" cx="1037" cy="-371" rx="36.977" ry="18.3848"/>
<text text-anchor="middle" x="1037" y="-367.4" font-family="Times Roman,serif" font-size="14.00">Right</text>
</g>
<!-- Role&#45;&gt;Right -->
<g id="edge6" class="edge"><title>Role&#45;&gt;Right</title>
<path fill="none" stroke="#b16414" d="M942.255,-466.992C962.75,-457.375 985.025,-446.835 986,-446 1001.45,-432.767 1014.29,-413.79 1023.23,-398.237"/>
<polygon fill="#b16414" stroke="#b16414" points="942.101,-467.064 931.136,-467.233 937.573,-469.186 933.046,-471.308 933.046,-471.308 933.046,-471.308 937.573,-469.186 934.956,-475.383 942.101,-467.064 942.101,-467.064"/>
<polygon fill="#b16414" stroke="#b16414" points="1023.45,-397.836 1032.22,-391.248 1025.86,-393.456 1028.27,-389.077 1028.27,-389.077 1028.27,-389.077 1025.86,-393.456 1024.33,-386.906 1023.45,-397.836 1023.45,-397.836"/>
</g>
<!-- RightsRole -->
<g id="node17" class="node"><title>RightsRole</title>
<ellipse fill="none" stroke="black" cx="1038" cy="-295" rx="62.9325" ry="18.3848"/>
<text text-anchor="middle" x="1038" y="-291.4" font-family="Times Roman,serif" font-size="14.00">RightsRole</text>
</g>
<!-- Role&#45;&gt;RightsRole -->
<g id="edge4" class="edge"><title>Role&#45;&gt;RightsRole</title>
<path fill="none" stroke="#3102c5" d="M922.526,-458.069C938.438,-431.256 965.149,-387.669 991,-352 998.644,-341.452 1007.62,-330.302 1015.67,-320.688"/>
<ellipse fill="none" stroke="#3102c5" cx="920.368" cy="-461.722" rx="4.00002" ry="4.00002"/>
<polygon fill="#3102c5" stroke="#3102c5" points="1015.7,-320.652 1025.6,-315.928 1018.93,-316.836 1022.16,-313.02 1022.16,-313.02 1022.16,-313.02 1018.93,-316.836 1018.73,-310.112 1015.7,-320.652 1015.7,-320.652"/>
</g>
<!-- PagePositionObserver -->
<g id="node4" class="node"><title>PagePositionObserver</title>
<polygon fill="none" stroke="black" points="1192,-577 1026,-577 1026,-541 1192,-541 1192,-577"/>
<text text-anchor="middle" x="1109" y="-555.4" font-family="Times Roman,serif" font-size="14.00">PagePositionObserver</text>
</g>
<!-- SitesMenu -->
<g id="node5" class="node"><title>SitesMenu</title>
<ellipse fill="none" stroke="black" cx="1316" cy="-679" rx="62.9325" ry="18.3848"/>
<text text-anchor="middle" x="1316" y="-675.4" font-family="Times Roman,serif" font-size="14.00">SitesMenu</text>
</g>
<!-- Page -->
<g id="node23" class="node"><title>Page</title>
<ellipse fill="none" stroke="black" cx="609" cy="-295" rx="34.8574" ry="18.3848"/>
<text text-anchor="middle" x="609" y="-291.4" font-family="Times Roman,serif" font-size="14.00">Page</text>
</g>
<!-- User&#45;&gt;Page -->
<g id="edge12" class="edge"><title>User&#45;&gt;Page</title>
<path fill="none" stroke="#d47c4b" d="M869.917,-361.099C813.25,-346.743 708.718,-320.262 650.646,-305.55"/>
<ellipse fill="none" stroke="#d47c4b" cx="874.147" cy="-362.171" rx="4.00001" ry="4.00001"/>
<polygon fill="#d47c4b" stroke="#d47c4b" points="650.402,-305.489 641.813,-298.671 645.555,-304.261 640.708,-303.033 640.708,-303.033 640.708,-303.033 645.555,-304.261 639.603,-307.395 650.402,-305.489 650.402,-305.489"/>
</g>
<!-- Group -->
<g id="node31" class="node"><title>Group</title>
<ellipse fill="none" stroke="black" cx="916" cy="-295" rx="41.2167" ry="18.3848"/>
<text text-anchor="middle" x="916" y="-291.4" font-family="Times Roman,serif" font-size="14.00">Group</text>
</g>
<!-- User&#45;&gt;Group -->
<g id="edge10" class="edge"><title>User&#45;&gt;Group</title>
<path fill="none" stroke="#b70277" d="M911.649,-342.244C912.202,-336.24 912.785,-329.908 913.338,-323.898"/>
<polygon fill="#b70277" stroke="#b70277" points="911.648,-342.256 906.249,-351.801 911.189,-347.235 910.73,-352.213 910.73,-352.213 910.73,-352.213 911.189,-347.235 915.211,-352.626 911.648,-342.256 911.648,-342.256"/>
<polygon fill="#b70277" stroke="#b70277" points="913.372,-323.528 918.771,-313.983 913.831,-318.549 914.29,-313.57 914.29,-313.57 914.29,-313.57 913.831,-318.549 909.809,-313.158 913.372,-323.528 913.372,-323.528"/>
</g>
<!-- Locale -->
<g id="node7" class="node"><title>Locale</title>
<ellipse fill="none" stroke="black" cx="250" cy="-111" rx="41.9273" ry="18.3848"/>
<text text-anchor="middle" x="250" y="-107.4" font-family="Times Roman,serif" font-size="14.00">Locale</text>
</g>
<!-- Site -->
<g id="node12" class="node"><title>Site</title>
<ellipse fill="none" stroke="black" cx="561" cy="-559" rx="31.1127" ry="18.3848"/>
<text text-anchor="middle" x="561" y="-555.4" font-family="Times Roman,serif" font-size="14.00">Site</text>
</g>
<!-- Locale&#45;&gt;Site -->
<g id="edge16" class="edge"><title>Locale&#45;&gt;Site</title>
<path fill="none" stroke="#306218" d="M243.195,-139.429C227.236,-213.878 196.159,-416.086 300,-522 315.123,-537.425 449.91,-550.224 519.623,-555.879"/>
<polygon fill="#306218" stroke="#306218" points="243.255,-139.161 249.815,-130.374 244.339,-134.28 245.422,-129.398 245.422,-129.398 245.422,-129.398 244.339,-134.28 241.029,-128.423 243.255,-139.161 243.255,-139.161"/>
<polygon fill="#306218" stroke="#306218" points="519.851,-555.897 529.461,-561.179 524.835,-556.295 529.82,-556.693 529.82,-556.693 529.82,-556.693 524.835,-556.295 530.178,-552.207 519.851,-555.897 519.851,-555.897"/>
</g>
<!-- Page::I18ns -->
<g id="node34" class="node"><title>Page::I18ns</title>
<ellipse fill="none" stroke="black" cx="291" cy="-19" rx="68.0887" ry="18.3848"/>
<text text-anchor="middle" x="291" y="-15.4" font-family="Times Roman,serif" font-size="14.00">Page::I18ns</text>
</g>
<!-- Locale&#45;&gt;Page::I18ns -->
<g id="edge14" class="edge"><title>Locale&#45;&gt;Page::I18ns</title>
<path fill="none" stroke="#bff12b" d="M257.851,-84.7657C260.935,-75.5132 264.757,-65.1427 269,-56 270.492,-52.7843 272.187,-49.4899 273.958,-46.2563"/>
<ellipse fill="none" stroke="#bff12b" cx="256.567" cy="-88.7434" rx="4.00001" ry="4.00001"/>
<polygon fill="#bff12b" stroke="#bff12b" points="274.056,-46.0867 282.945,-39.6658 276.551,-41.7536 279.045,-37.4205 279.045,-37.4205 279.045,-37.4205 276.551,-41.7536 275.146,-35.1751 274.056,-46.0867 274.056,-46.0867"/>
<text text-anchor="middle" x="287.5" y="-61.4" font-family="Times Roman,serif" font-size="14.00">news</text>
</g>
<!-- Style -->
<g id="node8" class="node"><title>Style</title>
<ellipse fill="none" stroke="black" cx="655" cy="-679" rx="36.7696" ry="18.3848"/>
<text text-anchor="middle" x="655" y="-675.4" font-family="Times Roman,serif" font-size="14.00">Style</text>
</g>
<!-- Style&#45;&gt;SitesStyle -->
<g id="edge18" class="edge"><title>Style&#45;&gt;SitesStyle</title>
<path fill="none" stroke="#d6eec8" d="M687.568,-661.463C754.489,-625.429 907.24,-543.178 979.597,-504.217"/>
<ellipse fill="none" stroke="#d6eec8" cx="683.829" cy="-663.477" rx="4.00002" ry="4.00002"/>
<polygon fill="#d6eec8" stroke="#d6eec8" points="980.037,-503.98 990.976,-503.201 984.44,-501.609 988.842,-499.239 988.842,-499.239 988.842,-499.239 984.44,-501.609 986.709,-495.277 980.037,-503.98 980.037,-503.98"/>
</g>
<!-- Style&#45;&gt;Site -->
<g id="edge20" class="edge"><title>Style&#45;&gt;Site</title>
<path fill="none" stroke="#5b871e" d="M635.007,-653.477C618.946,-632.974 596.517,-604.341 580.569,-583.982"/>
<polygon fill="#5b871e" stroke="#5b871e" points="635.165,-653.679 637.789,-664.326 638.248,-657.615 641.332,-661.551 641.332,-661.551 641.332,-661.551 638.248,-657.615 644.874,-658.776 635.165,-653.679 635.165,-653.679"/>
<polygon fill="#5b871e" stroke="#5b871e" points="580.547,-583.954 577.923,-573.307 577.464,-580.018 574.381,-576.082 574.381,-576.082 574.381,-576.082 577.464,-580.018 570.838,-578.857 580.547,-583.954 580.547,-583.954"/>
<text text-anchor="middle" x="634.5" y="-601.4" font-family="Times Roman,serif" font-size="14.00">followers</text>
</g>
<!-- Banner -->
<g id="node9" class="node"><title>Banner</title>
<ellipse fill="none" stroke="black" cx="742" cy="-111" rx="46.8775" ry="18.3848"/>
<text text-anchor="middle" x="742" y="-107.4" font-family="Times Roman,serif" font-size="14.00">Banner</text>
</g>
<!-- ActsAsTaggableOn::Tagging -->
<g id="node39" class="node"><title>ActsAsTaggableOn::Tagging</title>
<ellipse fill="none" stroke="black" cx="873" cy="-19" rx="144.25" ry="18.3848"/>
<text text-anchor="middle" x="873" y="-15.4" font-family="Times Roman,serif" font-size="14.00">ActsAsTaggableOn::Tagging</text>
</g>
<!-- Banner&#45;&gt;ActsAsTaggableOn::Tagging -->
<g id="edge22" class="edge"><title>Banner&#45;&gt;ActsAsTaggableOn::Tagging</title>
<path fill="none" stroke="#6d675e" d="M780.724,-93.5657C791.835,-87.9162 803.718,-81.2246 814,-74 826.143,-65.4673 838.344,-54.5729 848.474,-44.7347"/>
<ellipse fill="none" stroke="#6d675e" cx="777.141" cy="-95.3443" rx="4.00002" ry="4.00002"/>
<polygon fill="#6d675e" stroke="#6d675e" points="848.688,-44.5224 858.953,-40.666 852.234,-40.9981 855.781,-37.4739 855.781,-37.4739 855.781,-37.4739 852.234,-40.9981 852.609,-34.2818 848.688,-44.5224 848.688,-44.5224"/>
<text text-anchor="middle" x="864.5" y="-61.4" font-family="Times Roman,serif" font-size="14.00">taggings</text>
</g>
<!-- Banner&#45;&gt;ActsAsTaggableOn::Tagging -->
<g id="edge26" class="edge"><title>Banner&#45;&gt;ActsAsTaggableOn::Tagging</title>
<path fill="none" stroke="#ae2eb8" d="M703.227,-93.4487C685.951,-83.2052 671.758,-69.6429 683,-56 692.176,-44.8643 716.576,-37.036 744.954,-31.5493"/>
<ellipse fill="none" stroke="#ae2eb8" cx="706.724" cy="-95.3976" rx="4.00002" ry="4.00002"/>
<polygon fill="#ae2eb8" stroke="#ae2eb8" points="745.299,-31.4869 755.941,-34.1327 750.219,-30.5958 755.139,-29.7047 755.139,-29.7047 755.139,-29.7047 750.219,-30.5958 754.337,-25.2767 745.299,-31.4869 745.299,-31.4869"/>
<text text-anchor="middle" x="746.5" y="-61.4" font-family="Times Roman,serif" font-size="14.00">category_taggings</text>
</g>
<!-- ActsAsTaggableOn::Tag -->
<g id="node41" class="node"><title>ActsAsTaggableOn::Tag</title>
<ellipse fill="none" stroke="black" cx="500" cy="-19" rx="123.243" ry="18.3848"/>
<text text-anchor="middle" x="500" y="-15.4" font-family="Times Roman,serif" font-size="14.00">ActsAsTaggableOn::Tag</text>
</g>
<!-- Banner&#45;&gt;ActsAsTaggableOn::Tag -->
<g id="edge24" class="edge"><title>Banner&#45;&gt;ActsAsTaggableOn::Tag</title>
<path fill="none" stroke="#edccc9" d="M698.403,-95.1365C694.245,-93.9488 690.065,-92.8751 686,-92 645.62,-83.3069 529.034,-104.335 501,-74 494.526,-66.995 492.952,-57.0844 493.439,-47.6016"/>
<polygon fill="#edccc9" stroke="#edccc9" points="698.435,-95.1463 706.679,-102.377 703.216,-96.6104 707.997,-98.0744 707.997,-98.0744 707.997,-98.0744 703.216,-96.6104 709.314,-93.7716 698.435,-95.1463 698.435,-95.1463"/>
<polygon fill="#edccc9" stroke="#edccc9" points="493.443,-47.5653 499.11,-38.1771 494.043,-42.6014 494.642,-37.6375 494.642,-37.6375 494.642,-37.6375 494.043,-42.6014 490.175,-37.0978 493.443,-47.5653 493.443,-47.5653"/>
<text text-anchor="middle" x="535.5" y="-61.4" font-family="Times Roman,serif" font-size="14.00">base_tags</text>
</g>
<!-- Banner&#45;&gt;ActsAsTaggableOn::Tag -->
<g id="edge28" class="edge"><title>Banner&#45;&gt;ActsAsTaggableOn::Tag</title>
<path fill="none" stroke="#0d754a" d="M697.598,-95.4353C693.692,-94.2182 689.786,-93.0543 686,-92 650.056,-81.9905 639.031,-86.8465 604,-74 587.947,-68.1131 585.114,-63.995 570,-56 561.252,-51.3726 551.889,-46.4218 542.948,-41.6953"/>
<polygon fill="#0d754a" stroke="#0d754a" points="697.716,-95.4735 705.856,-102.822 702.476,-97.0058 707.235,-98.5381 707.235,-98.5381 707.235,-98.5381 702.476,-97.0058 708.614,-94.2546 697.716,-95.4735 697.716,-95.4735"/>
<polygon fill="#0d754a" stroke="#0d754a" points="542.667,-41.5471 535.929,-32.8955 538.247,-39.2105 533.826,-36.874 533.826,-36.874 533.826,-36.874 538.247,-39.2105 531.724,-40.8524 542.667,-41.5471 542.667,-41.5471"/>
<text text-anchor="middle" x="639.5" y="-61.4" font-family="Times Roman,serif" font-size="14.00">categories</text>
</g>
<!-- Right&#45;&gt;RightsRole -->
<g id="edge30" class="edge"><title>Right&#45;&gt;RightsRole</title>
<path fill="none" stroke="#4e94bb" d="M1037.35,-344.073C1037.44,-337.449 1037.54,-330.332 1037.62,-323.63"/>
<ellipse fill="none" stroke="#4e94bb" cx="1037.3" cy="-348.214" rx="4" ry="4"/>
<polygon fill="#4e94bb" stroke="#4e94bb" points="1037.62,-323.57 1042.26,-313.63 1037.69,-318.57 1037.76,-313.57 1037.76,-313.57 1037.76,-313.57 1037.69,-318.57 1033.26,-313.511 1037.62,-323.57 1037.62,-323.57"/>
</g>
<!-- Repository -->
<g id="node11" class="node"><title>Repository</title>
<ellipse fill="none" stroke="black" cx="730" cy="-203" rx="62.9325" ry="18.3848"/>
<text text-anchor="middle" x="730" y="-199.4" font-family="Times Roman,serif" font-size="14.00">Repository</text>
</g>
<!-- Repository&#45;&gt;Banner -->
<g id="edge34" class="edge"><title>Repository&#45;&gt;Banner</title>
<path fill="none" stroke="#c398f1" d="M733.463,-176.447C735.054,-164.254 736.935,-149.828 738.527,-137.627"/>
<ellipse fill="none" stroke="#c398f1" cx="732.946" cy="-180.416" rx="4.00001" ry="4.00001"/>
<ellipse fill="#c398f1" stroke="#c398f1" cx="739.058" cy="-133.556" rx="4.00001" ry="4.00001"/>
</g>
<!-- PagesRepository -->
<g id="node16" class="node"><title>PagesRepository</title>
<ellipse fill="none" stroke="black" cx="586" cy="-111" rx="91.2168" ry="18.3848"/>
<text text-anchor="middle" x="586" y="-107.4" font-family="Times Roman,serif" font-size="14.00">PagesRepository</text>
</g>
<!-- Repository&#45;&gt;PagesRepository -->
<g id="edge36" class="edge"><title>Repository&#45;&gt;PagesRepository</title>
<path fill="none" stroke="#006c81" d="M696.744,-181.753C674.428,-167.496 645.039,-148.719 622.145,-134.093"/>
<ellipse fill="none" stroke="#006c81" cx="700.217" cy="-183.972" rx="4.00002" ry="4.00002"/>
<polygon fill="#006c81" stroke="#006c81" points="622.144,-134.092 616.139,-124.916 617.93,-131.4 613.717,-128.708 613.717,-128.708 613.717,-128.708 617.93,-131.4 611.294,-132.5 622.144,-134.092 622.144,-134.092"/>
</g>
<!-- Repository&#45;&gt;Page -->
<g id="edge32" class="edge"><title>Repository&#45;&gt;Page</title>
<path fill="none" stroke="#75d250" d="M726.137,-229.94C725.731,-239.671 724.082,-250.175 718,-258 709.296,-269.198 678.146,-278.693 651.275,-285.26"/>
<ellipse fill="none" stroke="#75d250" cx="726.197" cy="-225.674" rx="4" ry="4"/>
<polygon fill="#75d250" stroke="#75d250" points="650.973,-285.331 640.206,-283.251 646.107,-286.481 641.241,-287.631 641.241,-287.631 641.241,-287.631 646.107,-286.481 642.276,-292.01 650.973,-285.331 650.973,-285.331"/>
</g>
<!-- Repository&#45;&gt;Page -->
<g id="edge38" class="edge"><title>Repository&#45;&gt;Page</title>
<path fill="none" stroke="#998311" d="M743.048,-231.511C743.542,-240.789 741.756,-250.594 736,-258 725.881,-271.019 685.42,-281.736 652.729,-288.226"/>
<polygon fill="#998311" stroke="#998311" points="743.021,-231.315 746.068,-220.781 742.317,-226.365 741.613,-221.415 741.613,-221.415 741.613,-221.415 742.317,-226.365 737.158,-222.048 743.021,-231.315 743.021,-231.315"/>
<polygon fill="#998311" stroke="#998311" points="652.699,-288.232 642.033,-285.682 647.787,-289.167 642.875,-290.102 642.875,-290.102 642.875,-290.102 647.787,-289.167 643.717,-294.523 652.699,-288.232 652.699,-288.232"/>
</g>
<!-- Site&#45;&gt;SitesStyle -->
<g id="edge54" class="edge"><title>Site&#45;&gt;SitesStyle</title>
<path fill="none" stroke="#0ee5d6" d="M600.269,-556.324C660.311,-551.802 778.355,-541.207 877,-522 907.151,-516.129 940.28,-507.179 966.949,-499.332"/>
<ellipse fill="none" stroke="#0ee5d6" cx="596.179" cy="-556.627" rx="4" ry="4"/>
<polygon fill="#0ee5d6" stroke="#0ee5d6" points="967.25,-499.242 978.119,-500.7 972.042,-497.815 976.834,-496.388 976.834,-496.388 976.834,-496.388 972.042,-497.815 975.55,-492.075 967.25,-499.242 967.25,-499.242"/>
</g>
<!-- Site&#45;&gt;Role -->
<g id="edge42" class="edge"><title>Site&#45;&gt;Role</title>
<path fill="none" stroke="#de31f1" d="M600.317,-556.897C670.66,-552.685 814.994,-541.869 861,-522 869.536,-518.314 877.738,-512.577 884.834,-506.627"/>
<ellipse fill="none" stroke="#de31f1" cx="596.11" cy="-557.144" rx="4" ry="4"/>
<polygon fill="#de31f1" stroke="#de31f1" points="885.165,-506.331 895.614,-503.005 888.888,-502.993 892.61,-499.654 892.61,-499.654 892.61,-499.654 888.888,-502.993 889.606,-496.304 885.165,-506.331 885.165,-506.331"/>
</g>
<!-- Site&#45;&gt;Style -->
<g id="edge56" class="edge"><title>Site&#45;&gt;Style</title>
<path fill="none" stroke="#76f04c" d="M600.36,-567.294C628.048,-574.019 661.603,-584.281 670,-596 681.587,-612.169 676.653,-634.549 669.469,-651.996"/>
<polygon fill="#76f04c" stroke="#76f04c" points="600.219,-567.261 591.508,-560.599 595.35,-566.121 590.482,-564.98 590.482,-564.98 590.482,-564.98 595.35,-566.121 589.456,-569.362 600.219,-567.261 600.219,-567.261"/>
<polygon fill="#76f04c" stroke="#76f04c" points="669.466,-652.002 661.239,-659.252 667.402,-656.556 665.337,-661.11 665.337,-661.11 665.337,-661.11 667.402,-656.556 669.436,-662.968 669.466,-652.002 669.466,-652.002"/>
<text text-anchor="middle" x="721.5" y="-601.4" font-family="Times Roman,serif" font-size="14.00">follow_styles</text>
</g>
<!-- Site&#45;&gt;Style -->
<g id="edge58" class="edge"><title>Site&#45;&gt;Style</title>
<path fill="none" stroke="#f8167f" d="M529.949,-575.26C513.48,-586 498.757,-600.528 510,-614 538.655,-648.335 569.499,-611.032 609,-632 619.088,-637.355 628.316,-645.701 635.815,-653.883"/>
<ellipse fill="none" stroke="#f8167f" cx="533.634" cy="-572.997" rx="4.00002" ry="4.00002"/>
<polygon fill="#f8167f" stroke="#f8167f" points="635.917,-654.002 639.039,-664.514 639.182,-657.788 642.447,-661.575 642.447,-661.575 642.447,-661.575 639.182,-657.788 645.855,-658.636 635.917,-654.002 635.917,-654.002"/>
<text text-anchor="middle" x="549" y="-601.4" font-family="Times Roman,serif" font-size="14.00">own_styles</text>
</g>
<!-- Site&#45;&gt;Banner -->
<g id="edge52" class="edge"><title>Site&#45;&gt;Banner</title>
<path fill="none" stroke="#bb939c" d="M600.064,-556.779C678.347,-551.257 847,-533.499 847,-483 847,-483 847,-483 847,-333 847,-263.824 834.595,-245.016 802,-184 792.631,-166.461 778.683,-149.165 766.592,-135.814"/>
<ellipse fill="none" stroke="#bb939c" cx="595.87" cy="-557.064" rx="4" ry="4"/>
<polygon fill="#bb939c" stroke="#bb939c" points="766.544,-135.763 763.033,-125.374 763.141,-132.1 759.737,-128.438 759.737,-128.438 759.737,-128.438 763.141,-132.1 756.441,-131.501 766.544,-135.763 766.544,-135.763"/>
</g>
<!-- Site&#45;&gt;Repository -->
<g id="edge62" class="edge"><title>Site&#45;&gt;Repository</title>
<path fill="none" stroke="#0df050" d="M599.807,-555.224C669.577,-547.354 809,-526.219 809,-483 809,-483 809,-483 809,-295 809,-266.378 786.719,-242.209 765.823,-225.837"/>
<ellipse fill="none" stroke="#0df050" cx="595.635" cy="-555.682" rx="4.00001" ry="4.00001"/>
<polygon fill="#0df050" stroke="#0df050" points="765.651,-225.708 760.318,-216.127 761.641,-222.722 757.63,-219.736 757.63,-219.736 757.63,-219.736 761.641,-222.722 754.943,-223.346 765.651,-225.708 765.651,-225.708"/>
</g>
<!-- Site&#45;&gt;Site -->
<g id="edge40" class="edge"><title>Site&#45;&gt;Site</title>
<path fill="none" stroke="#f10db0" d="M597.993,-565.781C605.028,-564.967 610,-562.706 610,-559 610,-555.609 605.838,-553.429 599.743,-552.458"/>
<ellipse fill="none" stroke="#f10db0" cx="593.686" cy="-565.945" rx="4" ry="4"/>
<polygon fill="#f10db0" stroke="#f10db0" points="599.673,-552.455 589.937,-547.41 594.681,-552.179 589.689,-551.903 589.689,-551.903 589.689,-551.903 594.681,-552.179 589.44,-556.396 599.673,-552.455 599.673,-552.455"/>
<text text-anchor="middle" x="638" y="-555.4" font-family="Times Roman,serif" font-size="14.00">subsites</text>
</g>
<!-- Extension -->
<g id="node14" class="node"><title>Extension</title>
<ellipse fill="none" stroke="black" cx="188" cy="-483" rx="60.1041" ry="18.3848"/>
<text text-anchor="middle" x="188" y="-479.4" font-family="Times Roman,serif" font-size="14.00">Extension</text>
</g>
<!-- Site&#45;&gt;Extension -->
<g id="edge64" class="edge"><title>Site&#45;&gt;Extension</title>
<path fill="none" stroke="#1ee36f" d="M521.901,-555.925C452.263,-550.156 309.597,-536.936 262,-522 248.64,-517.807 234.846,-511.24 222.84,-504.682"/>
<ellipse fill="none" stroke="#1ee36f" cx="526.033" cy="-556.264" rx="4" ry="4"/>
<polygon fill="#1ee36f" stroke="#1ee36f" points="222.749,-504.631 216.26,-495.792 218.397,-502.17 214.045,-499.709 214.045,-499.709 214.045,-499.709 218.397,-502.17 211.83,-503.626 222.749,-504.631 222.749,-504.631"/>
</g>
<!-- Menu -->
<g id="node15" class="node"><title>Menu</title>
<ellipse fill="none" stroke="black" cx="46" cy="-427" rx="38.8909" ry="18.3848"/>
<text text-anchor="middle" x="46" y="-423.4" font-family="Times Roman,serif" font-size="14.00">Menu</text>
</g>
<!-- Site&#45;&gt;Menu -->
<g id="edge44" class="edge"><title>Site&#45;&gt;Menu</title>
<path fill="none" stroke="#ea2a7a" d="M521.723,-558.259C414.246,-555.91 120.976,-547.235 86,-522 64.6735,-506.613 54.6506,-477.587 49.9815,-455.651"/>
<ellipse fill="none" stroke="#ea2a7a" cx="525.738" cy="-558.345" rx="4" ry="4"/>
<polygon fill="#ea2a7a" stroke="#ea2a7a" points="49.9296,-455.373 52.5169,-444.717 49.0115,-450.458 48.0934,-445.543 48.0934,-445.543 48.0934,-445.543 49.0115,-450.458 43.6699,-446.369 49.9296,-455.373 49.9296,-455.373"/>
</g>
<!-- MenuItem -->
<g id="node19" class="node"><title>MenuItem</title>
<ellipse fill="none" stroke="black" cx="100" cy="-203" rx="60.8112" ry="18.3848"/>
<text text-anchor="middle" x="100" y="-199.4" font-family="Times Roman,serif" font-size="14.00">MenuItem</text>
</g>
<!-- Site&#45;&gt;MenuItem -->
<g id="edge46" class="edge"><title>Site&#45;&gt;MenuItem</title>
<path fill="none" stroke="#563fd3" d="M520.469,-554.47C461.686,-547.819 349.367,-534.809 254,-522 184.023,-512.601 100,-553.605 100,-483 100,-483 100,-483 100,-295 100,-273.87 100,-250.01 100,-231.884"/>
<polygon fill="#563fd3" stroke="#563fd3" points="520.526,-554.476 529.959,-560.069 525.495,-555.037 530.463,-555.598 530.463,-555.598 530.463,-555.598 525.495,-555.037 530.968,-551.126 520.526,-554.476 520.526,-554.476"/>
<polygon fill="#563fd3" stroke="#563fd3" points="100,-231.678 104.5,-221.678 100,-226.678 100,-221.678 100,-221.678 100,-221.678 100,-226.678 95.5,-221.678 100,-231.678 100,-231.678"/>
</g>
<!-- Component -->
<g id="node20" class="node"><title>Component</title>
<ellipse fill="none" stroke="black" cx="513" cy="-483" rx="67.8823" ry="18.3848"/>
<text text-anchor="middle" x="513" y="-479.4" font-family="Times Roman,serif" font-size="14.00">Component</text>
</g>
<!-- Site&#45;&gt;Component -->
<g id="edge60" class="edge"><title>Site&#45;&gt;Component</title>
<path fill="none" stroke="#fe437f" d="M545.568,-534.567C540.616,-526.725 535.103,-517.996 530.042,-509.983"/>
<ellipse fill="none" stroke="#fe437f" cx="547.731" cy="-537.991" rx="4.00002" ry="4.00002"/>
<polygon fill="#fe437f" stroke="#fe437f" points="529.914,-509.78 528.378,-498.922 527.244,-505.552 524.574,-501.325 524.574,-501.325 524.574,-501.325 527.244,-505.552 520.769,-503.728 529.914,-509.78 529.914,-509.78"/>
</g>
<!-- Site&#45;&gt;Page -->
<g id="edge48" class="edge"><title>Site&#45;&gt;Page</title>
<path fill="none" stroke="#52ee64" d="M576.083,-534.421C581.37,-524.668 586.785,-513.136 590,-502 607.79,-440.385 610.037,-364.565 609.748,-323.952"/>
<ellipse fill="none" stroke="#52ee64" cx="574.065" cy="-538.01" rx="4.00002" ry="4.00002"/>
<polygon fill="#52ee64" stroke="#52ee64" points="609.744,-323.707 614.114,-313.649 609.679,-318.707 609.614,-313.707 609.614,-313.707 609.614,-313.707 609.679,-318.707 605.114,-313.766 609.744,-323.707 609.744,-323.707"/>
</g>
<!-- Site&#45;&gt;Page::I18ns -->
<g id="edge50" class="edge"><title>Site&#45;&gt;Page::I18ns</title>
<path fill="none" stroke="#1a5c0e" d="M519.945,-554.918C449.713,-546.787 314,-525.569 314,-483 314,-483 314,-483 314,-295 314,-188.718 328.084,-159.962 306,-56 305.358,-52.9786 304.485,-49.8879 303.481,-46.8437"/>
<polygon fill="#1a5c0e" stroke="#1a5c0e" points="520.279,-554.955 529.716,-560.54 525.248,-555.512 530.217,-556.068 530.217,-556.068 530.217,-556.068 525.248,-555.512 530.717,-551.596 520.279,-554.955 520.279,-554.955"/>
<polygon fill="#1a5c0e" stroke="#1a5c0e" points="303.459,-46.7831 304.163,-35.8398 301.704,-42.101 299.949,-37.419 299.949,-37.419 299.949,-37.419 301.704,-42.101 295.735,-38.9982 303.459,-46.7831 303.459,-46.7831"/>
<text text-anchor="middle" x="356.5" y="-291.4" font-family="Times Roman,serif" font-size="14.00">pages_i18ns</text>
</g>
<!-- UserSiteEnroled -->
<g id="node13" class="node"><title>UserSiteEnroled</title>
<ellipse fill="none" stroke="black" cx="1487" cy="-679" rx="90.0096" ry="18.3848"/>
<text text-anchor="middle" x="1487" y="-675.4" font-family="Times Roman,serif" font-size="14.00">UserSiteEnroled</text>
</g>
<!-- Menu&#45;&gt;MenuItem -->
<g id="edge66" class="edge"><title>Menu&#45;&gt;MenuItem</title>
<path fill="none" stroke="#7f82a5" d="M50.4052,-400.276C56.7307,-363.697 69.4688,-296.169 86,-240 86.8362,-237.159 87.788,-234.225 88.7927,-231.31"/>
<ellipse fill="none" stroke="#7f82a5" cx="49.682" cy="-404.512" rx="4.00001" ry="4.00001"/>
<polygon fill="#7f82a5" stroke="#7f82a5" points="88.8945,-231.031 96.5487,-223.178 90.6078,-226.333 92.3212,-221.636 92.3212,-221.636 92.3212,-221.636 90.6078,-226.333 88.0936,-220.094 88.8945,-231.031 88.8945,-231.031"/>
</g>
<!-- UserSession -->
<g id="node18" class="node"><title>UserSession</title>
<polygon fill="none" stroke="black" points="1775,-577 1675,-577 1675,-541 1775,-541 1775,-577"/>
<text text-anchor="middle" x="1725" y="-555.4" font-family="Times Roman,serif" font-size="14.00">UserSession</text>
</g>
<!-- MenuItem&#45;&gt;Locale -->
<g id="edge72" class="edge"><title>MenuItem&#45;&gt;Locale</title>
<path fill="none" stroke="#6d1c6e" d="M135.73,-181.086C160.147,-166.11 192.298,-146.39 216.276,-131.684"/>
<polygon fill="#6d1c6e" stroke="#6d1c6e" points="135.688,-181.111 124.811,-182.504 131.426,-183.725 127.164,-186.339 127.164,-186.339 127.164,-186.339 131.426,-183.725 129.517,-190.175 135.688,-181.111 135.688,-181.111"/>
<polygon fill="#6d1c6e" stroke="#6d1c6e" points="216.507,-131.542 227.385,-130.15 220.77,-128.928 225.032,-126.314 225.032,-126.314 225.032,-126.314 220.77,-128.928 222.679,-122.478 216.507,-131.542 216.507,-131.542"/>
</g>
<!-- MenuItem::I18ns -->
<g id="node66" class="node"><title>MenuItem::I18ns</title>
<ellipse fill="none" stroke="black" cx="95" cy="-111" rx="94.7523" ry="18.3848"/>
<text text-anchor="middle" x="95" y="-107.4" font-family="Times Roman,serif" font-size="14.00">MenuItem::I18ns</text>
</g>
<!-- MenuItem&#45;&gt;MenuItem::I18ns -->
<g id="edge70" class="edge"><title>MenuItem&#45;&gt;MenuItem::I18ns</title>
<path fill="none" stroke="#fb704e" d="M98.5342,-176.029C97.913,-164.599 97.1884,-151.267 96.5576,-139.66"/>
<ellipse fill="none" stroke="#fb704e" cx="98.7711" cy="-180.388" rx="4" ry="4"/>
<polygon fill="#fb704e" stroke="#fb704e" points="96.5531,-139.575 100.504,-129.346 96.2817,-134.583 96.0103,-129.59 96.0103,-129.59 96.0103,-129.59 96.2817,-134.583 91.517,-129.834 96.5531,-139.575 96.5531,-139.575"/>
<text text-anchor="middle" x="117" y="-153.4" font-family="Times Roman,serif" font-size="14.00">i18ns</text>
</g>
<!-- SitesUser -->
<g id="node21" class="node"><title>SitesUser</title>
<ellipse fill="none" stroke="black" cx="1931" cy="-679" rx="57.9828" ry="18.3848"/>
<text text-anchor="middle" x="1931" y="-675.4" font-family="Times Roman,serif" font-size="14.00">SitesUser</text>
</g>
<!-- SitesPage -->
<g id="node22" class="node"><title>SitesPage</title>
<ellipse fill="none" stroke="black" cx="2065" cy="-679" rx="58.1882" ry="18.3848"/>
<text text-anchor="middle" x="2065" y="-675.4" font-family="Times Roman,serif" font-size="14.00">SitesPage</text>
</g>
<!-- Page&#45;&gt;Locale -->
<g id="edge76" class="edge"><title>Page&#45;&gt;Locale</title>
<path fill="none" stroke="#0a6179" d="M564.05,-291.452C506.124,-286.26 409.157,-275.289 378,-258 326.611,-229.484 286.037,-172.004 265.255,-137.983"/>
<polygon fill="#0a6179" stroke="#0a6179" points="564.077,-291.454 573.648,-296.807 569.058,-291.889 574.039,-292.325 574.039,-292.325 574.039,-292.325 569.058,-291.889 574.431,-287.842 564.077,-291.454 564.077,-291.454"/>
<polygon fill="#0a6179" stroke="#0a6179" points="265.051,-137.64 263.79,-126.747 262.489,-133.347 259.926,-129.053 259.926,-129.053 259.926,-129.053 262.489,-133.347 256.062,-131.359 265.051,-137.64 265.051,-137.64"/>
</g>
<!-- Page&#45;&gt;Banner -->
<g id="edge88" class="edge"><title>Page&#45;&gt;Banner</title>
<path fill="none" stroke="#8ee325" d="M614.028,-268.37C616.218,-259.179 619.175,-248.948 623,-240 634.536,-213.012 638.936,-206.316 658,-184 673.961,-165.316 694.797,-147.178 711.724,-133.656"/>
<ellipse fill="none" stroke="#8ee325" cx="613.098" cy="-272.547" rx="4.00001" ry="4.00001"/>
<polygon fill="#8ee325" stroke="#8ee325" points="711.816,-133.583 722.46,-130.945 715.748,-130.495 719.681,-127.406 719.681,-127.406 719.681,-127.406 715.748,-130.495 716.901,-123.867 711.816,-133.583 711.816,-133.583"/>
</g>
<!-- Page&#45;&gt;Repository -->
<g id="edge92" class="edge"><title>Page&#45;&gt;Repository</title>
<path fill="none" stroke="#91f185" d="M619.523,-267.258C624.28,-257.621 630.724,-247.389 639,-240 648.834,-231.221 661.025,-224.37 673.255,-219.083"/>
<polygon fill="#91f185" stroke="#91f185" points="619.435,-267.453 611.22,-274.718 617.378,-272.011 615.322,-276.569 615.322,-276.569 615.322,-276.569 617.378,-272.011 619.424,-278.419 619.435,-267.453 619.435,-267.453"/>
<polygon fill="#91f185" stroke="#91f185" points="673.296,-219.067 684.252,-219.515 677.935,-217.203 682.575,-215.339 682.575,-215.339 682.575,-215.339 677.935,-217.203 680.898,-211.163 673.296,-219.067 673.296,-219.067"/>
<text text-anchor="middle" x="681" y="-245.4" font-family="Times Roman,serif" font-size="14.00">related_files</text>
</g>
<!-- Page&#45;&gt;PagesRepository -->
<g id="edge90" class="edge"><title>Page&#45;&gt;PagesRepository</title>
<path fill="none" stroke="#95de31" d="M600.525,-268.957C599.552,-265.307 598.671,-261.58 598,-258 590.399,-217.429 587.612,-169.664 586.591,-139.853"/>
<ellipse fill="none" stroke="#95de31" cx="601.653" cy="-272.895" rx="4.00001" ry="4.00001"/>
<polygon fill="#95de31" stroke="#95de31" points="586.587,-139.724 590.787,-129.595 586.438,-134.727 586.289,-129.729 586.289,-129.729 586.289,-129.729 586.438,-134.727 581.791,-129.863 586.587,-139.724 586.587,-139.724"/>
</g>
<!-- Page&#45;&gt;MenuItem -->
<g id="edge86" class="edge"><title>Page&#45;&gt;MenuItem</title>
<path fill="none" stroke="#196290" d="M566.351,-289.771C515.417,-283.311 427.72,-271.504 353,-258 285.821,-245.859 209.306,-228.766 158.176,-216.869"/>
<ellipse fill="none" stroke="#196290" cx="570.539" cy="-290.299" rx="4.00001" ry="4.00001"/>
<polygon fill="#196290" stroke="#196290" points="158.037,-216.837 149.323,-210.18 153.168,-215.7 148.299,-214.562 148.299,-214.562 148.299,-214.562 153.168,-215.7 147.276,-218.944 158.037,-216.837 158.037,-216.837"/>
</g>
<!-- Page&#45;&gt;Page::I18ns -->
<g id="edge74" class="edge"><title>Page&#45;&gt;Page::I18ns</title>
<path fill="none" stroke="#948dbb" d="M568.948,-285.517C544.697,-279.128 513.449,-269.73 487,-258 458.572,-245.392 451.425,-241.249 427,-222 399.6,-200.407 390.368,-195.658 372,-166 344.766,-122.026 363.053,-98.7933 334,-56 331.034,-51.6306 327.423,-47.4682 323.569,-43.6179"/>
<ellipse fill="none" stroke="#948dbb" cx="573.013" cy="-286.568" rx="4.00001" ry="4.00001"/>
<polygon fill="#948dbb" stroke="#948dbb" points="323.323,-43.3925 319.006,-33.3124 319.642,-40.009 315.961,-36.6256 315.961,-36.6256 315.961,-36.6256 319.642,-40.009 312.915,-39.9388 323.323,-43.3925 323.323,-43.3925"/>
<text text-anchor="middle" x="391" y="-153.4" font-family="Times Roman,serif" font-size="14.00">i18ns</text>
</g>
<!-- Page&#45;&gt;ActsAsTaggableOn::Tagging -->
<g id="edge78" class="edge"><title>Page&#45;&gt;ActsAsTaggableOn::Tagging</title>
<path fill="none" stroke="#655207" d="M650.932,-288.808C680.728,-283.347 721.124,-273.746 754,-258 778.05,-246.481 783.89,-241.574 802,-222 815.23,-207.701 890.562,-92.7064 896,-74 898.233,-66.3181 898.196,-63.6927 896,-56 895.086,-52.7999 893.807,-49.6068 892.316,-46.5128"/>
<ellipse fill="none" stroke="#655207" cx="646.763" cy="-289.544" rx="4.00001" ry="4.00001"/>
<polygon fill="#655207" stroke="#655207" points="892.227,-46.3534 891.284,-35.428 889.791,-41.987 887.355,-37.6205 887.355,-37.6205 887.355,-37.6205 889.791,-41.987 883.425,-39.8131 892.227,-46.3534 892.227,-46.3534"/>
<text text-anchor="middle" x="882.5" y="-153.4" font-family="Times Roman,serif" font-size="14.00">taggings</text>
</g>
<!-- Page&#45;&gt;ActsAsTaggableOn::Tagging -->
<g id="edge82" class="edge"><title>Page&#45;&gt;ActsAsTaggableOn::Tagging</title>
<path fill="none" stroke="#fa8412" d="M651.981,-290.777C688.136,-286.087 740.57,-276.577 783,-258 847.84,-229.61 880.473,-228.867 913,-166 922.597,-147.45 957.225,-162.286 911,-56 909.306,-52.1052 906.989,-48.4128 904.328,-44.9763"/>
<ellipse fill="none" stroke="#fa8412" cx="647.583" cy="-291.322" rx="4.00001" ry="4.00001"/>
<polygon fill="#fa8412" stroke="#fa8412" points="904.276,-44.9173 900.989,-34.4555 900.952,-41.1822 897.628,-37.4471 897.628,-37.4471 897.628,-37.4471 900.952,-41.1822 894.266,-40.4388 904.276,-44.9173 904.276,-44.9173"/>
<text text-anchor="middle" x="994.5" y="-153.4" font-family="Times Roman,serif" font-size="14.00">category_taggings</text>
</g>
<!-- Page&#45;&gt;ActsAsTaggableOn::Tag -->
<g id="edge80" class="edge"><title>Page&#45;&gt;ActsAsTaggableOn::Tag</title>
<path fill="none" stroke="#61bd07" d="M583.933,-271.93C553.92,-242.426 505.289,-188.149 486,-130 476.985,-102.822 482.995,-70.1355 489.716,-47.2979"/>
<polygon fill="#61bd07" stroke="#61bd07" points="583.941,-271.937 588.007,-282.122 587.537,-275.411 591.133,-278.885 591.133,-278.885 591.133,-278.885 587.537,-275.411 594.259,-275.648 583.941,-271.937 583.941,-271.937"/>
<polygon fill="#61bd07" stroke="#61bd07" points="489.783,-47.0865 497.092,-38.9119 491.292,-42.3198 492.802,-37.5532 492.802,-37.5532 492.802,-37.5532 491.292,-42.3198 488.512,-36.1945 489.783,-47.0865 489.783,-47.0865"/>
<text text-anchor="middle" x="536.5" y="-153.4" font-family="Times Roman,serif" font-size="14.00">base_tags</text>
</g>
<!-- Page&#45;&gt;ActsAsTaggableOn::Tag -->
<g id="edge84" class="edge"><title>Page&#45;&gt;ActsAsTaggableOn::Tag</title>
<path fill="none" stroke="#1bbd16" d="M569.718,-281.458C523.879,-263.268 450.367,-226.096 419,-166 396.44,-122.778 437.973,-73.2591 469.454,-44.1383"/>
<polygon fill="#1bbd16" stroke="#1bbd16" points="570,-281.567 577.718,-289.357 574.667,-283.362 579.333,-285.157 579.333,-285.157 579.333,-285.157 574.667,-283.362 580.949,-280.957 570,-281.567 570,-281.567"/>
<polygon fill="#1bbd16" stroke="#1bbd16" points="469.753,-43.8695 480.201,-40.5395 473.474,-40.5299 477.196,-37.1904 477.196,-37.1904 477.196,-37.1904 473.474,-40.5299 474.19,-33.8413 469.753,-43.8695 469.753,-43.8695"/>
<text text-anchor="middle" x="454.5" y="-153.4" font-family="Times Roman,serif" font-size="14.00">categories</text>
</g>
<!-- Setting -->
<g id="node24" class="node"><title>Setting</title>
<ellipse fill="none" stroke="black" cx="2188" cy="-679" rx="46.8775" ry="18.3848"/>
<text text-anchor="middle" x="2188" y="-675.4" font-family="Times Roman,serif" font-size="14.00">Setting</text>
</g>
<!-- ActiveRecord::Observer -->
<g id="node28" class="node"><title>ActiveRecord::Observer</title>
<ellipse fill="none" stroke="black" cx="1109" cy="-679" rx="125.865" ry="18.3848"/>
<text text-anchor="middle" x="1109" y="-675.4" font-family="Times Roman,serif" font-size="14.00">ActiveRecord::Observer</text>
</g>
<!-- ActiveRecord::Observer&#45;&gt;PagePositionObserver -->
<g id="edge8" class="edge"><title>ActiveRecord::Observer&#45;&gt;PagePositionObserver</title>
<path fill="none" stroke="black" d="M1109,-660.25C1109,-637.574 1109,-599.663 1109,-577.225"/>
</g>
<!-- Authlogic::Session::Base -->
<g id="node63" class="node"><title>Authlogic::Session::Base</title>
<ellipse fill="none" stroke="black" cx="1725" cy="-679" rx="130.108" ry="18.3848"/>
<text text-anchor="middle" x="1725" y="-675.4" font-family="Times Roman,serif" font-size="14.00">Authlogic::Session::Base</text>
</g>
<!-- Authlogic::Session::Base&#45;&gt;UserSession -->
<g id="edge68" class="edge"><title>Authlogic::Session::Base&#45;&gt;UserSession</title>
<path fill="none" stroke="black" d="M1725,-660.25C1725,-637.574 1725,-599.663 1725,-577.225"/>
</g>
</g>
</svg>
