<?xml version="1.0" encoding="UTF-8" standalone="no"?>
<!-- Created with Inkscape (http://www.inkscape.org/) -->

<svg
   xmlns:dc="http://purl.org/dc/elements/1.1/"
   xmlns:cc="http://creativecommons.org/ns#"
   xmlns:rdf="http://www.w3.org/1999/02/22-rdf-syntax-ns#"
   xmlns:svg="http://www.w3.org/2000/svg"
   xmlns="http://www.w3.org/2000/svg"
   xmlns:sodipodi="http://sodipodi.sourceforge.net/DTD/sodipodi-0.dtd"
   xmlns:inkscape="http://www.inkscape.org/namespaces/inkscape"
   width="1024"
   height="680"
   id="svg3146"
   version="1.1"
   inkscape:version="0.48.3.1 r9886"
   sodipodi:docname="weby-new-logo.svg"
   inkscape:export-filename="/home/arthur/Ãrea de trabalho/weby-logo.png"
   inkscape:export-xdpi="90"
   inkscape:export-ydpi="90">
  <defs
     id="defs3148" />
  <sodipodi:namedview
     id="base"
     pagecolor="#ffffff"
     bordercolor="#666666"
     borderopacity="1.0"
     inkscape:pageopacity="0.0"
     inkscape:pageshadow="2"
     inkscape:zoom="0.45471497"
     inkscape:cx="652.85128"
     inkscape:cy="433.93399"
     inkscape:document-units="px"
     inkscape:current-layer="layer1"
     showgrid="false"
     inkscape:window-width="1366"
     inkscape:window-height="709"
     inkscape:window-x="0"
     inkscape:window-y="27"
     inkscape:window-maximized="1" />
  <metadata
     id="metadata3151">
    <rdf:RDF>
      <cc:Work
         rdf:about="">
        <dc:format>image/svg+xml</dc:format>
        <dc:type
           rdf:resource="http://purl.org/dc/dcmitype/StillImage" />
        <dc:title />
      </cc:Work>
    </rdf:RDF>
  </metadata>
  <g
     inkscape:label="Camada 1"
     inkscape:groupmode="layer"
     id="layer1"
     transform="translate(0,-372.36218)">
    <g
       style="font-size:329.41067505px;font-style:normal;font-variant:normal;font-weight:normal;font-stretch:normal;line-height:125%;letter-spacing:0px;word-spacing:0px;fill:#000000;fill-opacity:1;stroke:none;font-family:Zeyada;-inkscape-font-specification:Zeyada"
       id="text3063">
      <path
         d="m 552.83022,611.84632 0,73.78799 c -2.7e-4,10.10199 -1.97673,19.65489 -5.9294,28.65873 -3.73358,9.00392 -9.00414,16.90977 -15.81171,23.71756 -6.80806,6.80784 -14.71391,12.18821 -23.71757,16.14113 -8.7845,3.73332 -18.3374,5.59998 -28.65873,5.59998 -12.07857,0 -23.27852,-2.63528 -33.59989,-7.90586 -10.32168,-5.49016 -18.88635,-12.84699 -25.69403,-22.07051 -6.80795,9.22352 -15.37261,16.58035 -25.69403,22.07051 -10.10203,5.27058 -21.30198,7.90586 -33.59989,7.90586 -10.10199,0 -19.65489,-1.86666 -28.65873,-5.59998 -9.00393,-3.95292 -16.90978,-9.33329 -23.71757,-16.14113 -6.80783,-6.80779 -12.1882,-14.71364 -16.14112,-23.71756 -3.73332,-9.00384 -5.59998,-18.55674 -5.59998,-28.65873 l 0,-73.78799 29.64696,0 0,73.78799 c -3e-5,6.14906 1.098,11.96865 3.29411,17.45876 2.41564,5.49023 5.59994,10.32158 9.55291,14.49407 4.17248,3.95297 8.89403,7.13727 14.16465,9.55291 5.49012,2.1961 11.3097,3.29414 17.45877,3.29411 6.14892,3e-5 11.9685,-1.09801 17.45877,-3.29411 5.49008,-2.41564 10.21163,-5.59994 14.16466,-9.55291 4.17242,-4.17249 7.35672,-9.00384 9.5529,-14.49407 2.41557,-5.49011 3.6234,-11.3097 3.62352,-17.45876 l 0,-73.78799 29.31755,0 0,73.78799 c -1.5e-4,6.14906 1.09789,11.96865 3.29411,17.45876 2.41552,5.49023 5.59982,10.32158 9.55291,14.49407 4.17237,3.95297 8.89392,7.13727 14.16466,9.55291 5.48999,2.1961 11.30958,3.29414 17.45876,3.29411 6.1488,3e-5 11.96839,-1.09801 17.45877,-3.29411 5.48996,-2.41564 10.21151,-5.59994 14.16466,-9.55291 4.1723,-4.17249 7.3566,-9.00384 9.55291,-14.49407 2.41544,-5.49011 3.62328,-11.3097 3.62352,-17.45876 l 0,-73.78799 29.31755,0"
         style="font-family:REZ;-inkscape-font-specification:REZ"
         id="path3011" />
      <path
         d="m 679.257,707.37541 20.75287,20.75287 -10.21173,10.21174 c -7.02754,7.02744 -15.0432,12.40781 -24.04698,16.14112 -9.00398,3.73332 -18.44708,5.59998 -28.32931,5.59998 -9.88239,0 -19.32549,-1.86666 -28.32932,-5.59998 -9.00393,-3.73331 -17.01958,-9.11368 -24.04698,-16.14112 -7.24705,-7.24701 -12.62742,-15.37247 -16.14113,-24.37639 -3.51371,-9.22345 -5.27057,-18.55674 -5.27057,-27.99991 0,-9.44303 1.75686,-18.66651 5.27057,-27.6705 3.51371,-9.00378 8.89408,-17.12924 16.14113,-24.37639 7.247,-7.2469 15.37246,-12.62727 24.37639,-16.14112 9.22344,-3.73318 18.55673,-5.59984 27.99991,-5.59998 9.44302,1.4e-4 18.66651,1.8668 27.67049,5.59998 9.22339,3.51385 17.45865,8.89422 24.7058,16.14112 l 10.21173,10.21173 -82.02325,82.02326 c 8.345,4.17256 17.12928,5.60001 26.35285,4.28234 9.44301,-1.53722 17.67827,-5.81955 24.7058,-12.84702 L 679.257,707.37541 m -73.45858,-53.03512 c -8.78432,8.78438 -13.17646,19.32552 -13.17643,31.62343 -3e-5,6.80789 1.53722,13.28629 4.61175,19.43523 2.63525,-2.63523 6.58818,-6.58815 11.85879,-11.85879 5.49012,-5.4901 11.1999,-11.19988 17.12935,-17.12935 6.14893,-6.14891 11.96852,-11.96849 17.45877,-17.45877 5.7097,-5.49007 10.10183,-9.7724 13.17643,-12.84701 -8.34516,-4.17242 -17.23924,-5.59987 -26.68227,-4.28234 -9.22356,1.31776 -17.34901,5.49029 -24.37639,12.5176"
         style="font-family:REZ;-inkscape-font-specification:REZ"
         id="path3013" />
      <path
         d="m 784.11252,612.17573 c 10.32145,1.4e-4 19.87435,1.97661 28.65873,5.92939 9.00378,3.73346 16.79982,9.00402 23.38816,15.81171 6.80768,6.58833 12.07825,14.38438 15.81171,23.38816 3.95278,8.78438 5.92924,18.33728 5.92939,28.65873 -1.5e-4,10.10199 -1.97661,19.65489 -5.92939,28.65873 -3.73346,9.00392 -9.00403,16.90977 -15.81171,23.71757 -6.58834,6.80783 -14.38438,12.1882 -23.38816,16.14112 -8.78438,3.73332 -18.33728,5.59998 -28.65873,5.59998 -10.10199,0 -19.65489,-1.86666 -28.65873,-5.59998 -9.00393,-3.95292 -16.90978,-9.33329 -23.71757,-16.14112 -6.80783,-6.8078 -12.1882,-14.71365 -16.14112,-23.71757 -3.73332,-9.00384 -5.59998,-18.55674 -5.59998,-28.65873 l 0,-133.08191 29.31755,0 0,59.29392 44.79985,0 0,0 m 0,118.58784 c 6.14892,3e-5 11.8587,-1.09801 17.12935,-3.29411 5.49009,-2.41564 10.21163,-5.59994 14.16466,-9.55291 4.17243,-4.17249 7.35673,-9.00384 9.55291,-14.49407 2.41556,-5.49011 3.6234,-11.3097 3.62352,-17.45876 -1.2e-4,-6.14892 -1.20796,-11.8587 -3.62352,-17.12936 -2.19618,-5.49008 -5.38048,-10.21163 -9.55291,-14.16466 -3.95303,-4.17242 -8.67457,-7.35672 -14.16466,-9.55291 -5.27065,-2.41556 -10.98043,-3.6234 -17.12935,-3.62351 l -44.79985,0 0,44.47044 c -3e-5,6.14906 1.098,11.96865 3.2941,17.45876 2.41565,5.49023 5.59995,10.32158 9.55291,14.49407 4.17249,3.95297 9.00384,7.13727 14.49407,9.55291 5.49012,2.1961 11.3097,3.29414 17.45877,3.29411"
         style="font-family:REZ;-inkscape-font-specification:REZ"
         id="path3015" />
      <path
         d="m 1014.8853,611.84632 0,133.08191 c -10e-5,10.32154 -1.9766,19.87444 -5.9294,28.65873 -3.7334,9.00387 -9.004,16.90971 -15.81169,23.71757 -6.58834,6.80777 -14.38438,12.07834 -23.38816,15.81171 -8.78438,3.95287 -18.33728,5.92933 -28.65873,5.92939 l -14.82348,0 0,-29.31755 14.82348,0 c 6.14892,-3e-5 11.8587,-1.20787 17.12936,-3.62352 5.49008,-2.19609 10.21163,-5.38039 14.16466,-9.55291 4.17242,-3.95294 7.35672,-8.67449 9.55291,-14.16466 2.41556,-5.49017 3.62339,-11.30975 3.62351,-17.45876 l 0,-0.32941 c -6.14911,4.83136 -13.06673,8.56468 -20.75287,11.19996 -7.46673,2.63529 -15.37258,3.95293 -23.71757,3.95293 -10.10199,0 -19.65489,-1.86666 -28.65873,-5.59998 -9.00393,-3.95292 -16.90977,-9.33329 -23.71757,-16.14113 -6.80783,-6.80779 -12.1882,-14.71364 -16.14112,-23.71756 -3.73332,-9.00384 -5.59998,-18.55674 -5.59998,-28.65873 l 0,-73.78799 29.31755,0 0,73.78799 c -3e-5,6.14906 1.098,11.96865 3.29411,17.45876 2.41564,5.49023 5.59994,10.32158 9.55291,14.49407 4.17248,3.95297 9.00384,7.13727 14.49407,9.55291 5.49011,2.1961 11.30969,3.29414 17.45876,3.29411 6.14892,3e-5 11.8587,-1.09801 17.12936,-3.29411 5.49008,-2.41564 10.21163,-5.59994 14.16466,-9.55291 4.17242,-4.17249 7.35672,-9.00384 9.55291,-14.49407 2.41556,-5.49011 3.62339,-11.3097 3.62351,-17.45876 l 0,-73.78799 29.31754,0"
         style="fill:#bc1625;fill-opacity:1"
         id="path3017" />
    </g>
    <g
       id="g3069"
       inkscape:transform-center-x="86.470541"
       inkscape:transform-center-y="48.110559"
       transform="matrix(3.3507978,0.89784355,-0.89784355,3.3507978,-610.70004,-2403.5581)"
       inkscape:export-filename="/home/nicolas/Dropbox/documents/ufg/cercomp/nova-logo-weby2.png"
       inkscape:export-xdpi="90"
       inkscape:export-ydpi="90"
       style="fill:#bc1625;fill-opacity:1">
      <path
         sodipodi:type="arc"
         style="fill:#bc1625;fill-opacity:1;stroke:none"
         id="path3071"
         sodipodi:cx="172.14285"
         sodipodi:cy="394.50504"
         sodipodi:rx="32.142857"
         sodipodi:ry="32.142857"
         d="m 203.51242,387.49694 c 3.87047,17.32493 -7.03654,34.5072 -24.36147,38.37766 -17.32494,3.87047 -34.5072,-7.03653 -38.37767,-24.36147 -3.87046,-17.32493 7.03654,-34.5072 24.36148,-38.37766 17.31922,-3.86919 34.49712,7.02942 38.37439,24.34684"
         sodipodi:start="6.0633902"
         sodipodi:end="12.346109"
         sodipodi:open="true"
         transform="matrix(-0.3366215,-0.3366215,0.3366215,-0.3366215,382.4788,990.34029)" />
      <path
         transform="matrix(-0.3366215,-0.3366215,0.3366215,-0.3366215,349.86968,1022.9494)"
         sodipodi:open="true"
         sodipodi:end="12.346109"
         sodipodi:start="6.0633902"
         d="m 203.51242,387.49694 c 3.87047,17.32493 -7.03654,34.5072 -24.36147,38.37766 -17.32494,3.87047 -34.5072,-7.03653 -38.37767,-24.36147 -3.87046,-17.32493 7.03654,-34.5072 24.36148,-38.37766 17.31922,-3.86919 34.49712,7.02942 38.37439,24.34684"
         sodipodi:ry="32.142857"
         sodipodi:rx="32.142857"
         sodipodi:cy="394.50504"
         sodipodi:cx="172.14285"
         id="path3073"
         style="fill:#bc1625;fill-opacity:1;stroke:none"
         sodipodi:type="arc" />
      <rect
         transform="matrix(-0.70710678,-0.70710678,0.70710678,-0.70710678,0,0)"
         style="fill:#bc1625;fill-opacity:1;stroke:none"
         id="rect3075"
         width="4.7057409"
         height="21.175833"
         x="-891.13312"
         y="-274.95718" />
    </g>
    <g
       id="g3077"
       inkscape:transform-center-x="102.57765"
       inkscape:transform-center-y="-62.931648"
       transform="matrix(3.3507978,-0.89784355,0.89784355,3.3507978,-2046.9574,-1582.5043)"
       inkscape:export-filename="/home/nicolas/Dropbox/documents/ufg/cercomp/nova-logo-weby2.png"
       inkscape:export-xdpi="90"
       inkscape:export-ydpi="90">
      <path
         sodipodi:type="arc"
         style="fill:#000000;fill-opacity:1;stroke:none"
         id="path3079"
         sodipodi:cx="172.14285"
         sodipodi:cy="394.50504"
         sodipodi:rx="32.142857"
         sodipodi:ry="32.142857"
         d="m 203.51242,387.49694 c 3.87047,17.32493 -7.03654,34.5072 -24.36147,38.37766 -17.32494,3.87047 -34.5072,-7.03653 -38.37767,-24.36147 -3.87046,-17.32493 7.03654,-34.5072 24.36148,-38.37766 17.31922,-3.86919 34.49712,7.02942 38.37439,24.34684"
         sodipodi:start="6.0633902"
         sodipodi:end="12.346109"
         sodipodi:open="true"
         transform="matrix(-0.3366215,-0.3366215,0.3366215,-0.3366215,349.86968,957.73117)" />
      <path
         sodipodi:type="arc"
         style="fill:#000000;fill-opacity:1;stroke:none"
         id="path3081"
         sodipodi:cx="172.14285"
         sodipodi:cy="394.50504"
         sodipodi:rx="32.142857"
         sodipodi:ry="32.142857"
         d="m 203.51242,387.49694 c 3.87047,17.32493 -7.03654,34.5072 -24.36147,38.37766 -17.32494,3.87047 -34.5072,-7.03653 -38.37767,-24.36147 -3.87046,-17.32493 7.03654,-34.5072 24.36148,-38.37766 17.31922,-3.86919 34.49712,7.02942 38.37439,24.34684"
         sodipodi:start="6.0633902"
         sodipodi:end="12.346109"
         sodipodi:open="true"
         transform="matrix(-0.20724806,-0.20724806,0.20724806,-0.20724806,411.24657,917.0311)" />
      <rect
         transform="matrix(-0.70710678,0.70710678,-0.70710678,-0.70710678,0,0)"
         style="fill:#000000;fill-opacity:1;stroke:none"
         id="rect3083"
         width="4.7057409"
         height="25.440409"
         x="239.34492"
         y="-881.28046" />
    </g>
    <flowRoot
       xml:space="preserve"
       id="flowRoot2993"
       style="font-size:4px;font-style:normal;font-weight:normal;line-height:125%;letter-spacing:0px;word-spacing:0px;fill:#000000;fill-opacity:1;stroke:none;font-family:Sans"><flowRegion
         id="flowRegion2995"><rect
           id="rect2997"
           width="3.1216702"
           height="5.2027836"
           x="-116.54236"
           y="509.19156" /></flowRegion><flowPara
         id="flowPara2999" /></flowRoot>    <flowRoot
       xml:space="preserve"
       id="flowRoot3001"
       style="font-size:4px;font-style:normal;font-weight:normal;line-height:125%;letter-spacing:0px;word-spacing:0px;fill:#000000;fill-opacity:1;stroke:none;font-family:Sans"><flowRegion
         id="flowRegion3003"><rect
           id="rect3005"
           width="602.48236"
           height="194.58411"
           x="75.96064"
           y="473.81262" /></flowRegion><flowPara
         id="flowPara3007" /></flowRoot>  </g>
</svg>
