<svg xmlns="http://www.w3.org/2000/svg" width="70" height="54" viewBox="0 0 70 54">
    <g fill="none" fill-rule="evenodd" stroke="#FFF" stroke-width="3.636">
        <path d="M46.62 3.007C26.199 1.504 11.759 10.532 3.3 30.091c-.894 2.466-7.853 27.106 22.775 20.583"/>
        <path d="M43.831 9.43C28.09 8.294 16.959 15.107 10.438 29.87 9.75 31.73 4.385 50.327 27.994 45.404"/>
        <path d="M40.113 15.848c-10.21-.737-17.43 3.692-21.66 13.287-.447 1.21-6.327 13.513 11.387 10.097M55.54 1L39.804 36.824c-3.58 9.385-.957 14.34 7.869 14.868.308.103 5.844.103 16.61 0"/>
        <path d="M61.094 1L48.116 33.145c-4.583 9.288-3.23 13.931 4.058 13.931.298.104 4.954.104 13.967 0"/>
        <path d="M67.51 1L55.783 29.82c-4.977 8.673-3.96 12.571 3.051 11.694.311.103 3.366.103 9.166 0"/>
    </g>
</svg>
