<svg xmlns="http://www.w3.org/2000/svg" width="22" height="14" viewBox="0 0 22 14">
    <g fill="#FFF" fill-rule="nonzero">
        <path d="M7 6.003v2.402h3.97c-.16 1.03-1.199 3.02-3.97 3.02-2.39 0-4.34-1.98-4.34-4.421 0-2.44 1.95-4.422 4.34-4.422 1.362 0 2.268.58 2.788 1.079l1.9-1.83C10.467.69 8.886 0 7 0a6.999 6.999 0 0 0-7 7.004c0 3.871 3.128 7 7 7 4.039 0 6.72-2.84 6.72-6.841 0-.46-.052-.812-.112-1.16H7zM22 5.8h-2.063V3.739h-2.062v2.063h-2.063v2.062h2.063v2.063h2.063V7.863H22z"/>
    </g>
</svg>
