<svg xmlns="http://www.w3.org/2000/svg" width="18" height="18" viewBox="0 0 18 18">
    <g fill="#FFF" fill-rule="nonzero">
        <path d="M9 1.62c2.405 0 2.69.011 3.635.053.88.04 1.354.187 1.67.31.418.162.72.358 1.034.671.316.317.51.616.675 1.034.123.316.27.794.309 1.67.042.949.053 1.234.053 3.635s-.01 2.69-.053 3.635c-.039.879-.186 1.354-.31 1.67-.161.418-.358.72-.67 1.034a2.82 2.82 0 0 1-1.034.675c-.317.123-.795.27-1.67.309-.95.042-1.234.053-3.635.053-2.402 0-2.69-.01-3.636-.053-.879-.039-1.353-.186-1.67-.31a2.783 2.783 0 0 1-1.033-.67 2.82 2.82 0 0 1-.675-1.034c-.123-.317-.27-.795-.31-1.67-.042-.95-.052-1.234-.052-3.636 0-2.4.01-2.689.052-3.635.04-.879.187-1.353.31-1.67.162-.418.358-.72.671-1.033a2.82 2.82 0 0 1 1.034-.675c.316-.123.794-.27 1.67-.31.946-.042 1.23-.052 3.635-.052zM9 0C6.557 0 6.25.01 5.291.053 4.335.095 3.677.25 3.108.47a4.393 4.393 0 0 0-1.596 1.04 4.41 4.41 0 0 0-1.04 1.593C.25 3.677.094 4.331.051 5.287.012 6.252 0 6.557 0 9s.01 2.75.053 3.709c.042.956.197 1.614.418 2.183a4.393 4.393 0 0 0 1.04 1.596 4.4 4.4 0 0 0 1.593 1.037c.573.222 1.227.377 2.183.419.96.042 1.266.052 3.71.052 2.443 0 2.749-.01 3.708-.052.957-.042 1.614-.197 2.184-.419a4.4 4.4 0 0 0 1.592-1.037 4.4 4.4 0 0 0 1.037-1.592c.222-.573.377-1.227.419-2.184.042-.96.052-1.265.052-3.708 0-2.444-.01-2.75-.052-3.71-.042-.956-.197-1.613-.419-2.183a4.215 4.215 0 0 0-1.03-1.6A4.4 4.4 0 0 0 14.896.476c-.573-.222-1.227-.377-2.184-.419C11.75.011 11.444 0 9 0z"/>
        <path d="M9 4.377a4.624 4.624 0 0 0 0 9.246 4.624 4.624 0 0 0 0-9.246zm0 7.622A3 3 0 1 1 9 6 3 3 0 0 1 9 12zM14.885 4.194a1.08 1.08 0 1 1-2.158 0 1.08 1.08 0 0 1 2.158 0z"/>
    </g>
</svg>
