<svg xmlns="http://www.w3.org/2000/svg" width="23" height="18" viewBox="0 0 23 18">
    <g fill="#FFF" fill-rule="nonzero">
        <path d="M19.385 2.77V0H0v15.23S0 18 2.77 18h17.307s2.077-.043 2.077-2.77V2.77h-2.77zM2.769 16.614c-1.384 0-1.384-1.384-1.384-1.384V1.385H18V15.23c0 .637.197 1.08.468 1.384H2.769z"/>
        <path d="M2.769 4.154h13.846v1.385H2.769zM10.385 12.462h4.846v1.385h-4.846zM10.385 9.692h6.231v1.385h-6.231zM10.385 6.923h6.231v1.385h-6.231zM2.769 6.923H9v6.923H2.769z"/>
    </g>
</svg>
