<?xml version="1.0" encoding="UTF-8" standalone="no"?>
<svg
   xmlns:dc="http://purl.org/dc/elements/1.1/"
   xmlns:cc="http://creativecommons.org/ns#"
   xmlns:rdf="http://www.w3.org/1999/02/22-rdf-syntax-ns#"
   xmlns:svg="http://www.w3.org/2000/svg"
   xmlns="http://www.w3.org/2000/svg"
   xmlns:sodipodi="http://sodipodi.sourceforge.net/DTD/sodipodi-0.dtd"
   xmlns:inkscape="http://www.inkscape.org/namespaces/inkscape"
   width="72.000999"
   height="44.992001"
   viewBox="0 0 72.000999 44.992001"
   version="1.1"
   id="svg42"
   sodipodi:docname="marca-prpg.svg"
   inkscape:version="0.92.4 (5da689c313, 2019-01-14)">
  <metadata
     id="metadata48">
    <rdf:RDF>
      <cc:Work
         rdf:about="">
        <dc:format>image/svg+xml</dc:format>
        <dc:type
           rdf:resource="http://purl.org/dc/dcmitype/StillImage" />
        <dc:title></dc:title>
      </cc:Work>
    </rdf:RDF>
  </metadata>
  <defs
     id="defs46" />
  <sodipodi:namedview
     pagecolor="#ffffff"
     bordercolor="#666666"
     borderopacity="1"
     objecttolerance="10"
     gridtolerance="10"
     guidetolerance="10"
     inkscape:pageopacity="0"
     inkscape:pageshadow="2"
     inkscape:window-width="1494"
     inkscape:window-height="654"
     id="namedview44"
     showgrid="false"
     fit-margin-top="0"
     fit-margin-left="0"
     fit-margin-right="0"
     fit-margin-bottom="0"
     inkscape:zoom="5.1304348"
     inkscape:cx="36.327"
     inkscape:cy="22.44"
     inkscape:window-x="58"
     inkscape:window-y="27"
     inkscape:window-maximized="0"
     inkscape:current-layer="svg42" />
  <g
     id="g40"
     style="fill:#231f20;fill-rule:evenodd"
     transform="translate(-0.173,-0.448)">
    <path
       d="m 0.173,0.98 c 1.46,-0.266 3.484,-0.466 6.238,-0.466 2.987,0 5.177,0.633 6.604,1.832 1.328,1.1 2.19,2.865 2.19,4.963 0,2.13 -0.664,3.896 -1.924,5.096 -1.627,1.631 -4.182,2.398 -7.068,2.398 -0.764,0 -1.46,-0.033 -1.991,-0.134 v 8.46 H 0.173 Z m 4.049,10.46 c 0.498,0.132 1.16,0.167 1.991,0.167 3.052,0 4.911,-1.5 4.911,-4.13 0,-2.499 -1.725,-3.831 -4.546,-3.831 -1.129,0 -1.926,0.1 -2.356,0.2 z M 18.06,0.98 c 1.526,-0.266 3.816,-0.466 6.172,-0.466 3.219,0 5.409,0.533 6.902,1.799 1.228,1.032 1.925,2.597 1.925,4.496 0,2.897 -1.958,4.862 -4.048,5.628 v 0.1 c 1.592,0.6 2.555,2.165 3.12,4.33 0.696,2.798 1.293,5.395 1.758,6.261 H 29.675 C 29.344,22.462 28.812,20.63 28.182,17.833 27.552,14.901 26.49,13.969 24.167,13.903 H 22.11 v 9.226 h -4.05 z m 4.049,9.926 h 2.422 c 2.754,0 4.48,-1.466 4.48,-3.698 0,-2.464 -1.726,-3.597 -4.38,-3.597 -1.295,0 -2.124,0.1 -2.523,0.2 v 7.095 z M 36.277,0.98 c 1.46,-0.266 3.484,-0.466 6.238,-0.466 2.987,0 5.177,0.633 6.604,1.832 1.328,1.1 2.19,2.865 2.19,4.963 0,2.13 -0.663,3.896 -1.924,5.096 -1.627,1.631 -4.182,2.398 -7.068,2.398 -0.764,0 -1.46,-0.033 -1.991,-0.134 v 8.46 h -4.049 z m 4.049,10.459 c 0.497,0.132 1.16,0.167 1.99,0.167 3.053,0 4.912,-1.5 4.912,-4.13 0,-2.499 -1.726,-3.831 -4.547,-3.831 -1.128,0 -1.925,0.1 -2.355,0.2 z"
       id="path2"
       inkscape:connector-curvature="0"
       style="fill-rule:nonzero" />
    <path
       d="m 72.082,22.097 c -1.426,0.533 -4.214,1.266 -7.2,1.266 -3.783,0 -6.637,-0.966 -8.76,-2.998 -1.992,-1.898 -3.154,-4.862 -3.12,-8.26 0,-7.094 5.043,-11.657 12.444,-11.657 2.753,0 4.91,0.567 5.939,1.066 l -0.896,3.298 c -1.228,-0.533 -2.72,-0.966 -5.077,-0.966 -4.778,0 -8.13,2.831 -8.13,8.06 0,5.096 3.12,8.127 7.765,8.127 1.46,0 2.556,-0.2 3.087,-0.467 V 13.97 h -3.95 v -3.23 h 7.898 z"
       id="path4"
       inkscape:connector-curvature="0" />
    <g
       id="g22">
      <path
         d="m 14.885,30.972 a 8.08,8.08 0 0 1 1.432,-0.108 c 0.687,0 1.19,0.145 1.518,0.421 0.304,0.253 0.502,0.658 0.502,1.14 0,0.49 -0.15,0.896 -0.442,1.171 -0.372,0.375 -0.96,0.551 -1.624,0.551 a 2.57,2.57 0 0 1 -0.456,-0.03 v 1.943 h -0.93 z m 0.93,2.402 c 0.115,0.031 0.268,0.038 0.457,0.038 0.702,0 1.129,-0.344 1.129,-0.949 0,-0.573 -0.396,-0.88 -1.044,-0.88 -0.26,0 -0.442,0.023 -0.541,0.046 v 1.745 z m 3.332,-2.402 c 0.35,-0.062 0.876,-0.108 1.418,-0.108 0.739,0 1.243,0.123 1.585,0.413 0.282,0.238 0.442,0.597 0.442,1.033 0,0.666 -0.45,1.118 -0.93,1.293 v 0.023 c 0.367,0.138 0.588,0.497 0.716,0.995 0.162,0.642 0.299,1.24 0.406,1.438 h -0.97 C 21.739,35.906 21.616,35.486 21.473,34.843 21.327,34.169 21.083,33.955 20.55,33.94 h -0.472 v 2.12 h -0.93 v -5.088 z m 0.93,2.28 h 0.556 c 0.632,0 1.03,-0.337 1.03,-0.85 0,-0.565 -0.397,-0.826 -1.006,-0.826 -0.299,0 -0.488,0.022 -0.58,0.046 z m 7.966,0.176 c 0,1.73 -1.044,2.717 -2.462,2.717 -1.45,0 -2.364,-1.11 -2.364,-2.625 0,-1.583 0.992,-2.7 2.44,-2.7 1.502,-0.002 2.386,1.14 2.386,2.608 z m -3.835,0.076 c 0,1.048 0.526,1.883 1.425,1.883 0.908,0 1.418,-0.842 1.418,-1.92 0,-0.973 -0.48,-1.891 -1.418,-1.891 -0.93,0 -1.425,0.865 -1.425,1.928 z m 2.653,-3.81 -0.954,0.918 h -0.755 l 0.673,-0.919 h 1.036 z"
         id="path6"
         inkscape:connector-curvature="0"
         style="fill-rule:nonzero" />
      <path
         d="m 30.483,33.695 v 0.65 h -1.945 v -0.65 z"
         id="path8"
         inkscape:connector-curvature="0" />
      <path
         d="m 31.251,30.972 a 8.87,8.87 0 0 1 1.418,-0.108 c 0.739,0 1.243,0.123 1.587,0.413 0.28,0.238 0.442,0.597 0.442,1.033 0,0.666 -0.45,1.118 -0.93,1.293 v 0.023 c 0.365,0.138 0.586,0.497 0.717,0.995 0.16,0.642 0.296,1.24 0.403,1.438 h -0.969 c -0.075,-0.153 -0.197,-0.573 -0.342,-1.216 -0.146,-0.674 -0.39,-0.888 -0.923,-0.903 h -0.472 v 2.12 h -0.93 v -5.088 z m 0.93,2.28 h 0.557 c 0.633,0 1.03,-0.337 1.03,-0.85 0,-0.565 -0.397,-0.826 -1.008,-0.826 -0.296,0 -0.488,0.022 -0.58,0.046 v 1.63 z"
         id="path10"
         inkscape:connector-curvature="0"
         style="fill-rule:nonzero" />
      <path
         d="m 38.464,33.772 h -1.936 v 1.515 h 2.166 V 36.06 H 35.59 v -5.157 h 2.987 v 0.773 h -2.05 v 1.331 h 1.936 z m 1.99,-2.869 v 5.157 h -0.937 v -5.157 z m 2.059,0.788 h -1.464 v -0.788 h 3.878 v 0.788 H 43.45 v 4.37 h -0.937 z"
         id="path12"
         inkscape:connector-curvature="0" />
      <path
         d="m 50.089,33.428 c 0,1.73 -1.044,2.717 -2.462,2.717 -1.448,0 -2.363,-1.11 -2.363,-2.625 0,-1.583 0.99,-2.7 2.44,-2.7 1.5,-0.002 2.385,1.14 2.385,2.608 z m -3.834,0.076 c 0,1.048 0.526,1.883 1.427,1.883 0.907,0 1.418,-0.842 1.418,-1.92 0,-0.973 -0.481,-1.891 -1.418,-1.891 -0.931,0 -1.427,0.865 -1.427,1.928 z m 4.644,-2.532 c 0.35,-0.062 0.876,-0.108 1.418,-0.108 0.738,0 1.243,0.123 1.585,0.413 0.282,0.238 0.442,0.597 0.442,1.033 0,0.666 -0.45,1.118 -0.93,1.293 v 0.023 c 0.367,0.138 0.588,0.497 0.716,0.995 0.162,0.642 0.298,1.24 0.405,1.438 H 53.567 C 53.491,35.906 53.368,35.486 53.224,34.843 53.079,34.169 52.834,33.955 52.301,33.94 H 51.83 v 2.12 H 50.9 v -5.088 z m 0.93,2.28 h 0.556 c 0.632,0 1.029,-0.337 1.029,-0.85 0,-0.565 -0.396,-0.826 -1.006,-0.826 -0.298,0 -0.488,0.022 -0.58,0.046 v 1.63 z"
         id="path14"
         inkscape:connector-curvature="0"
         style="fill-rule:nonzero" />
      <path
         d="M 56.173,30.903 V 36.06 H 55.235 V 30.903 Z"
         id="path16"
         inkscape:connector-curvature="0" />
      <path
         d="m 58.277,34.598 -0.442,1.462 h -0.969 l 1.648,-5.157 h 1.197 l 1.67,5.157 h -1.006 l -0.466,-1.462 z m 1.47,-0.71 -0.403,-1.271 C 59.246,32.303 59.162,31.951 59.086,31.653 H 59.07 c -0.077,0.298 -0.153,0.657 -0.244,0.964 l -0.396,1.27 h 1.317 z m 3.926,-2.916 c 0.413,-0.07 0.938,-0.108 1.496,-0.108 0.96,0 1.624,0.2 2.095,0.597 0.495,0.405 0.801,1.018 0.801,1.898 0,0.918 -0.313,1.606 -0.8,2.05 -0.511,0.467 -1.328,0.705 -2.326,0.705 -0.55,0 -0.96,-0.031 -1.266,-0.07 z m 0.938,4.37 c 0.13,0.022 0.328,0.022 0.52,0.022 1.219,0.007 1.942,-0.666 1.942,-1.974 0.009,-1.14 -0.648,-1.79 -1.822,-1.79 -0.296,0 -0.51,0.022 -0.64,0.053 z"
         id="path18"
         inkscape:connector-curvature="0"
         style="fill-rule:nonzero" />
      <path
         d="m 71.755,33.772 h -1.936 v 1.515 h 2.166 v 0.773 h -3.103 v -5.157 h 2.987 v 0.773 h -2.05 v 1.331 h 1.936 z"
         id="path20"
         inkscape:connector-curvature="0" />
    </g>
    <g
       id="g38">
      <path
         d="m 12.873,38.72 c 0.335,-0.061 0.8,-0.107 1.433,-0.107 0.687,0 1.189,0.145 1.517,0.421 0.305,0.253 0.503,0.658 0.503,1.14 0,0.49 -0.153,0.896 -0.442,1.171 -0.373,0.375 -0.96,0.551 -1.624,0.551 -0.175,0 -0.335,-0.007 -0.457,-0.03 v 1.943 h -0.93 z m 0.93,2.403 c 0.114,0.03 0.267,0.038 0.457,0.038 0.701,0 1.129,-0.345 1.129,-0.949 0,-0.574 -0.396,-0.88 -1.044,-0.88 -0.26,0 -0.442,0.022 -0.542,0.046 z m 7.891,0.053 c 0,1.73 -1.045,2.717 -2.463,2.717 -1.448,0 -2.363,-1.11 -2.363,-2.625 0,-1.584 0.991,-2.701 2.44,-2.701 1.5,0 2.386,1.14 2.386,2.61 z m -3.836,0.077 c 0,1.048 0.527,1.882 1.426,1.882 0.907,0 1.418,-0.841 1.418,-1.92 0,-0.972 -0.48,-1.89 -1.418,-1.89 -0.93,0 -1.426,0.865 -1.426,1.928 z m 2.653,-3.81 -0.953,0.917 h -0.755 l 0.671,-0.918 h 1.037 z"
         id="path24"
         inkscape:connector-curvature="0"
         style="fill-rule:nonzero" />
      <path
         d="m 22.479,42.784 c 0.305,0.175 0.763,0.329 1.243,0.329 0.602,0 0.937,-0.283 0.937,-0.705 0,-0.39 -0.259,-0.62 -0.915,-0.856 -0.845,-0.306 -1.387,-0.758 -1.387,-1.5 0,-0.842 0.7,-1.485 1.814,-1.485 0.557,0 0.969,0.123 1.236,0.26 l -0.23,0.758 a 2.173,2.173 0 0 0 -1.021,-0.244 c -0.595,0 -0.854,0.32 -0.854,0.62 0,0.397 0.298,0.581 0.984,0.85 0.892,0.336 1.326,0.787 1.326,1.53 0,0.826 -0.624,1.546 -1.951,1.546 -0.542,0 -1.105,-0.154 -1.388,-0.321 z m 5.61,-1.34 v 0.65 h -1.944 v -0.65 z m 4.886,2.128 a 5.063,5.063 0 0 1 -1.655,0.291 c -0.87,0 -1.524,-0.222 -2.012,-0.689 -0.458,-0.435 -0.725,-1.117 -0.717,-1.898 0,-1.63 1.159,-2.677 2.86,-2.677 0.632,0 1.128,0.13 1.365,0.244 l -0.206,0.758 c -0.281,-0.123 -0.625,-0.222 -1.166,-0.222 -1.099,0 -1.869,0.65 -1.869,1.851 0,1.171 0.717,1.867 1.784,1.867 0.336,0 0.587,-0.046 0.71,-0.107 v -1.285 h -0.908 v -0.742 h 1.815 v 2.609 z"
         id="path26"
         inkscape:connector-curvature="0" />
      <path
         d="m 33.935,38.72 c 0.35,-0.061 0.878,-0.107 1.418,-0.107 0.74,0 1.243,0.123 1.587,0.413 0.28,0.237 0.442,0.597 0.442,1.033 0,0.665 -0.45,1.117 -0.93,1.293 v 0.023 c 0.365,0.138 0.586,0.497 0.716,0.995 0.16,0.642 0.297,1.239 0.404,1.438 h -0.969 c -0.075,-0.153 -0.197,-0.573 -0.342,-1.217 -0.145,-0.673 -0.39,-0.887 -0.923,-0.902 h -0.472 v 2.12 h -0.93 V 38.72 Z m 0.93,2.28 h 0.557 c 0.632,0 1.03,-0.336 1.03,-0.848 0,-0.567 -0.397,-0.827 -1.007,-0.827 -0.297,0 -0.488,0.022 -0.58,0.046 z m 4.437,1.347 -0.442,1.462 h -0.969 l 1.647,-5.157 h 1.197 l 1.67,5.157 h -1.007 l -0.465,-1.462 z m 1.471,-0.71 -0.403,-1.272 C 40.27,40.052 40.186,39.7 40.11,39.401 h -0.015 c -0.077,0.299 -0.153,0.658 -0.244,0.964 l -0.396,1.271 h 1.318 z m 2.348,-2.917 c 0.412,-0.07 0.937,-0.107 1.495,-0.107 0.96,0 1.623,0.2 2.096,0.597 0.495,0.405 0.8,1.017 0.8,1.898 0,0.918 -0.312,1.606 -0.8,2.05 -0.51,0.467 -1.327,0.704 -2.326,0.704 -0.549,0 -0.96,-0.03 -1.265,-0.07 z m 0.937,4.37 c 0.13,0.022 0.328,0.022 0.519,0.022 1.22,0.007 1.944,-0.666 1.944,-1.974 0.008,-1.14 -0.648,-1.79 -1.822,-1.79 -0.297,0 -0.51,0.022 -0.64,0.053 v 3.688 z"
         id="path28"
         inkscape:connector-curvature="0"
         style="fill-rule:nonzero" />
      <path
         d="m 49.258,38.652 v 3.007 c 0,1.01 0.419,1.476 1.052,1.476 0.679,0 1.082,-0.467 1.082,-1.476 v -3.007 h 0.938 v 2.946 c 0,1.592 -0.816,2.296 -2.05,2.296 -1.19,0 -1.96,-0.666 -1.96,-2.288 v -2.954 z"
         id="path30"
         inkscape:connector-curvature="0" />
      <path
         d="m 54.434,42.347 -0.442,1.462 h -0.969 l 1.647,-5.157 h 1.197 l 1.669,5.157 H 56.53 l -0.465,-1.462 z m 1.47,-0.71 -0.403,-1.272 C 55.403,40.052 55.318,39.7 55.243,39.401 h -0.017 c -0.076,0.299 -0.152,0.658 -0.243,0.964 l -0.396,1.271 h 1.318 z"
         id="path32"
         inkscape:connector-curvature="0"
         style="fill-rule:nonzero" />
      <path
         d="m 61.936,43.656 c -0.213,0.107 -0.664,0.222 -1.266,0.23 l -0.16,0.283 c 0.289,0.061 0.541,0.26 0.541,0.597 0,0.497 -0.434,0.674 -0.845,0.674 -0.221,0 -0.45,-0.054 -0.61,-0.138 l 0.136,-0.421 a 0.953,0.953 0 0 0 0.428,0.107 c 0.16,0 0.29,-0.061 0.29,-0.215 0,-0.168 -0.207,-0.26 -0.596,-0.305 l 0.306,-0.613 c -1.365,-0.169 -2.173,-1.132 -2.173,-2.563 0,-1.7 1.175,-2.725 2.744,-2.725 0.619,0 1.06,0.13 1.251,0.229 l -0.206,0.75 c -0.243,-0.107 -0.58,-0.199 -1.005,-0.199 -1.044,0 -1.8,0.659 -1.8,1.898 0,1.133 0.663,1.86 1.792,1.86 0.374,0 0.777,-0.077 1.022,-0.192 l 0.15,0.743 z"
         id="path34"
         inkscape:connector-curvature="0" />
      <path
         d="m 63.796,42.347 -0.442,1.462 h -0.97 l 1.648,-5.157 h 1.197 l 1.669,5.157 h -1.006 l -0.465,-1.462 z m -0.138,-4.01 c -0.015,-0.566 0.206,-0.887 0.556,-0.887 0.192,0 0.328,0.07 0.473,0.154 0.13,0.076 0.244,0.145 0.351,0.145 0.123,0 0.183,-0.069 0.206,-0.314 h 0.45 c 0.008,0.589 -0.19,0.857 -0.564,0.857 a 0.905,0.905 0 0 1 -0.48,-0.146 c -0.144,-0.076 -0.237,-0.137 -0.343,-0.137 -0.107,0 -0.175,0.114 -0.19,0.329 h -0.459 z m 1.609,3.3 -0.404,-1.272 C 64.764,40.052 64.68,39.7 64.604,39.401 h -0.016 c -0.076,0.299 -0.152,0.658 -0.243,0.964 l -0.397,1.271 h 1.319 z m 6.907,-0.461 c 0,1.73 -1.045,2.717 -2.463,2.717 -1.448,0 -2.363,-1.11 -2.363,-2.625 0,-1.584 0.991,-2.701 2.44,-2.701 1.501,0 2.386,1.14 2.386,2.61 z m -3.835,0.077 c 0,1.048 0.527,1.882 1.426,1.882 0.907,0 1.418,-0.841 1.418,-1.92 0,-0.972 -0.48,-1.89 -1.418,-1.89 -0.93,0 -1.426,0.865 -1.426,1.928 z"
         id="path36"
         inkscape:connector-curvature="0"
         style="fill-rule:nonzero" />
    </g>
  </g>
</svg>
