<svg xmlns="http://www.w3.org/2000/svg" width="145" height="70" viewBox="0 0 145 70">
    <g fill="none" fill-rule="evenodd">
        <path fill="#0072B9" d="M5.372 29.407L0 32.521v12.445l5.372 3.108 5.38 3.113 5.374-3.113 5.377-3.108V32.521l-5.377-3.114-5.375-3.11zM47.375 44.958l5.383 3.111 5.384 3.115V63.64l-5.384 3.115-5.383 3.113-5.378-3.113-5.384-3.116V51.184l5.384-3.115zM47.152 0l-6.459 3.737-6.463 3.732v14.929l6.463 3.734 6.46 3.73 6.465-3.73 6.465-3.734V7.469l-6.465-3.732zM56.008 27.556l4.318 2.486 4.314 2.484v9.94l-4.314 2.486-4.318 2.485-4.316-2.485-4.317-2.486v-9.94l4.317-2.484zM28.005 48.72l3.24 1.866 3.237 1.862V59.901l-3.236 1.862-3.241 1.86-3.241-1.86-3.238-1.863v-7.452l3.238-1.862zM21.525 10.125l4.3 2.484 4.303 2.489v9.943l-4.303 2.484-4.299 2.486-4.302-2.486-4.301-2.484v-9.943l4.301-2.49z"/>
        <path fill="#1F1410" d="M144.702 22.426H135.6v4.324h3.768v5.118c-.223.1-.572.172-1.04.233-.471.059-1.018.094-1.642.094-1.136 0-2.179-.18-3.119-.53a6.812 6.812 0 0 1-2.441-1.561c-.694-.686-1.225-1.525-1.595-2.518-.38-.984-.565-2.106-.57-3.381.005-1.328.205-2.495.616-3.486.408-.998.983-1.828 1.714-2.488a7.28 7.28 0 0 1 2.583-1.486c.978-.327 2.053-.495 3.211-.495.889 0 1.683.05 2.364.14.679.086 1.293.212 1.83.369a9.62 9.62 0 0 1 1.464.554l1.16-4.511c-.401-.18-.925-.344-1.588-.517a19.939 19.939 0 0 0-2.299-.437 24.455 24.455 0 0 0-2.894-.173c-2.013 0-3.869.285-5.559.852-1.693.574-3.168 1.402-4.419 2.498-1.251 1.094-2.223 2.433-2.919 4.016-.695 1.59-1.053 3.41-1.07 5.452 0 1.203.133 2.35.406 3.431.267 1.087.65 2.087 1.166 3.016a10.62 10.62 0 0 0 1.872 2.458c1.12 1.07 2.5 1.888 4.14 2.44 1.643.545 3.577.828 5.804.828a23.086 23.086 0 0 0 3.171-.233 27.98 27.98 0 0 0 2.83-.531 25.431 25.431 0 0 0 2.16-.616v-12.86zm-42.14 13.982h5.511v-9.842h8.776v-4.501h-8.776v-5.6h9.397v-4.534h-14.908v24.477zM74.42 11.931v13.653c.004 2.584.398 4.713 1.164 6.36.768 1.664 1.874 2.892 3.32 3.686 1.453.792 3.215 1.183 5.278 1.183 2.134 0 3.958-.405 5.482-1.213 1.52-.815 2.68-2.042 3.49-3.693.802-1.647 1.212-3.728 1.22-6.245v-13.73H88.86v14.052c-.009 2.179-.39 3.784-1.162 4.832-.769 1.046-1.883 1.57-3.335 1.562-1.409 0-2.493-.53-3.262-1.603-.767-1.065-1.15-2.662-1.168-4.79V11.93H74.42zM144.635 46.896h-2.038V45.75h2.158v-1.032h-3.407v5.541h3.521v-1.03h-2.272v-1.312h2.038v-1.02zm-9.153-1.21a2.78 2.78 0 0 1 .567-.051c1.084 0 1.76.568 1.76 1.763 0 1.328-.749 1.946-1.892 1.943-.145 0-.33 0-.435-.028v-3.627zm-1.249 4.547c.304.045.774.093 1.42.093 1.086 0 1.983-.235 2.563-.725.528-.45.916-1.184.916-2.247 0-.986-.363-1.674-.941-2.105-.519-.397-1.215-.57-2.274-.57-.624 0-1.224.039-1.684.117v5.437zm-5.313-2.332l.333-1.178c.082-.322.172-.74.252-1.068h.025c.077.316.172.74.267 1.068l.35 1.178h-1.227zm1.41.934l.43 1.424h1.347l-1.726-5.541h-1.634l-1.696 5.541h1.299l.386-1.424h1.595zm-8.731-3.15c.103-.022.295-.05.567-.05 1.084 0 1.754.568 1.754 1.763 0 1.328-.743 1.946-1.886 1.943-.148 0-.332 0-.435-.028v-3.627zm-1.253 4.548c.306.045.771.093 1.425.093 1.083 0 1.976-.235 2.56-.725.53-.45.916-1.184.916-2.247 0-.986-.363-1.674-.94-2.105-.524-.397-1.212-.57-2.273-.57-.625 0-1.226.039-1.688.117v5.437zm-3.717.026h1.252v-5.541h-1.252v5.541zm-6.047-.25c.313.174.94.344 1.57.344 1.522 0 2.228-.788 2.228-1.72 0-.791-.453-1.3-1.427-1.667-.726-.276-1.031-.436-1.031-.786 0-.28.26-.537.805-.537a2.5 2.5 0 0 1 1.151.27l.279-1.011c-.326-.153-.78-.28-1.413-.28-1.3 0-2.095.716-2.095 1.664 0 .814.606 1.327 1.528 1.656.665.23.93.437.93.775 0 .367-.308.604-.88.604-.533 0-1.059-.17-1.391-.344l-.254 1.032zm-4.805-4.354c.09-.023.262-.043.567-.043.576 0 .922.264.922.762 0 .481-.373.794-.998.794h-.49v-1.513zm-1.243 4.604h1.243v-2.186h.368c.52.007.757.191.914.89.156.689.296 1.141.381 1.296h1.279c-.106-.213-.27-.94-.442-1.575-.14-.512-.355-.872-.74-1.032v-.023c.477-.173.977-.66.977-1.354 0-.505-.18-.892-.52-1.154-.39-.325-.968-.442-1.786-.442-.678 0-1.272.047-1.674.117v5.463zm-2.475-3.363h-2.042V45.75h2.164v-1.032h-3.41v5.541h3.525v-1.03h-2.28v-1.312h2.043v-1.02zm-7.14 3.363l1.867-5.541H95.45l-.705 2.366a24.587 24.587 0 0 0-.502 1.957h-.025a21.543 21.543 0 0 0-.495-1.983l-.676-2.34h-1.37l1.78 5.541h1.462zm-6.493 0h1.25v-5.541h-1.25v5.541zm-5.913 0v-1.668c0-.903-.017-1.686-.06-2.427h.035c.266.651.635 1.356.964 1.96l1.181 2.135h1.316v-5.541h-1.148v1.61c0 .84.02 1.59.095 2.322h-.015a15.954 15.954 0 0 0-.906-1.899l-1.152-2.033h-1.46v5.541h1.15zm-8.141-5.541v3.094c0 1.76.809 2.541 2.21 2.541 1.448 0 2.312-.816 2.312-2.531v-3.104h-1.252V47.9c0 .99-.363 1.443-1.02 1.443-.63 0-1.002-.481-1.002-1.443v-3.183h-1.248zM141.158 58.221c.309.174.933.344 1.57.344 1.52 0 2.226-.786 2.226-1.72 0-.791-.45-1.297-1.433-1.664-.719-.276-1.025-.434-1.025-.789 0-.28.265-.53.807-.53.534 0 .935.153 1.15.259l.28-1.001c-.33-.162-.781-.277-1.413-.277-1.3 0-2.095.71-2.095 1.661 0 .814.609 1.323 1.528 1.654.664.229.93.436.93.771 0 .373-.31.608-.881.608a3.18 3.18 0 0 1-1.393-.341l-.251 1.025zm-2.87-6.628l-.714 1.034h.985l1.032-1.034h-1.303zm-.848 4.522l.338-1.178c.084-.324.173-.738.248-1.068h.025c.084.322.182.738.271 1.068l.347 1.178h-1.23zm1.418.937l.425 1.427h1.35l-1.726-5.552h-1.637l-1.694 5.552h1.296l.395-1.427h1.591zm-5.214 1.427h1.25v-5.552h-1.25v5.552zm-3.498-.907c-.838 0-1.34-.819-1.34-1.862 0-1.038.48-1.878 1.346-1.878.863 0 1.33.86 1.33 1.858 0 1.083-.481 1.882-1.33 1.882h-.006zm-.045.993c1.621 0 2.717-1.096 2.717-2.92 0-1.532-.932-2.802-2.632-2.802-1.633 0-2.694 1.239-2.694 2.897 0 1.583.967 2.825 2.603 2.825h.006zm-3.334-3.256h-2.064v.977h.857v1.16c-.104.042-.33.074-.61.074-1.03 0-1.754-.66-1.754-1.81 0-1.206.8-1.798 1.84-1.798.61 0 .982.095 1.286.237l.262-1.021c-.27-.114-.823-.254-1.533-.254-1.816 0-3.16 1.049-3.168 2.903 0 .814.279 1.533.78 2.013.514.487 1.247.747 2.255.747.728 0 1.46-.187 1.849-.316V55.31zm-8.454-.2h-2.042v-1.147h2.162v-1.035h-3.41v5.552h3.529v-1.033h-2.28v-1.312h2.041v-1.026zm-7.768-1.206c.106-.028.296-.051.567-.051 1.087 0 1.76.569 1.76 1.758 0 1.328-.751 1.951-1.894 1.942-.146 0-.327 0-.433-.021v-3.628zm-1.251 4.547c.305.043.773.087 1.427.087 1.079 0 1.974-.231 2.559-.718.528-.45.914-1.183.914-2.249 0-.985-.358-1.678-.94-2.109-.522-.397-1.212-.573-2.276-.573-.622 0-1.224.04-1.684.126v5.436zm-6.087.029h3.453v-1.057h-2.204v-4.495h-1.25v5.552zm-3.856-2.364l.336-1.178c.093-.318.173-.738.248-1.068h.024c.08.322.176.742.27 1.068l.344 1.178h-1.222zm1.414.937l.428 1.427h1.346l-1.726-5.552h-1.631l-1.7 5.552h1.303l.382-1.427h1.598zm-6.583-3.183c.089-.027.265-.045.566-.045.576 0 .92.263.92.763 0 .48-.37.795-.995.795h-.49V53.87zm-1.24 4.61h1.24v-2.193h.365c.523 0 .757.187.917.89.156.688.295 1.146.38 1.303h1.279c-.107-.221-.27-.942-.447-1.583-.137-.51-.35-.873-.735-1.027v-.028c.472-.167.975-.651.975-1.348 0-.511-.182-.893-.52-1.16-.393-.314-.965-.445-1.788-.445-.674 0-1.267.05-1.666.126v5.465zm-1.095-3.37h-2.042v-1.147h2.164v-1.035h-3.407v5.552h3.522v-1.033h-2.279v-1.312h2.042v-1.026zm-7.767-1.206c.107-.028.296-.051.567-.051 1.088 0 1.758.569 1.758 1.758 0 1.328-.747 1.951-1.888 1.942-.15 0-.33 0-.437-.021v-3.628zM82.83 58.45c.305.043.777.087 1.427.087 1.081 0 1.98-.23 2.556-.718.54-.445.918-1.183.918-2.249 0-.985-.367-1.676-.937-2.109-.528-.397-1.215-.573-2.276-.573-.623 0-1.227.04-1.688.126v5.436zm-1.093-3.342h-2.041v-1.146h2.165v-1.035h-3.408v5.552h3.522v-1.033h-2.279v-1.312h2.041v-1.026zm-7.384 3.37h1.25v-2.237h1.986v-1.012h-1.986v-1.267h2.127v-1.035h-3.377v5.552z"/>
    </g>
</svg>
