<?xml version="1.0" encoding="UTF-8" standalone="no"?>
<!-- Generator: Adobe Illustrator 19.0.0, SVG Export Plug-In . SVG Version: 6.00 Build 0)  -->

<svg
   xmlns:dc="http://purl.org/dc/elements/1.1/"
   xmlns:cc="http://creativecommons.org/ns#"
   xmlns:rdf="http://www.w3.org/1999/02/22-rdf-syntax-ns#"
   xmlns:svg="http://www.w3.org/2000/svg"
   xmlns="http://www.w3.org/2000/svg"
   xmlns:sodipodi="http://sodipodi.sourceforge.net/DTD/sodipodi-0.dtd"
   xmlns:inkscape="http://www.inkscape.org/namespaces/inkscape"
   version="1.1"
   id="Layer_1"
   x="0px"
   y="0px"
   viewBox="0 0 79.368411 52.000002"
   xml:space="preserve"
   sodipodi:docname="brasil.svg"
   width="79.368408"
   height="52"
   inkscape:version="0.92.4 (5da689c313, 2019-01-14)"><metadata
   id="metadata69"><rdf:RDF><cc:Work
       rdf:about=""><dc:format>image/svg+xml</dc:format><dc:type
         rdf:resource="http://purl.org/dc/dcmitype/StillImage" /><dc:title></dc:title></cc:Work></rdf:RDF></metadata><defs
   id="defs67" /><sodipodi:namedview
   pagecolor="#ffffff"
   bordercolor="#666666"
   borderopacity="1"
   objecttolerance="10"
   gridtolerance="10"
   guidetolerance="10"
   inkscape:pageopacity="0"
   inkscape:pageshadow="2"
   inkscape:window-width="1259"
   inkscape:window-height="730"
   id="namedview65"
   showgrid="false"
   fit-margin-top="0"
   fit-margin-left="0"
   fit-margin-right="0"
   fit-margin-bottom="0"
   inkscape:zoom="3.687493"
   inkscape:cx="-16.86011"
   inkscape:cy="30.146519"
   inkscape:window-x="58"
   inkscape:window-y="27"
   inkscape:window-maximized="0"
   inkscape:current-layer="Layer_1" />
<path
   style="fill:#009c3b;fill-opacity:1;stroke-width:0.15501612"
   d="M 77.999773,52 H 1.3684823 C 0.61277874,52 0,51.387215 0,50.631521 V 1.368479 C 0,0.61277 0.61277874,0 1.3684823,0 H 77.999928 c 0.755704,0 1.368483,0.61277 1.368483,1.368479 V 50.631521 C 79.368255,51.387383 78.755477,52 77.999773,52 Z"
   id="path2"
   inkscape:connector-curvature="0" />
<path
   style="fill:#ffdf00;fill-opacity:1;stroke-width:0.15501612"
   d="M 38.972603,7.275366 10.130924,24.831094 c -0.8759963,0.533112 -0.8759963,1.804548 0,2.337797 l 28.841679,17.555895 c 0.436991,0.266007 0.985903,0.266007 1.423049,0 L 69.237486,27.169058 c 0.875997,-0.533111 0.875997,-1.804547 0,-2.337811 L 40.395652,7.275366 c -0.436991,-0.266006 -0.986058,-0.266006 -1.423049,0 z"
   id="path4"
   inkscape:connector-curvature="0" />
<circle
   style="fill:#002776;fill-opacity:1;stroke-width:0.15501612"
   cx="39.684128"
   cy="26.000055"
   r="10.947239"
   id="circle6" />
<g
   id="g32"
   transform="matrix(0.15501612,0,0,0.15501612,0,-13.684213)">
	<path
   style="fill:#f5f5f5"
   d="m 195.401,219.874 c -3.332,5.578 -5.905,11.64 -7.605,18.077 39.149,-2.946 97.062,8.006 133.922,43.773 2.406,-6.141 3.994,-12.683 4.59,-19.522 -38.061,-32.033 -90.68,-43.424 -130.907,-42.328 z"
   id="path8"
   inkscape:connector-curvature="0" />
	<path
   style="fill:#f5f5f5"
   d="m 258.925,280.1 1.88,5.638 5.943,0.046 c 0.769,0.006 1.088,0.988 0.47,1.445 l -4.781,3.531 1.793,5.666 c 0.232,0.734 -0.604,1.341 -1.229,0.893 l -4.835,-3.456 -4.835,3.456 c -0.626,0.448 -1.461,-0.159 -1.229,-0.893 l 1.793,-5.666 -4.781,-3.531 c -0.619,-0.457 -0.3,-1.439 0.469,-1.445 l 5.943,-0.046 1.88,-5.638 c 0.243,-0.73 1.275,-0.73 1.519,0 z"
   id="path10"
   inkscape:connector-curvature="0" />
	<path
   style="fill:#f5f5f5"
   d="m 282.024,294.685 0.809,2.426 2.558,0.02 c 0.331,0.002 0.469,0.425 0.202,0.622 l -2.058,1.519 0.771,2.439 c 0.1,0.316 -0.259,0.577 -0.529,0.384 l -2.081,-1.487 -2.081,1.487 c -0.269,0.193 -0.629,-0.068 -0.529,-0.384 l 0.771,-2.439 -2.058,-1.519 c -0.266,-0.196 -0.129,-0.619 0.202,-0.622 l 2.558,-0.02 0.809,-2.426 c 0.106,-0.315 0.551,-0.315 0.656,0 z"
   id="path12"
   inkscape:connector-curvature="0" />
	<path
   style="fill:#f5f5f5"
   d="m 248.938,269.39 0.809,2.426 2.558,0.02 c 0.331,0.002 0.469,0.425 0.202,0.622 l -2.058,1.519 0.771,2.439 c 0.1,0.316 -0.259,0.577 -0.529,0.384 l -2.081,-1.487 -2.081,1.487 c -0.269,0.193 -0.629,-0.068 -0.529,-0.384 l 0.771,-2.439 -2.058,-1.519 c -0.266,-0.196 -0.129,-0.619 0.202,-0.622 l 2.558,-0.02 0.809,-2.426 c 0.106,-0.314 0.551,-0.314 0.656,0 z"
   id="path14"
   inkscape:connector-curvature="0" />
	<path
   style="fill:#f5f5f5"
   d="m 204.13,266.448 0.809,2.426 2.558,0.02 c 0.331,0.002 0.469,0.425 0.202,0.622 l -2.058,1.519 0.771,2.439 c 0.1,0.316 -0.259,0.577 -0.529,0.384 l -2.081,-1.487 -2.081,1.487 c -0.269,0.193 -0.629,-0.068 -0.529,-0.384 l 0.771,-2.439 -2.058,-1.519 c -0.266,-0.196 -0.129,-0.619 0.202,-0.622 l 2.558,-0.02 0.809,-2.426 c 0.107,-0.314 0.551,-0.314 0.656,0 z"
   id="path16"
   inkscape:connector-curvature="0" />
	<path
   style="fill:#f5f5f5"
   d="m 241.614,293.847 0.809,2.426 2.558,0.02 c 0.331,0.002 0.469,0.425 0.202,0.622 l -2.058,1.519 0.771,2.439 c 0.1,0.316 -0.259,0.577 -0.529,0.384 l -2.081,-1.487 -2.081,1.487 c -0.269,0.193 -0.629,-0.068 -0.529,-0.384 l 0.771,-2.439 -2.058,-1.519 c -0.266,-0.196 -0.129,-0.619 0.202,-0.622 l 2.558,-0.02 0.809,-2.426 c 0.107,-0.313 0.552,-0.313 0.656,0 z"
   id="path18"
   inkscape:connector-curvature="0" />
	<path
   style="fill:#f5f5f5"
   d="m 220.99,264.755 0.662,1.984 2.092,0.017 c 0.27,0.002 0.383,0.348 0.166,0.509 l -1.683,1.242 0.631,1.994 c 0.082,0.258 -0.212,0.472 -0.433,0.314 l -1.702,-1.216 -1.702,1.216 c -0.221,0.158 -0.514,-0.056 -0.433,-0.314 l 0.631,-1.994 -1.683,-1.242 c -0.217,-0.161 -0.106,-0.507 0.166,-0.509 l 2.092,-0.017 0.662,-1.984 c 0.085,-0.257 0.448,-0.257 0.534,0 z"
   id="path20"
   inkscape:connector-curvature="0" />
	<path
   style="fill:#f5f5f5"
   d="m 283.819,223.794 0.828,2.482 2.616,0.02 c 0.339,0.002 0.479,0.435 0.206,0.636 l -2.104,1.554 0.789,2.495 c 0.103,0.323 -0.266,0.59 -0.541,0.393 l -2.129,-1.522 -2.129,1.522 c -0.276,0.198 -0.643,-0.071 -0.541,-0.393 l 0.789,-2.495 -2.104,-1.554 c -0.273,-0.201 -0.132,-0.633 0.206,-0.636 l 2.616,-0.02 0.828,-2.482 c 0.108,-0.322 0.563,-0.322 0.67,0 z"
   id="path22"
   inkscape:connector-curvature="0" />
	<path
   style="fill:#f5f5f5"
   d="m 207.012,252.617 0.662,1.984 2.092,0.017 c 0.27,0.002 0.383,0.348 0.166,0.509 l -1.683,1.242 0.631,1.994 c 0.082,0.258 -0.212,0.472 -0.433,0.314 l -1.702,-1.216 -1.702,1.216 c -0.221,0.158 -0.514,-0.056 -0.433,-0.314 l 0.631,-1.994 -1.683,-1.242 c -0.217,-0.161 -0.106,-0.506 0.166,-0.509 l 2.092,-0.017 0.662,-1.984 c 0.085,-0.257 0.448,-0.257 0.534,0 z"
   id="path24"
   inkscape:connector-curvature="0" />
	<path
   style="fill:#f5f5f5"
   d="m 217.112,280.581 1.002,3.006 3.168,0.024 c 0.41,0.003 0.58,0.526 0.25,0.77 l -2.549,1.882 0.956,3.02 c 0.124,0.391 -0.321,0.715 -0.655,0.476 l -2.578,-1.842 -2.578,1.842 c -0.333,0.238 -0.779,-0.085 -0.655,-0.476 l 0.956,-3.02 -2.549,-1.882 c -0.33,-0.244 -0.16,-0.767 0.25,-0.77 l 3.168,-0.024 1.002,-3.006 c 0.133,-0.388 0.683,-0.388 0.812,0 z"
   id="path26"
   inkscape:connector-curvature="0" />
	<path
   style="fill:#f5f5f5"
   d="m 294.903,295.315 0.63,1.891 1.993,0.015 c 0.258,0.002 0.365,0.331 0.158,0.484 l -1.603,1.184 0.601,1.9 c 0.078,0.246 -0.202,0.449 -0.413,0.299 l -1.621,-1.159 -1.622,1.159 c -0.21,0.15 -0.49,-0.053 -0.413,-0.299 l 0.601,-1.9 -1.603,-1.184 c -0.207,-0.153 -0.1,-0.482 0.158,-0.484 l 1.993,-0.015 0.63,-1.891 c 0.083,-0.245 0.43,-0.245 0.511,0 z"
   id="path28"
   inkscape:connector-curvature="0" />
	<path
   style="fill:#f5f5f5"
   d="m 301.877,280.885 0.809,2.426 2.558,0.02 c 0.331,0.002 0.469,0.425 0.202,0.622 l -2.058,1.519 0.771,2.439 c 0.1,0.316 -0.259,0.577 -0.529,0.384 l -2.081,-1.487 -2.081,1.487 c -0.269,0.193 -0.629,-0.068 -0.529,-0.384 l 0.771,-2.439 -2.058,-1.519 c -0.266,-0.196 -0.129,-0.619 0.202,-0.622 l 2.558,-0.02 0.809,-2.426 c 0.106,-0.315 0.551,-0.315 0.656,0 z"
   id="path30"
   inkscape:connector-curvature="0" />
</g>
<g
   id="g34"
   transform="translate(0,-371.725)">
</g>
<g
   id="g36"
   transform="translate(0,-371.725)">
</g>
<g
   id="g38"
   transform="translate(0,-371.725)">
</g>
<g
   id="g40"
   transform="translate(0,-371.725)">
</g>
<g
   id="g42"
   transform="translate(0,-371.725)">
</g>
<g
   id="g44"
   transform="translate(0,-371.725)">
</g>
<g
   id="g46"
   transform="translate(0,-371.725)">
</g>
<g
   id="g48"
   transform="translate(0,-371.725)">
</g>
<g
   id="g50"
   transform="translate(0,-371.725)">
</g>
<g
   id="g52"
   transform="translate(0,-371.725)">
</g>
<g
   id="g54"
   transform="translate(0,-371.725)">
</g>
<g
   id="g56"
   transform="translate(0,-371.725)">
</g>
<g
   id="g58"
   transform="translate(0,-371.725)">
</g>
<g
   id="g60"
   transform="translate(0,-371.725)">
</g>
<g
   id="g62"
   transform="translate(0,-371.725)">
</g>
</svg>