<?xml version="1.0" encoding="UTF-8" standalone="no"?>
<!-- Generator: Adobe Illustrator 19.0.0, SVG Export Plug-In . SVG Version: 6.00 Build 0)  -->

<svg
   xmlns:dc="http://purl.org/dc/elements/1.1/"
   xmlns:cc="http://creativecommons.org/ns#"
   xmlns:rdf="http://www.w3.org/1999/02/22-rdf-syntax-ns#"
   xmlns:svg="http://www.w3.org/2000/svg"
   xmlns="http://www.w3.org/2000/svg"
   xmlns:sodipodi="http://sodipodi.sourceforge.net/DTD/sodipodi-0.dtd"
   xmlns:inkscape="http://www.inkscape.org/namespaces/inkscape"
   version="1.1"
   id="Layer_1"
   x="0px"
   y="0px"
   viewBox="0 0 79.368412 52.000002"
   xml:space="preserve"
   sodipodi:docname="china.svg"
   width="79.368408"
   height="52"
   inkscape:version="0.92.4 (5da689c313, 2019-01-14)"><metadata
   id="metadata51"><rdf:RDF><cc:Work
       rdf:about=""><dc:format>image/svg+xml</dc:format><dc:type
         rdf:resource="http://purl.org/dc/dcmitype/StillImage" /><dc:title></dc:title></cc:Work></rdf:RDF></metadata><defs
   id="defs49" /><sodipodi:namedview
   pagecolor="#ffffff"
   bordercolor="#666666"
   borderopacity="1"
   objecttolerance="10"
   gridtolerance="10"
   guidetolerance="10"
   inkscape:pageopacity="0"
   inkscape:pageshadow="2"
   inkscape:window-width="1537"
   inkscape:window-height="791"
   id="namedview47"
   showgrid="false"
   fit-margin-top="0"
   fit-margin-left="0"
   fit-margin-right="0"
   fit-margin-bottom="0"
   inkscape:zoom="2.6074513"
   inkscape:cx="116.19839"
   inkscape:cy="-43.144151"
   inkscape:window-x="58"
   inkscape:window-y="27"
   inkscape:window-maximized="0"
   inkscape:current-layer="g14" />
<path
   style="fill:#de2910;fill-opacity:1;stroke-width:0.15501611"
   d="M 77.999767,52 H 1.3684822 C 0.61277869,52 0,51.38722 0,50.63152 V 1.36848 C 0,0.61278 0.61277869,0 1.3684822,0 H 77.999922 c 0.755704,0 1.368483,0.61278 1.368483,1.36848 V 50.63152 C 79.36825,51.38738 78.755471,52 77.999767,52 Z"
   id="path2"
   inkscape:connector-curvature="0" />
<g
   id="g14"
   transform="translate(0,-371.725)">
	<path
   style="fill:#ffde00;fill-opacity:1;stroke-width:0.15501611"
   d="m 13.177455,379.85668 1.304615,3.91168 4.123429,0.0319 c 0.533875,0.004 0.755238,0.68548 0.325689,1.00249 l -3.317035,2.44941 1.243694,3.93152 c 0.160907,0.50907 -0.418543,0.92994 -0.852898,0.6196 l -3.354549,-2.39795 -3.3545488,2.39779 c -0.4343551,0.3105 -1.0138053,-0.11068 -0.8528986,-0.6196 L 9.6866469,387.252 6.3696121,384.80275 c -0.4295497,-0.31716 -0.2081867,-0.99846 0.3256888,-1.00249 l 4.1234291,-0.0319 1.304615,-3.91168 c 0.168968,-0.50659 0.885297,-0.50659 1.05411,0 z"
   id="path4"
   inkscape:connector-curvature="0" />
	<path
   style="fill:#ffde00;fill-opacity:1;stroke-width:0.15501611"
   d="m 28.150771,380.82057 0.935522,1.27578 1.509702,-0.47218 c 0.195476,-0.0611 0.356227,0.16184 0.236555,0.32786 l -0.924206,1.28369 0.915525,1.28989 c 0.118587,0.16695 -0.04371,0.38878 -0.238725,0.32631 l -1.506602,-0.48226 -0.943893,1.26943 c -0.122152,0.16432 -0.383354,0.0784 -0.38413,-0.12618 l -0.007,-1.58194 -1.499006,-0.50551 c -0.193925,-0.0656 -0.19315,-0.34026 0.0014,-0.40444 l 1.502106,-0.49543 0.01767,-1.58178 c 0.0022,-0.20447 0.263992,-0.28833 0.38506,-0.12324 z"
   id="path6"
   inkscape:connector-curvature="0" />
	<path
   style="fill:#ffde00;fill-opacity:1;stroke-width:0.15501611"
   d="m 22.455169,377.01803 1.572639,0.17082 0.670909,-1.4325 c 0.08696,-0.1854 0.359793,-0.15362 0.401647,0.0468 l 0.323364,1.5483 1.569693,0.19533 c 0.203226,0.0253 0.257327,0.29468 0.07952,0.39653 l -1.372668,0.78593 0.299336,1.55326 c 0.03875,0.20121 -0.200745,0.33576 -0.352506,0.19827 l -1.171767,-1.06264 -1.384604,0.76454 c -0.179199,0.099 -0.381495,-0.0873 -0.297476,-0.27407 l 0.648433,-1.44289 -1.15518,-1.08077 c -0.149436,-0.13921 -0.03488,-0.38894 0.168657,-0.36692 z"
   id="path8"
   inkscape:connector-curvature="0" />
	<path
   style="fill:#ffde00;fill-opacity:1;stroke-width:0.15501611"
   d="m 24.941317,392.34803 -0.935522,1.27579 -1.509702,-0.47218 c -0.195475,-0.0611 -0.356227,0.16183 -0.236554,0.32786 l 0.924206,1.28368 -0.915525,1.28989 c -0.118588,0.16696 0.04371,0.38878 0.238724,0.32631 l 1.506602,-0.48225 0.943893,1.26942 c 0.122153,0.16432 0.383355,0.0784 0.38413,-0.12618 l 0.007,-1.58194 1.499006,-0.50551 c 0.19408,-0.0656 0.19315,-0.34026 -0.0014,-0.40443 l -1.502106,-0.49543 -0.01767,-1.58179 c -0.0025,-0.20431 -0.263992,-0.28848 -0.38506,-0.12324 z"
   id="path10"
   inkscape:connector-curvature="0" />
	<path
   style="fill:#ffde00;fill-opacity:1;stroke-width:0.15501611"
   d="m 30.636609,388.77476 -1.572638,0.17082 -0.67091,-1.4325 c -0.08696,-0.1854 -0.359792,-0.15362 -0.401647,0.0468 l -0.323518,1.5483 -1.569693,0.19532 c -0.203226,0.0253 -0.257327,0.29468 -0.07952,0.39653 l 1.372668,0.78593 -0.299336,1.55326 c -0.03875,0.20121 0.200746,0.33577 0.352507,0.19827 l 1.171766,-1.06264 1.384604,0.76454 c 0.179199,0.0991 0.381495,-0.0873 0.297476,-0.27407 l -0.648432,-1.44289 1.15518,-1.08077 c 0.149901,-0.1392 0.03534,-0.38894 -0.168503,-0.36692 z"
   id="path12"
   inkscape:connector-curvature="0" />
</g>
<g
   id="g16"
   transform="translate(0,-371.725)">
</g>
<g
   id="g18"
   transform="translate(0,-371.725)">
</g>
<g
   id="g20"
   transform="translate(0,-371.725)">
</g>
<g
   id="g22"
   transform="translate(0,-371.725)">
</g>
<g
   id="g24"
   transform="translate(0,-371.725)">
</g>
<g
   id="g26"
   transform="translate(0,-371.725)">
</g>
<g
   id="g28"
   transform="translate(0,-371.725)">
</g>
<g
   id="g30"
   transform="translate(0,-371.725)">
</g>
<g
   id="g32"
   transform="translate(0,-371.725)">
</g>
<g
   id="g34"
   transform="translate(0,-371.725)">
</g>
<g
   id="g36"
   transform="translate(0,-371.725)">
</g>
<g
   id="g38"
   transform="translate(0,-371.725)">
</g>
<g
   id="g40"
   transform="translate(0,-371.725)">
</g>
<g
   id="g42"
   transform="translate(0,-371.725)">
</g>
<g
   id="g44"
   transform="translate(0,-371.725)">
</g>
</svg>