<?xml version="1.0" encoding="UTF-8" standalone="no"?>
<!-- Generator: Adobe Illustrator 19.0.0, SVG Export Plug-In . SVG Version: 6.00 Build 0)  -->

<svg
   xmlns:dc="http://purl.org/dc/elements/1.1/"
   xmlns:cc="http://creativecommons.org/ns#"
   xmlns:rdf="http://www.w3.org/1999/02/22-rdf-syntax-ns#"
   xmlns:svg="http://www.w3.org/2000/svg"
   xmlns="http://www.w3.org/2000/svg"
   xmlns:sodipodi="http://sodipodi.sourceforge.net/DTD/sodipodi-0.dtd"
   xmlns:inkscape="http://www.inkscape.org/namespaces/inkscape"
   version="1.1"
   id="Layer_1"
   x="0px"
   y="0px"
   viewBox="0 0 79.368412 52.000002"
   xml:space="preserve"
   sodipodi:docname="espanha.svg"
   width="79.368408"
   height="52"
   inkscape:version="0.92.4 (5da689c313, 2019-01-14)"><metadata
   id="metadata131"><rdf:RDF><cc:Work
       rdf:about=""><dc:format>image/svg+xml</dc:format><dc:type
         rdf:resource="http://purl.org/dc/dcmitype/StillImage" /><dc:title></dc:title></cc:Work></rdf:RDF></metadata><defs
   id="defs129" /><sodipodi:namedview
   pagecolor="#ffffff"
   bordercolor="#666666"
   borderopacity="1"
   objecttolerance="10"
   gridtolerance="10"
   guidetolerance="10"
   inkscape:pageopacity="0"
   inkscape:pageshadow="2"
   inkscape:window-width="1512"
   inkscape:window-height="677"
   id="namedview127"
   showgrid="false"
   fit-margin-top="0"
   fit-margin-left="0"
   fit-margin-right="0"
   fit-margin-bottom="0"
   inkscape:zoom="1.8437465"
   inkscape:cx="145.66383"
   inkscape:cy="-35.398537"
   inkscape:window-x="58"
   inkscape:window-y="27"
   inkscape:window-maximized="0"
   inkscape:current-layer="Layer_1" />
<path
   style="fill:#aa151b;fill-opacity:1;stroke-width:0.15501611"
   d="M 1.3684822,52 H 77.999922 c 0.755704,0 1.368483,-0.61278 1.368483,-1.36848 V 1.36848 C 79.368405,0.61278 78.755626,0 77.999922,0 H 1.3684822 C 0.61277869,1.6e-4 0,0.61278 0,1.36848 V 50.63152 C 0,51.38738 0.61277869,52 1.3684822,52 Z"
   id="path2"
   inkscape:connector-curvature="0" />
<rect
   y="10.948003"
   style="fill:#f1bf00;fill-opacity:1;stroke-width:0.15501611"
   width="79.368248"
   height="30.10568"
   id="rect4"
   x="0" />
<path
   style="fill:#c8414b;stroke-width:0.15501611"
   d="m 33.526265,26.00008 1.160295,-5.2211 c 0.106962,-0.48086 -0.259032,-0.93692 -0.751673,-0.93692 h -0.817245 c -0.492486,0 -0.858324,0.45606 -0.751673,0.93692 z"
   id="path6"
   inkscape:connector-curvature="0" />
<rect
   x="32.158092"
   y="23.262487"
   style="fill:#f5f5f5;stroke-width:0.15501611"
   width="2.7368095"
   height="11.630858"
   id="rect8" />
<rect
   x="31.472921"
   y="21.895239"
   style="fill:#fab446;stroke-width:0.15501611"
   width="4.1052918"
   height="1.3684822"
   id="rect10" />
<g
   id="g18"
   transform="matrix(0.15501611,0,0,0.15501611,0,-13.6842)">
	<rect
   x="185.38"
   y="256.00101"
   style="fill:#c8414b"
   width="44.139999"
   height="8.8280001"
   id="rect12" />
	<polygon
   style="fill:#c8414b"
   points="203.034,282.484 203.034,273.656 229.517,282.484 229.517,291.311 "
   id="polygon14" />
	<path
   style="fill:#c8414b"
   d="m 83.862,256.001 7.485,-33.681 c 0.69,-3.102 -1.671,-6.044 -4.849,-6.044 h -5.272 c -3.177,0 -5.537,2.942 -4.849,6.044 z"
   id="path16"
   inkscape:connector-curvature="0" />
</g>
<path
   style="fill:#f5f5f5;stroke-width:0.15501611"
   d="m 17.789494,21.89479 c -0.755703,0 -1.368482,0.61277 -1.368482,1.36848 v 8.89467 c 0,1.66255 1.551711,4.78953 6.842101,4.78953 5.29039,0 6.842101,-3.12683 6.842101,-4.78953 v -8.89467 c 0,-0.75571 -0.612778,-1.36848 -1.368482,-1.36848 z"
   id="path20"
   inkscape:connector-curvature="0" />
<g
   id="g26"
   transform="matrix(0.15501611,0,0,0.15501611,0,-13.6842)">
	<path
   style="fill:#c8414b"
   d="m 150.069,273.656 h -44.138 v -35.31 c 0,-4.875 3.953,-8.828 8.828,-8.828 h 35.31 z"
   id="path22"
   inkscape:connector-curvature="0" />
	<path
   style="fill:#c8414b"
   d="m 150.069,273.656 h 44.138 v 22.069 c 0,12.189 -9.88,22.069 -22.069,22.069 v 0 c -12.189,0 -22.069,-9.88 -22.069,-22.069 z"
   id="path24"
   inkscape:connector-curvature="0" />
</g>
<path
   style="fill:#fab446;stroke-width:0.15501611"
   d="m 16.421012,28.73689 h 6.842101 v 3.42105 c 0,1.88949 -1.531559,3.42105 -3.421051,3.42105 v 0 c -1.889491,0 -3.42105,-1.53156 -3.42105,-3.42105 z"
   id="path28"
   inkscape:connector-curvature="0" />
<g
   id="g34"
   transform="matrix(0.15501611,0,0,0.15501611,0,-13.6842)">
	<path
   style="fill:#c8414b"
   d="m 141.241,313.281 v -39.625 h -8.828 v 43.693 c 3.284,-0.666 6.251,-2.12 8.828,-4.068 z"
   id="path30"
   inkscape:connector-curvature="0" />
	<path
   style="fill:#c8414b"
   d="m 123.586,317.349 v -43.693 h -8.828 v 39.625 c 2.578,1.948 5.545,3.402 8.828,4.068 z"
   id="path32"
   inkscape:connector-curvature="0" />
</g>
<rect
   x="17.78965"
   y="26.000067"
   style="fill:#ffb441;stroke-width:0.15501611"
   width="4.1052918"
   height="1.3684822"
   id="rect36" />
<g
   id="g42"
   transform="matrix(0.15501611,0,0,0.15501611,0,-13.6842)">
	<rect
   x="114.76"
   y="238.341"
   style="fill:#fab446"
   width="26.483"
   height="8.8280001"
   id="rect38" />
	<rect
   x="119.17"
   y="243.591"
   style="fill:#fab446"
   width="17.655001"
   height="15.992"
   id="rect40" />
</g>
<rect
   x="11.630858"
   y="23.262487"
   style="fill:#f5f5f5;stroke-width:0.15501611"
   width="2.7368095"
   height="11.630858"
   id="rect44" />
<g
   id="g50"
   transform="matrix(0.15501611,0,0,0.15501611,0,-13.6842)">
	<rect
   x="70.620003"
   y="308.97101"
   style="fill:#fab446"
   width="26.483"
   height="8.8280001"
   id="rect46" />
	<rect
   x="70.620003"
   y="229.521"
   style="fill:#fab446"
   width="26.483"
   height="8.8280001"
   id="rect48" />
</g>
<rect
   x="10.263617"
   y="35.578526"
   style="fill:#5064aa;stroke-width:0.15501611"
   width="5.473619"
   height="1.3684822"
   id="rect52" />
<rect
   x="32.158092"
   y="34.211277"
   style="fill:#fab446;stroke-width:0.15501611"
   width="4.1052918"
   height="1.3684822"
   id="rect54" />
<rect
   x="30.789299"
   y="35.578526"
   style="fill:#5064aa;stroke-width:0.15501611"
   width="5.473619"
   height="1.3684822"
   id="rect56" />
<rect
   x="19.158442"
   y="20.526464"
   style="fill:#fab446;stroke-width:0.15501611"
   width="8.2105837"
   height="1.3684822"
   id="rect58" />
<rect
   x="22.579647"
   y="16.421637"
   style="fill:#ffb441;stroke-width:0.15501611"
   width="1.3684822"
   height="4.1052918"
   id="rect60" />
<g
   id="g70"
   transform="matrix(0.15501611,0,0,0.15501611,0,-13.6842)">
	<path
   style="fill:#f5f5f5"
   d="m 141.241,207.449 c -7.302,0 -13.241,-5.94 -13.241,-13.241 0,-7.302 5.94,-13.241 13.241,-13.241 7.302,0 13.241,5.94 13.241,13.241 0.001,7.301 -5.939,13.241 -13.241,13.241 z m 0,-17.655 c -2.435,0 -4.414,1.978 -4.414,4.414 0,2.435 1.978,4.414 4.414,4.414 2.436,0 4.414,-1.978 4.414,-4.414 0,-2.435 -1.978,-4.414 -4.414,-4.414 z"
   id="path62"
   inkscape:connector-curvature="0" />
	<path
   style="fill:#f5f5f5"
   d="m 158.897,207.449 c -7.302,0 -13.241,-5.94 -13.241,-13.241 0,-7.302 5.94,-13.241 13.241,-13.241 7.302,0 13.241,5.94 13.241,13.241 0,7.301 -5.94,13.241 -13.241,13.241 z m 0,-17.655 c -2.435,0 -4.414,1.978 -4.414,4.414 0,2.435 1.978,4.414 4.414,4.414 2.435,0 4.414,-1.978 4.414,-4.414 -0.001,-2.435 -1.979,-4.414 -4.414,-4.414 z"
   id="path64"
   inkscape:connector-curvature="0" />
	<path
   style="fill:#f5f5f5"
   d="m 176.552,216.277 c -7.302,0 -13.241,-5.94 -13.241,-13.241 0,-7.302 5.94,-13.241 13.241,-13.241 7.302,0 13.241,5.94 13.241,13.241 0,7.301 -5.94,13.241 -13.241,13.241 z m 0,-17.655 c -2.435,0 -4.414,1.978 -4.414,4.414 0,2.435 1.978,4.414 4.414,4.414 2.435,0 4.414,-1.978 4.414,-4.414 0,-2.436 -1.979,-4.414 -4.414,-4.414 z"
   id="path66"
   inkscape:connector-curvature="0" />
	<path
   style="fill:#f5f5f5"
   d="m 123.586,216.277 c -7.302,0 -13.241,-5.94 -13.241,-13.241 0,-7.302 5.94,-13.241 13.241,-13.241 7.302,0 13.241,5.94 13.241,13.241 0.001,7.301 -5.939,13.241 -13.241,13.241 z m 0,-17.655 c -2.435,0 -4.414,1.978 -4.414,4.414 0,2.435 1.978,4.414 4.414,4.414 2.436,0 4.414,-1.979 4.414,-4.415 0,-2.435 -1.978,-4.413 -4.414,-4.413 z"
   id="path68"
   inkscape:connector-curvature="0" />
</g>
<path
   style="fill:#fab446;stroke-width:0.15501611"
   d="m 27.368405,31.4737 v 0.68424 c 0,0.37731 -0.306932,0.68424 -0.684241,0.68424 -0.37731,0 -0.684242,-0.30693 -0.684242,-0.68424 V 31.4737 h 1.368483 m 1.368327,-1.36833 H 24.63144 v 2.05257 c 0,1.13193 0.920796,2.05257 2.052569,2.05257 1.131927,0 2.052568,-0.9208 2.052568,-2.05257 v -2.05257 z"
   id="path72"
   inkscape:connector-curvature="0" />
<path
   style="fill:#ffa0d2;stroke-width:0.15501611"
   d="m 26.684164,27.36856 v 0 c -0.755704,0 -1.368483,-0.61278 -1.368483,-1.36848 V 24.6316 c 0,-0.75571 0.612779,-1.36849 1.368483,-1.36849 v 0 c 0.755703,0 1.368482,0.61278 1.368482,1.36849 v 1.36848 c 0,0.7557 -0.612779,1.36848 -1.368482,1.36848 z"
   id="path74"
   inkscape:connector-curvature="0" />
<circle
   style="fill:#5064aa;stroke-width:0.15501611"
   cx="23.263269"
   cy="28.73612"
   r="2.0525684"
   id="circle76" />
<rect
   x="22.579647"
   y="13.684056"
   style="fill:#fab446;stroke-width:0.15501611"
   width="1.3684822"
   height="4.1052918"
   id="rect78" />
<path
   style="fill:#c8414b;stroke-width:0.15501611"
   d="m 19.157821,20.52646 -1.368482,-1.36848 0.801588,-0.80159 c 1.239044,-1.23905 2.919729,-1.93522 4.672186,-1.93522 v 0 c 1.752457,0 3.432987,0.69617 4.672186,1.93522 l 0.801588,0.80159 -1.368482,1.36848 z"
   id="path80"
   inkscape:connector-curvature="0" />
<g
   id="g88"
   transform="matrix(0.15501611,0,0,0.15501611,0,-13.6842)">
	<circle
   style="fill:#ffd250"
   cx="150.07001"
   cy="211.86099"
   r="4.414"
   id="circle82" />
	<circle
   style="fill:#ffd250"
   cx="132.41"
   cy="211.86099"
   r="4.414"
   id="circle84" />
	<circle
   style="fill:#ffd250"
   cx="167.72"
   cy="211.86099"
   r="4.414"
   id="circle86" />
</g>
<g
   id="g94"
   transform="matrix(0.15501611,0,0,0.15501611,0,-13.6842)">
	<rect
   x="70.620003"
   y="256.00101"
   style="fill:#c8414b"
   width="44.139999"
   height="8.8280001"
   id="rect90" />
	<polygon
   style="fill:#c8414b"
   points="97.103,282.484 97.103,273.656 70.621,282.484 70.621,291.311 "
   id="polygon92" />
</g>
<g
   id="g96"
   transform="translate(0,-371.725)">
</g>
<g
   id="g98"
   transform="translate(0,-371.725)">
</g>
<g
   id="g100"
   transform="translate(0,-371.725)">
</g>
<g
   id="g102"
   transform="translate(0,-371.725)">
</g>
<g
   id="g104"
   transform="translate(0,-371.725)">
</g>
<g
   id="g106"
   transform="translate(0,-371.725)">
</g>
<g
   id="g108"
   transform="translate(0,-371.725)">
</g>
<g
   id="g110"
   transform="translate(0,-371.725)">
</g>
<g
   id="g112"
   transform="translate(0,-371.725)">
</g>
<g
   id="g114"
   transform="translate(0,-371.725)">
</g>
<g
   id="g116"
   transform="translate(0,-371.725)">
</g>
<g
   id="g118"
   transform="translate(0,-371.725)">
</g>
<g
   id="g120"
   transform="translate(0,-371.725)">
</g>
<g
   id="g122"
   transform="translate(0,-371.725)">
</g>
<g
   id="g124"
   transform="translate(0,-371.725)">
</g>
</svg>