<?xml version="1.0" encoding="utf-8"?>
<!-- Generator: Adobe Illustrator 16.0.0, SVG Export Plug-In . SVG Version: 6.00 Build 0)  -->
<!DOCTYPE svg PUBLIC "-//W3C//DTD SVG 1.1//EN" "http://www.w3.org/Graphics/SVG/1.1/DTD/svg11.dtd">
<svg version="1.1" id="Camada_1" xmlns="http://www.w3.org/2000/svg" xmlns:xlink="http://www.w3.org/1999/xlink" x="0px" y="0px"
	 width="116px" height="50px" viewBox="0 0 116 50" enable-background="new 0 0 116 50" xml:space="preserve">
<path fill="#FFFFFF" d="M61.87,13.776c0.166-0.024,0.325-0.042,0.476-0.054c0.15-0.012,0.316-0.018,0.5-0.018
	c0.159,0,0.314,0.006,0.464,0.018s0.317,0.03,0.5,0.054l2.678,8.558c-0.325,0.047-0.643,0.071-0.952,0.071
	c-0.302,0-0.595-0.024-0.88-0.071l-0.477-1.714h-2.833l-0.487,1.714c-0.286,0.047-0.561,0.071-0.822,0.071
	c-0.293,0-0.583-0.024-0.868-0.071L61.87,13.776z M63.774,19.18l-0.988-3.595L61.75,19.18H63.774z"/>
<path fill="#FFFFFF" d="M70.951,20.882c0.096,0.159,0.175,0.343,0.237,0.553c0.064,0.21,0.096,0.458,0.096,0.744
	c-0.317,0.127-0.614,0.208-0.892,0.244c-0.279,0.036-0.568,0.053-0.87,0.053c-0.516,0-0.963-0.081-1.345-0.243
	c-0.38-0.163-0.695-0.387-0.946-0.673c-0.25-0.286-0.438-0.625-0.565-1.018c-0.126-0.393-0.19-0.819-0.19-1.28
	c0-0.451,0.061-0.872,0.185-1.26c0.123-0.389,0.309-0.731,0.559-1.024c0.251-0.293,0.562-0.524,0.935-0.69
	c0.372-0.167,0.806-0.25,1.297-0.25c0.174,0,0.335,0.004,0.482,0.011c0.146,0.008,0.287,0.024,0.422,0.048
	c0.135,0.024,0.27,0.056,0.405,0.095c0.135,0.04,0.286,0.091,0.451,0.155c0,0.182-0.024,0.387-0.071,0.613
	c-0.047,0.226-0.123,0.442-0.226,0.649c-0.238-0.079-0.446-0.133-0.625-0.161c-0.178-0.028-0.383-0.042-0.612-0.042
	c-0.492,0-0.863,0.161-1.113,0.482c-0.25,0.321-0.375,0.78-0.375,1.374c0,0.644,0.134,1.112,0.405,1.405
	c0.27,0.294,0.634,0.441,1.095,0.441c0.119,0,0.228-0.002,0.327-0.006c0.099-0.003,0.196-0.013,0.292-0.029
	C70.403,21.057,70.5,21.033,70.6,21C70.698,20.969,70.815,20.929,70.951,20.882"/>
<path fill="#FFFFFF" d="M73.188,19.775c0.031,0.476,0.199,0.821,0.5,1.035c0.302,0.214,0.698,0.322,1.19,0.322
	c0.27,0,0.546-0.026,0.827-0.078c0.281-0.051,0.549-0.125,0.803-0.22c0.087,0.159,0.162,0.348,0.226,0.57
	c0.064,0.223,0.1,0.461,0.107,0.715c-0.619,0.238-1.317,0.356-2.095,0.356c-0.571,0-1.062-0.079-1.47-0.238
	c-0.408-0.159-0.742-0.378-1-0.66c-0.258-0.281-0.448-0.617-0.572-1.006c-0.123-0.389-0.184-0.813-0.184-1.274
	c0-0.452,0.064-0.876,0.19-1.273s0.315-0.742,0.565-1.036c0.25-0.293,0.56-0.525,0.929-0.696c0.369-0.171,0.798-0.256,1.292-0.256
	c0.428,0,0.809,0.075,1.142,0.226c0.334,0.15,0.617,0.357,0.852,0.619c0.234,0.262,0.411,0.573,0.53,0.934
	c0.119,0.362,0.178,0.749,0.178,1.161c0,0.15-0.006,0.299-0.018,0.446c-0.011,0.147-0.025,0.264-0.042,0.351H73.188z M75.604,18.596
	c-0.016-0.381-0.121-0.688-0.315-0.921c-0.195-0.234-0.466-0.352-0.815-0.352c-0.397,0-0.698,0.111-0.905,0.333
	c-0.206,0.222-0.329,0.536-0.368,0.94H75.604z"/>
<path fill="#FFFFFF" d="M79.27,19.656c-0.444-0.127-0.792-0.315-1.042-0.565c-0.25-0.25-0.375-0.625-0.375-1.125
	c0-0.603,0.216-1.075,0.648-1.416c0.433-0.342,1.022-0.512,1.768-0.512c0.309,0,0.614,0.028,0.917,0.083
	c0.301,0.056,0.607,0.14,0.916,0.25c-0.016,0.206-0.055,0.42-0.119,0.642c-0.063,0.223-0.139,0.417-0.226,0.583
	c-0.19-0.079-0.4-0.149-0.631-0.208C80.896,17.33,80.654,17.3,80.4,17.3c-0.27,0-0.48,0.041-0.63,0.125
	c-0.15,0.083-0.227,0.217-0.227,0.398c0,0.175,0.054,0.298,0.161,0.369c0.107,0.072,0.26,0.139,0.458,0.203l0.679,0.202
	c0.222,0.064,0.422,0.141,0.601,0.232c0.179,0.092,0.332,0.205,0.458,0.339s0.227,0.302,0.297,0.499
	c0.072,0.199,0.107,0.441,0.107,0.727c0,0.294-0.061,0.567-0.184,0.822c-0.123,0.253-0.301,0.474-0.535,0.66
	s-0.518,0.333-0.851,0.44c-0.334,0.107-0.711,0.16-1.132,0.16c-0.19,0-0.365-0.006-0.523-0.018
	c-0.159-0.011-0.312-0.031-0.458-0.059c-0.147-0.028-0.292-0.062-0.435-0.102c-0.142-0.04-0.297-0.091-0.463-0.155
	c0.015-0.213,0.053-0.43,0.113-0.647c0.059-0.218,0.136-0.431,0.231-0.637c0.262,0.103,0.51,0.181,0.744,0.231
	c0.234,0.052,0.478,0.079,0.732,0.079c0.111,0,0.232-0.011,0.363-0.03c0.13-0.02,0.251-0.056,0.363-0.107
	c0.111-0.052,0.204-0.119,0.279-0.202c0.076-0.083,0.113-0.192,0.113-0.327c0-0.191-0.058-0.327-0.172-0.411
	c-0.115-0.083-0.275-0.157-0.482-0.221L79.27,19.656z"/>
<path fill="#FFFFFF" d="M84.031,19.656c-0.444-0.127-0.792-0.315-1.041-0.565c-0.25-0.25-0.375-0.625-0.375-1.125
	c0-0.603,0.216-1.075,0.648-1.416c0.433-0.342,1.021-0.512,1.768-0.512c0.309,0,0.615,0.028,0.917,0.083
	c0.302,0.056,0.607,0.14,0.917,0.25c-0.015,0.206-0.055,0.42-0.119,0.642c-0.063,0.223-0.139,0.417-0.226,0.583
	c-0.191-0.079-0.401-0.149-0.631-0.208c-0.23-0.059-0.473-0.088-0.727-0.088c-0.269,0-0.479,0.041-0.631,0.125
	c-0.15,0.083-0.225,0.217-0.225,0.398c0,0.175,0.053,0.298,0.161,0.369c0.106,0.072,0.259,0.139,0.458,0.203l0.679,0.202
	c0.222,0.064,0.422,0.141,0.601,0.232c0.179,0.092,0.331,0.205,0.458,0.339c0.126,0.135,0.227,0.302,0.297,0.499
	c0.072,0.199,0.107,0.441,0.107,0.727c0,0.294-0.062,0.567-0.184,0.822c-0.124,0.253-0.303,0.474-0.536,0.66
	c-0.234,0.186-0.518,0.333-0.851,0.44c-0.334,0.107-0.71,0.16-1.13,0.16c-0.191,0-0.366-0.006-0.524-0.018
	c-0.158-0.011-0.311-0.031-0.458-0.059c-0.147-0.028-0.292-0.062-0.435-0.102c-0.143-0.04-0.297-0.091-0.465-0.155
	c0.016-0.213,0.054-0.43,0.114-0.647c0.059-0.218,0.136-0.431,0.231-0.637c0.262,0.103,0.51,0.181,0.744,0.231
	c0.234,0.052,0.478,0.079,0.732,0.079c0.111,0,0.231-0.011,0.363-0.03c0.13-0.02,0.252-0.056,0.363-0.107
	c0.111-0.052,0.204-0.119,0.28-0.202c0.076-0.083,0.114-0.192,0.114-0.327c0-0.191-0.059-0.327-0.173-0.411
	c-0.115-0.083-0.276-0.157-0.482-0.221L84.031,19.656z"/>
<path fill="#FFFFFF" d="M90.469,22.476c-0.5,0-0.935-0.081-1.304-0.243c-0.369-0.163-0.674-0.389-0.916-0.678
	c-0.242-0.291-0.425-0.629-0.547-1.018c-0.123-0.389-0.185-0.81-0.185-1.262s0.062-0.876,0.185-1.273
	c0.123-0.397,0.306-0.74,0.547-1.03c0.242-0.29,0.547-0.519,0.916-0.685c0.369-0.167,0.804-0.25,1.304-0.25
	c0.5,0,0.936,0.083,1.309,0.25c0.373,0.166,0.682,0.395,0.928,0.685c0.246,0.29,0.429,0.633,0.548,1.03
	c0.119,0.396,0.178,0.821,0.178,1.273s-0.06,0.873-0.178,1.262c-0.119,0.389-0.302,0.728-0.548,1.018
	c-0.246,0.289-0.555,0.515-0.928,0.678C91.405,22.395,90.969,22.476,90.469,22.476 M90.469,21.191c0.445,0,0.764-0.165,0.958-0.494
	c0.194-0.33,0.292-0.804,0.292-1.423c0-0.619-0.098-1.093-0.292-1.422c-0.194-0.329-0.514-0.493-0.958-0.493
	c-0.437,0-0.751,0.164-0.946,0.493c-0.195,0.33-0.292,0.804-0.292,1.422c0,0.619,0.097,1.093,0.292,1.423
	C89.718,21.027,90.032,21.191,90.469,21.191"/>
<path fill="#FFFFFF" d="M99.55,18.287c0-0.191-0.032-0.345-0.096-0.464c-0.063-0.118-0.151-0.211-0.262-0.28
	c-0.111-0.067-0.248-0.113-0.411-0.137c-0.163-0.023-0.343-0.035-0.541-0.035c-0.429,0-0.885,0.083-1.369,0.25
	c-0.111-0.207-0.195-0.401-0.25-0.583c-0.056-0.182-0.084-0.401-0.084-0.655c0.349-0.119,0.699-0.206,1.048-0.262
	c0.35-0.056,0.674-0.083,0.976-0.083c0.825,0,1.469,0.199,1.934,0.596c0.464,0.396,0.696,1.031,0.696,1.904v3.57
	c-0.278,0.087-0.615,0.171-1.011,0.25c-0.397,0.08-0.845,0.119-1.345,0.119c-0.404,0-0.776-0.036-1.113-0.107
	s-0.626-0.191-0.869-0.357c-0.241-0.167-0.428-0.38-0.559-0.643c-0.131-0.262-0.196-0.583-0.196-0.964s0.081-0.701,0.243-0.958
	c0.163-0.258,0.373-0.465,0.631-0.619c0.258-0.155,0.545-0.266,0.862-0.333c0.317-0.067,0.635-0.101,0.953-0.101
	c0.229,0,0.484,0.012,0.762,0.036V18.287z M96.48,13.777c0.158-0.024,0.31-0.042,0.457-0.054c0.147-0.012,0.324-0.018,0.53-0.018
	c0.388,0,0.746,0.024,1.071,0.072l1.334,1.463c-0.263,0.047-0.521,0.071-0.774,0.071c-0.159,0-0.31-0.007-0.452-0.024
	c-0.143-0.015-0.267-0.031-0.37-0.047L96.48,13.777z M99.55,19.513c-0.096-0.017-0.199-0.03-0.31-0.042
	c-0.112-0.012-0.211-0.018-0.298-0.018c-0.389,0-0.697,0.07-0.922,0.208c-0.226,0.139-0.338,0.363-0.338,0.673
	c0,0.206,0.043,0.365,0.13,0.477c0.087,0.111,0.192,0.192,0.315,0.243c0.123,0.051,0.253,0.083,0.393,0.096
	c0.139,0.012,0.259,0.018,0.362,0.018c0.119,0,0.239-0.01,0.357-0.03c0.118-0.02,0.222-0.037,0.31-0.054V19.513z"/>
<path fill="#FFFFFF" d="M59.087,26.108c0.292-0.048,0.583-0.072,0.868-0.072s0.58,0.024,0.881,0.072v8.558
	c-0.301,0.047-0.591,0.071-0.869,0.071c-0.293,0-0.588-0.024-0.88-0.071V26.108z"/>
<path fill="#FFFFFF" d="M62.098,28.512c0.111-0.024,0.222-0.042,0.333-0.053c0.111-0.013,0.234-0.018,0.37-0.018
	c0.135,0,0.254,0.005,0.356,0.018c0.103,0.012,0.21,0.029,0.321,0.053c0.024,0.04,0.046,0.098,0.066,0.173
	c0.02,0.076,0.038,0.155,0.053,0.238c0.017,0.083,0.031,0.165,0.042,0.244c0.011,0.081,0.022,0.147,0.03,0.203
	c0.079-0.119,0.174-0.237,0.285-0.358c0.111-0.118,0.24-0.226,0.386-0.321c0.147-0.095,0.312-0.172,0.495-0.231
	c0.183-0.06,0.385-0.09,0.607-0.09c0.698,0,1.224,0.191,1.578,0.571c0.352,0.381,0.529,0.98,0.529,1.798v3.928
	c-0.286,0.047-0.567,0.071-0.845,0.071s-0.559-0.024-0.845-0.071V31.19c0-0.429-0.065-0.757-0.196-0.987
	c-0.131-0.231-0.359-0.346-0.685-0.346c-0.135,0-0.274,0.02-0.416,0.061c-0.143,0.04-0.272,0.117-0.387,0.231
	c-0.115,0.116-0.208,0.276-0.279,0.482c-0.071,0.206-0.107,0.476-0.107,0.81v3.226c-0.286,0.047-0.567,0.071-0.846,0.071
	c-0.277,0-0.559-0.024-0.844-0.071V28.512z"/>
<path fill="#FFFFFF" d="M69.084,29.798h-0.976c-0.024-0.127-0.041-0.242-0.047-0.346c-0.008-0.102-0.012-0.209-0.012-0.321
	c0-0.102,0.004-0.201,0.012-0.297c0.007-0.095,0.023-0.202,0.047-0.321h0.976v-0.297c0-0.381,0.057-0.72,0.172-1.018
	c0.115-0.297,0.28-0.547,0.494-0.749c0.214-0.203,0.47-0.357,0.768-0.464c0.297-0.107,0.625-0.161,0.981-0.161
	c0.238,0,0.438,0.01,0.601,0.03c0.162,0.02,0.339,0.058,0.53,0.113c-0.017,0.261-0.042,0.498-0.078,0.708
	c-0.035,0.21-0.093,0.418-0.172,0.625c-0.088-0.016-0.179-0.034-0.274-0.053c-0.095-0.021-0.222-0.03-0.381-0.03
	c-0.278,0-0.504,0.065-0.678,0.196c-0.175,0.132-0.271,0.411-0.286,0.84v0.261h1.428c0.024,0.127,0.04,0.242,0.047,0.345
	c0.008,0.103,0.013,0.21,0.013,0.321c0,0.104-0.004,0.202-0.013,0.298c-0.007,0.095-0.023,0.202-0.047,0.321h-1.428v4.868
	c-0.286,0.047-0.564,0.071-0.833,0.071c-0.278,0-0.56-0.024-0.845-0.071V29.798z"/>
<path fill="#FFFFFF" d="M75.237,34.808c-0.5,0-0.934-0.081-1.303-0.243s-0.674-0.388-0.917-0.678
	c-0.242-0.29-0.425-0.63-0.548-1.018c-0.124-0.39-0.184-0.81-0.184-1.263c0-0.451,0.06-0.876,0.184-1.272
	c0.123-0.396,0.306-0.741,0.548-1.031c0.242-0.289,0.547-0.518,0.917-0.684c0.369-0.167,0.804-0.25,1.303-0.25
	c0.5,0,0.936,0.083,1.31,0.25c0.372,0.166,0.681,0.396,0.928,0.684c0.246,0.29,0.428,0.634,0.546,1.031
	c0.12,0.396,0.179,0.821,0.179,1.272c0,0.453-0.06,0.874-0.179,1.263c-0.118,0.388-0.301,0.728-0.546,1.018
	c-0.247,0.29-0.556,0.516-0.928,0.678C76.173,34.727,75.737,34.808,75.237,34.808 M75.237,33.522c0.443,0,0.764-0.164,0.958-0.494
	s0.291-0.803,0.291-1.423c0-0.618-0.096-1.092-0.291-1.421c-0.194-0.33-0.515-0.494-0.958-0.494c-0.436,0-0.751,0.164-0.946,0.494
	c-0.195,0.329-0.292,0.803-0.292,1.421c0,0.62,0.097,1.093,0.292,1.423S74.801,33.522,75.237,33.522"/>
<path fill="#FFFFFF" d="M79.128,28.512c0.12-0.024,0.231-0.042,0.339-0.053c0.107-0.013,0.224-0.018,0.352-0.018
	c0.119,0,0.235,0.008,0.351,0.023c0.115,0.017,0.228,0.037,0.339,0.06c0.024,0.039,0.046,0.097,0.066,0.172
	c0.02,0.077,0.038,0.154,0.054,0.239c0.015,0.082,0.03,0.166,0.042,0.25c0.012,0.083,0.021,0.152,0.03,0.208
	c0.174-0.246,0.388-0.466,0.642-0.661c0.254-0.194,0.571-0.291,0.952-0.291c0.079,0,0.171,0.003,0.273,0.011
	c0.104,0.008,0.179,0.021,0.227,0.036c0.015,0.08,0.027,0.171,0.036,0.274c0.008,0.103,0.012,0.21,0.012,0.321
	c0,0.135-0.006,0.281-0.018,0.44c-0.012,0.159-0.034,0.31-0.066,0.453c-0.086-0.017-0.184-0.024-0.291-0.024h-0.197
	c-0.136,0-0.286,0.014-0.453,0.041c-0.167,0.028-0.325,0.102-0.476,0.22c-0.151,0.12-0.276,0.298-0.375,0.536
	c-0.099,0.238-0.148,0.571-0.148,1v2.927c-0.143,0.024-0.286,0.04-0.429,0.047c-0.143,0.009-0.282,0.013-0.417,0.013
	s-0.271-0.004-0.411-0.013c-0.139-0.007-0.284-0.023-0.434-0.047V28.512z"/>
<path fill="#FFFFFF" d="M83.508,28.512c0.111-0.024,0.222-0.042,0.333-0.053c0.112-0.013,0.234-0.018,0.37-0.018
	c0.134,0,0.253,0.005,0.357,0.018c0.103,0.012,0.21,0.029,0.321,0.053c0.024,0.04,0.045,0.098,0.066,0.173
	c0.018,0.076,0.037,0.155,0.053,0.238c0.016,0.083,0.029,0.165,0.041,0.244c0.012,0.081,0.022,0.147,0.03,0.203
	c0.064-0.119,0.147-0.237,0.25-0.358c0.104-0.118,0.226-0.226,0.369-0.321c0.142-0.095,0.304-0.172,0.482-0.231
	c0.178-0.06,0.378-0.09,0.6-0.09c0.96,0,1.575,0.365,1.845,1.095c0.159-0.292,0.383-0.549,0.672-0.768
	c0.29-0.217,0.656-0.328,1.1-0.328c0.699,0,1.213,0.192,1.542,0.578c0.33,0.384,0.494,0.986,0.494,1.803v3.916
	c-0.286,0.047-0.567,0.071-0.845,0.071c-0.278,0-0.559-0.024-0.846-0.071V31.19c0-0.429-0.053-0.757-0.16-0.987
	c-0.107-0.231-0.324-0.346-0.648-0.346c-0.136,0-0.268,0.02-0.399,0.061c-0.131,0.04-0.25,0.113-0.357,0.22
	c-0.107,0.108-0.194,0.257-0.262,0.452c-0.067,0.195-0.101,0.447-0.101,0.756v3.321c-0.286,0.047-0.567,0.071-0.846,0.071
	c-0.276,0-0.559-0.024-0.845-0.071V31.19c0-0.429-0.053-0.757-0.16-0.987c-0.107-0.231-0.323-0.346-0.648-0.346
	c-0.136,0-0.271,0.02-0.405,0.061c-0.135,0.04-0.256,0.117-0.363,0.231c-0.108,0.116-0.193,0.276-0.256,0.482
	c-0.064,0.206-0.095,0.476-0.095,0.81v3.226c-0.286,0.047-0.567,0.071-0.845,0.071c-0.278,0-0.56-0.024-0.845-0.071V28.512z"/>
<path fill="#FFFFFF" d="M96.636,30.619c0-0.19-0.032-0.345-0.095-0.464c-0.064-0.119-0.151-0.212-0.261-0.279
	c-0.112-0.068-0.249-0.113-0.411-0.137c-0.163-0.024-0.343-0.035-0.542-0.035c-0.428,0-0.885,0.082-1.369,0.249
	c-0.111-0.207-0.194-0.401-0.25-0.583c-0.056-0.182-0.084-0.401-0.084-0.655c0.349-0.119,0.699-0.206,1.047-0.262
	c0.349-0.055,0.674-0.083,0.977-0.083c0.825,0,1.469,0.199,1.934,0.595c0.464,0.397,0.696,1.031,0.696,1.905v3.57
	C98,34.526,97.664,34.61,97.267,34.69c-0.396,0.079-0.845,0.118-1.345,0.118c-0.405,0-0.775-0.035-1.113-0.106
	c-0.337-0.071-0.626-0.19-0.869-0.358c-0.242-0.166-0.429-0.38-0.559-0.642c-0.131-0.261-0.196-0.583-0.196-0.964
	c0-0.381,0.081-0.7,0.244-0.958c0.163-0.257,0.373-0.464,0.631-0.618c0.258-0.155,0.545-0.266,0.863-0.334
	c0.317-0.067,0.635-0.101,0.953-0.101c0.23,0,0.484,0.012,0.761,0.037V30.619z M96.636,31.845c-0.095-0.016-0.199-0.029-0.31-0.042
	c-0.111-0.011-0.21-0.018-0.297-0.018c-0.389,0-0.697,0.069-0.922,0.208c-0.227,0.139-0.339,0.363-0.339,0.673
	c0,0.206,0.043,0.365,0.13,0.476c0.087,0.111,0.192,0.192,0.315,0.243c0.123,0.053,0.253,0.084,0.393,0.096
	c0.138,0.012,0.26,0.017,0.363,0.017c0.119,0,0.238-0.009,0.357-0.029c0.12-0.021,0.221-0.038,0.31-0.054V31.845z"/>
<path fill="#FFFFFF" d="M101.289,34.737c-0.38-0.079-0.711-0.212-0.994-0.398c-0.282-0.188-0.517-0.417-0.708-0.69
	c-0.19-0.274-0.331-0.584-0.422-0.934c-0.09-0.349-0.137-0.721-0.137-1.119c0-0.452,0.062-0.872,0.185-1.261
	c0.122-0.39,0.308-0.73,0.559-1.024c0.25-0.293,0.562-0.524,0.935-0.69c0.372-0.167,0.805-0.25,1.297-0.25
	c0.174,0,0.335,0.004,0.482,0.013c0.146,0.008,0.287,0.023,0.422,0.047s0.269,0.056,0.405,0.096c0.135,0.039,0.285,0.09,0.452,0.154
	c0,0.183-0.024,0.387-0.071,0.613c-0.048,0.227-0.123,0.442-0.226,0.649c-0.238-0.08-0.446-0.132-0.625-0.162
	c-0.179-0.027-0.383-0.041-0.612-0.041c-0.493,0-0.863,0.161-1.113,0.482c-0.25,0.321-0.375,0.78-0.375,1.375
	c0,0.644,0.135,1.111,0.405,1.405c0.27,0.294,0.634,0.439,1.095,0.439c0.118,0,0.228-0.001,0.327-0.005
	c0.099-0.004,0.196-0.014,0.292-0.029c0.094-0.017,0.192-0.04,0.291-0.071c0.1-0.033,0.216-0.072,0.352-0.121
	c0.095,0.159,0.174,0.344,0.237,0.554c0.064,0.21,0.096,0.458,0.096,0.744c-0.317,0.12-0.611,0.198-0.881,0.237
	c-0.27,0.04-0.556,0.06-0.856,0.06l-0.19,0.489c0.024-0.009,0.049-0.015,0.077-0.018c0.027-0.004,0.065-0.006,0.113-0.006
	c0.42,0,0.748,0.097,0.982,0.292c0.234,0.195,0.351,0.443,0.351,0.744c0,0.405-0.17,0.71-0.512,0.916
	c-0.34,0.206-0.785,0.31-1.333,0.31c-0.111,0-0.25-0.004-0.417-0.011c-0.166-0.008-0.345-0.04-0.535-0.095
	c0.016-0.128,0.036-0.268,0.059-0.423c0.024-0.154,0.076-0.291,0.155-0.411c0.143,0.04,0.269,0.068,0.381,0.084
	c0.111,0.015,0.23,0.024,0.356,0.024c0.222,0,0.401-0.028,0.536-0.084c0.135-0.055,0.202-0.15,0.202-0.285
	c0-0.135-0.063-0.228-0.19-0.279c-0.127-0.052-0.294-0.078-0.5-0.078c-0.111,0-0.231,0.007-0.363,0.023
	c-0.13,0.016-0.252,0.043-0.363,0.083l-0.083-0.083L101.289,34.737z"/>
<path fill="#FFFFFF" d="M107.692,30.619c0-0.19-0.032-0.345-0.096-0.464c-0.064-0.119-0.15-0.212-0.261-0.279
	c-0.112-0.068-0.249-0.113-0.411-0.137c-0.164-0.024-0.343-0.035-0.542-0.035c-0.428,0-0.884,0.082-1.368,0.249
	c-0.111-0.207-0.194-0.401-0.25-0.583c-0.055-0.182-0.083-0.401-0.083-0.655c0.35-0.119,0.698-0.206,1.048-0.262
	c0.349-0.055,0.673-0.083,0.976-0.083c0.825,0,1.47,0.199,1.934,0.595c0.464,0.397,0.696,1.031,0.696,1.905v3.57
	c-0.278,0.087-0.616,0.171-1.012,0.251c-0.396,0.079-0.844,0.118-1.345,0.118c-0.405,0-0.775-0.035-1.113-0.106
	c-0.336-0.071-0.626-0.19-0.868-0.358c-0.243-0.166-0.429-0.38-0.56-0.642c-0.13-0.261-0.196-0.583-0.196-0.964
	c0-0.381,0.082-0.7,0.244-0.958c0.163-0.257,0.373-0.464,0.631-0.618c0.258-0.155,0.545-0.266,0.863-0.334
	c0.317-0.067,0.635-0.101,0.951-0.101c0.231,0,0.485,0.012,0.763,0.037V30.619z M104.729,26.608c0.135-0.175,0.311-0.323,0.53-0.445
	c0.218-0.124,0.474-0.186,0.768-0.186c0.15,0,0.295,0.022,0.434,0.065c0.139,0.043,0.276,0.092,0.411,0.143
	c0.135,0.052,0.274,0.099,0.417,0.143c0.143,0.044,0.29,0.065,0.44,0.065c0.135,0,0.262-0.02,0.381-0.06
	c0.118-0.039,0.261-0.142,0.428-0.309c0.127,0.135,0.234,0.287,0.321,0.453c0.088,0.166,0.151,0.333,0.191,0.5
	c-0.136,0.175-0.314,0.319-0.536,0.434c-0.222,0.115-0.48,0.173-0.772,0.173c-0.152,0-0.298-0.022-0.441-0.066
	c-0.143-0.043-0.284-0.091-0.423-0.143c-0.139-0.051-0.278-0.1-0.417-0.142c-0.139-0.044-0.28-0.065-0.422-0.065
	c-0.151,0-0.282,0.021-0.393,0.065c-0.111,0.042-0.25,0.145-0.417,0.304c-0.112-0.144-0.214-0.292-0.31-0.447
	C104.824,26.936,104.761,26.774,104.729,26.608 M107.692,31.845c-0.096-0.016-0.199-0.029-0.31-0.042
	c-0.111-0.011-0.21-0.018-0.298-0.018c-0.389,0-0.695,0.069-0.922,0.208c-0.226,0.139-0.339,0.363-0.339,0.673
	c0,0.206,0.043,0.365,0.13,0.476s0.192,0.192,0.315,0.243c0.123,0.053,0.254,0.084,0.393,0.096c0.139,0.012,0.26,0.017,0.364,0.017
	c0.119,0,0.237-0.009,0.356-0.029c0.119-0.021,0.222-0.038,0.31-0.054V31.845z"/>
<path fill="#FFFFFF" d="M113.036,34.808c-0.5,0-0.935-0.081-1.303-0.243c-0.37-0.162-0.675-0.388-0.917-0.678
	c-0.242-0.29-0.423-0.63-0.546-1.018c-0.124-0.39-0.185-0.81-0.185-1.263c0-0.451,0.062-0.876,0.185-1.272
	c0.123-0.396,0.305-0.741,0.546-1.031c0.242-0.289,0.547-0.518,0.917-0.684c0.368-0.167,0.803-0.25,1.303-0.25
	s0.936,0.083,1.309,0.25c0.373,0.166,0.682,0.396,0.929,0.684c0.244,0.29,0.428,0.634,0.547,1.031
	c0.119,0.396,0.178,0.821,0.178,1.272c0,0.453-0.059,0.874-0.178,1.263c-0.119,0.388-0.303,0.728-0.547,1.018
	c-0.247,0.29-0.556,0.516-0.929,0.678S113.536,34.808,113.036,34.808 M113.036,33.522c0.444,0,0.763-0.164,0.958-0.494
	c0.194-0.33,0.292-0.803,0.292-1.423c0-0.618-0.097-1.092-0.292-1.421c-0.195-0.33-0.514-0.494-0.958-0.494
	c-0.437,0-0.752,0.164-0.946,0.494c-0.194,0.329-0.292,0.803-0.292,1.421c0,0.62,0.097,1.093,0.292,1.423
	C112.284,33.358,112.6,33.522,113.036,33.522"/>
<path fill="#FFFFFF" d="M24.729,0C11.071,0,0,11.071,0,24.728c0,4.953,1.458,9.566,3.965,13.434l-2.328,6.628
	c-0.9,2.567,0.462,3.93,3.029,3.029l6.628-2.326c3.868,2.507,8.48,3.964,13.433,3.964c13.656,0,24.728-11.071,24.728-24.729
	C49.456,11.071,38.385,0,24.729,0z M29.674,37.12c0,2.731-2.214,4.945-4.946,4.945c-2.731,0-4.945-2.214-4.945-4.945V24.735
	c0-2.73,2.214-4.944,4.945-4.944c2.732,0,4.946,2.214,4.946,4.944V37.12z M24.729,17.315c-2.731,0-4.945-2.215-4.945-4.946
	c0-2.731,2.214-4.946,4.945-4.946s4.946,2.215,4.946,4.946C29.674,15.1,27.46,17.315,24.729,17.315z"/>
</svg>
