<?xml version="1.0" encoding="UTF-8" standalone="no"?>
<!-- Generator: Adobe Illustrator 16.0.0, SVG Export Plug-In . SVG Version: 6.00 Build 0)  -->

<svg
   xmlns:dc="http://purl.org/dc/elements/1.1/"
   xmlns:cc="http://creativecommons.org/ns#"
   xmlns:rdf="http://www.w3.org/1999/02/22-rdf-syntax-ns#"
   xmlns:svg="http://www.w3.org/2000/svg"
   xmlns="http://www.w3.org/2000/svg"
   xmlns:sodipodi="http://sodipodi.sourceforge.net/DTD/sodipodi-0.dtd"
   xmlns:inkscape="http://www.inkscape.org/namespaces/inkscape"
   version="1.1"
   id="Camada_1"
   x="0px"
   y="0px"
   width="153"
   height="57"
   xml:space="preserve"
   inkscape:version="0.91 r13725"
   sodipodi:docname="UFG_logo2-w.svg"><metadata
     id="metadata85"><rdf:RDF><cc:Work
         rdf:about=""><dc:format>image/svg+xml</dc:format><dc:type
           rdf:resource="http://purl.org/dc/dcmitype/StillImage" /><dc:title></dc:title></cc:Work></rdf:RDF></metadata><defs
     id="defs83" /><sodipodi:namedview
     pagecolor="#ffffff"
     bordercolor="#666666"
     borderopacity="1"
     objecttolerance="10"
     gridtolerance="10"
     guidetolerance="10"
     inkscape:pageopacity="0"
     inkscape:pageshadow="2"
     inkscape:window-width="1375"
     inkscape:window-height="876"
     id="namedview81"
     showgrid="false"
     inkscape:zoom="2.0000001"
     inkscape:cx="70.000018"
     inkscape:cy="56.736948"
     inkscape:window-x="65"
     inkscape:window-y="24"
     inkscape:window-maximized="1"
     inkscape:current-layer="g5"
     fit-margin-top="0"
     fit-margin-left="14"
     fit-margin-right="24"
     fit-margin-bottom="0" /><g
     transform="matrix(1.2958404,0,0,1.2958404,-243.96616,-51.820498)"
     id="g5"><g
       id="g7"
       transform="matrix(0.66472866,0,0,0.66472866,47.876622,32.127166)"
       style="fill:#ffffff"><polygon
         style="fill:#ffffff"
         points="232.183,53.672 227.429,56.423 222.671,59.176 217.912,56.423 213.156,53.672 213.156,48.176 213.156,42.679 217.912,39.929 222.671,37.18 227.429,39.929 232.183,42.679 232.183,48.176 "
         id="polygon9"
         transform="translate(0,0.57877626)" /><polygon
         style="fill:#ffffff"
         points="264.596,70.174 259.833,72.931 255.072,75.681 250.309,72.931 245.546,70.174 245.546,64.673 245.546,59.174 250.309,56.423 255.072,53.667 259.833,56.423 264.596,59.174 264.596,64.673 "
         id="polygon11"
         transform="translate(0,0.57877626)" /><polygon
         style="fill:#ffffff"
         points="266.312,33.736 260.596,37.032 254.875,40.333 249.16,37.032 243.439,33.736 243.439,27.138 243.439,20.542 249.16,17.242 254.875,13.945 260.596,17.242 266.312,20.542 266.312,27.138 "
         id="polygon13"
         transform="translate(0,0.57877626)" /><polygon
         style="fill:#ffffff"
         points="270.343,51.467 266.524,53.662 262.708,55.862 258.889,53.662 255.072,51.467 255.072,47.078 255.072,42.684 258.889,40.487 262.708,38.291 266.524,40.487 270.343,42.684 270.343,47.078 "
         id="polygon15"
         transform="translate(0,0.57877626)" /><polygon
         style="fill:#ffffff"
         points="243.664,66.866 240.798,68.515 237.931,70.16 235.066,68.515 232.203,66.866 232.203,63.58 232.203,60.289 235.066,58.642 237.931,56.997 240.798,58.642 243.664,60.289 243.664,63.58 "
         id="polygon17"
         transform="translate(0,0.57877626)" /><polygon
         style="fill:#ffffff"
         points="239.812,36.067 236.007,38.264 232.203,40.459 228.396,38.264 224.591,36.067 224.591,31.674 224.591,27.279 228.396,25.084 232.203,22.889 236.007,25.084 239.812,27.279 239.812,31.674 "
         id="polygon19"
         transform="translate(0,0.57877626)" /></g><path
       inkscape:connector-curvature="0"
       d="m 233.96155,51.484221 0,13.716501 c 0.005,2.594164 0.39232,4.73061 1.16441,6.390473 0.77586,1.667407 1.8837,2.902244 3.34989,3.696966 1.45868,0.794721 3.22417,1.190824 5.30024,1.184538 2.14653,0 3.98118,-0.40239 5.51152,-1.215977 1.53033,-0.816098 2.69727,-2.050935 3.5096,-3.709541 0.81108,-1.653574 1.22353,-3.746006 1.23106,-6.273524 l 0,-13.789436 -5.54545,0 0,14.117634 c -0.005,2.18423 -0.39485,3.798824 -1.16692,4.853841 -0.77337,1.051246 -1.89377,1.575612 -3.36123,1.569324 -1.41214,0 -2.50111,-0.534423 -3.27445,-1.612077 -0.76958,-1.070108 -1.15941,-2.6759 -1.17449,-4.811088 l 0,-14.117634 -5.54418,0 0,0 z m 28.29561,24.586088 5.5505,0 0,-9.884986 8.82744,0 0,-4.523127 -8.82744,0 0,-5.619639 9.4436,0 0,-4.559592 -14.9941,0 0,24.587344 0,0 z m 42.38308,-14.045961 -9.15815,0 0,4.343309 3.79881,0 0,5.144315 c -0.22509,0.09683 -0.57844,0.171017 -1.04747,0.231376 -0.47406,0.06163 -1.02359,0.09809 -1.65482,0.09809 -1.14179,0 -2.18297,-0.183581 -3.13615,-0.534425 -0.95065,-0.362152 -1.76675,-0.882745 -2.45332,-1.57184 -0.6954,-0.687837 -1.23107,-1.527828 -1.6058,-2.523745 -0.37724,-0.990888 -0.56461,-2.121356 -0.5734,-3.39769 0.008,-1.337948 0.21501,-2.504883 0.62873,-3.503314 0.40616,-1.004722 0.9846,-1.835908 1.71896,-2.49734 0.74192,-0.663944 1.60453,-1.164419 2.59668,-1.493875 0.98459,-0.329458 2.06982,-0.494188 3.22542,-0.494188 0.89532,0 1.6913,0.04778 2.38165,0.133282 0.68281,0.09054 1.29897,0.217543 1.83214,0.3785 0.54575,0.154663 1.03867,0.340773 1.4838,0.553287 l 1.16694,-4.531928 c -0.39986,-0.177309 -0.93805,-0.343291 -1.60076,-0.520593 -0.66142,-0.171016 -1.42973,-0.319398 -2.30872,-0.435085 -0.884,-0.1094 -1.84973,-0.169753 -2.91104,-0.177309 -2.02956,0 -3.89439,0.286703 -5.59072,0.860111 -1.69885,0.570892 -3.18517,1.404596 -4.44264,2.503627 -1.25747,1.100286 -2.23704,2.444525 -2.93495,4.037739 -0.70292,1.599504 -1.05627,3.425353 -1.07763,5.477547 0,1.20466 0.13463,2.353988 0.40489,3.441701 0.27034,1.08897 0.66144,2.099977 1.17825,3.02925 0.50929,0.922985 1.14306,1.749142 1.88621,2.468415 1.12418,1.073882 2.50865,1.896268 4.16474,2.449555 1.64728,0.552032 3.59511,0.832446 5.83214,0.832446 1.09402,-0.0062 2.15533,-0.08173 3.19275,-0.232631 1.03236,-0.1421 1.98051,-0.323172 2.84438,-0.533168 0.86767,-0.213759 1.59324,-0.421254 2.17292,-0.621191 l 0,-12.914235 -0.0128,0 z"
       id="path21"
       style="fill:#ffffff" /></g></svg>