<?xml version="1.0" encoding="utf-8"?>
<!-- Generator: Adobe Illustrator 16.0.0, SVG Export Plug-In . SVG Version: 6.00 Build 0)  -->
<!DOCTYPE svg PUBLIC "-//W3C//DTD SVG 1.1//EN" "http://www.w3.org/Graphics/SVG/1.1/DTD/svg11.dtd" [
	<!ENTITY ns_extend "http://ns.adobe.com/Extensibility/1.0/">
	<!ENTITY ns_ai "http://ns.adobe.com/AdobeIllustrator/10.0/">
	<!ENTITY ns_graphs "http://ns.adobe.com/Graphs/1.0/">
	<!ENTITY ns_vars "http://ns.adobe.com/Variables/1.0/">
	<!ENTITY ns_imrep "http://ns.adobe.com/ImageReplacement/1.0/">
	<!ENTITY ns_sfw "http://ns.adobe.com/SaveForWeb/1.0/">
	<!ENTITY ns_custom "http://ns.adobe.com/GenericCustomNamespace/1.0/">
	<!ENTITY ns_adobe_xpath "http://ns.adobe.com/XPath/1.0/">
]>
<svg version="1.1" id="Layer_1" xmlns:x="&ns_extend;" xmlns:i="&ns_ai;" xmlns:graph="&ns_graphs;"
	 xmlns="http://www.w3.org/2000/svg" xmlns:xlink="http://www.w3.org/1999/xlink" x="0px" y="0px" width="120.916px" height="63px"
	 viewBox="212.605 13.333 120.916 63" enable-background="new 212.605 13.333 120.916 63" xml:space="preserve">
<metadata>
	<sfw  xmlns="&ns_sfw;">
		<slices></slices>
		<sliceSourceBounds  width="120.206" height="61.736" x="631.885" y="391.652" bottomLeftOrigin="true"></sliceSourceBounds>
	</sfw>
</metadata>
<g>
	<g>
		<polygon fill="#007DC5" points="222.671,37.18 227.429,39.929 232.183,42.679 232.183,48.176 232.183,53.672 227.429,56.423 
			222.671,59.176 217.912,56.423 213.156,53.672 213.156,48.176 213.156,42.679 217.912,39.929 		"/>
		<polygon fill="#007DC5" points="255.072,53.667 259.833,56.423 264.596,59.174 264.596,64.673 264.596,70.174 259.833,72.931 
			255.072,75.681 250.309,72.931 245.546,70.174 245.546,64.673 245.546,59.174 250.309,56.423 		"/>
		<polygon fill="#007DC5" points="254.875,13.945 260.596,17.242 266.312,20.542 266.312,27.138 266.312,33.736 260.596,37.032 
			254.875,40.333 249.16,37.032 243.439,33.736 243.439,27.138 243.439,20.542 249.16,17.242 		"/>
		<polygon fill="#007DC5" points="262.708,38.291 266.524,40.487 270.343,42.684 270.343,47.078 270.343,51.467 266.524,53.662 
			262.708,55.862 258.889,53.662 255.072,51.467 255.072,47.078 255.072,42.684 258.889,40.487 		"/>
		<polygon fill="#007DC5" points="237.931,56.997 240.798,58.642 243.664,60.289 243.664,63.58 243.664,66.866 240.798,68.515 
			237.931,70.16 235.066,68.515 232.203,66.866 232.203,63.58 232.203,60.289 235.066,58.642 		"/>
		<polygon fill="#007DC5" points="232.203,22.889 236.007,25.084 239.812,27.279 239.812,31.674 239.812,36.067 236.007,38.264 
			232.203,40.459 228.396,38.264 224.591,36.067 224.591,31.674 224.591,27.279 228.396,25.084 		"/>
	</g>
	<path d="M276.953,26.437v10.908c0.004,2.063,0.312,3.762,0.926,5.082c0.617,1.326,1.498,2.308,2.664,2.94
		c1.16,0.632,2.564,0.947,4.215,0.942c1.707,0,3.166-0.32,4.383-0.967c1.217-0.649,2.145-1.631,2.791-2.95
		c0.645-1.315,0.973-2.979,0.979-4.989V26.437h-4.41v11.227c-0.004,1.737-0.314,3.021-0.928,3.86
		c-0.615,0.836-1.506,1.253-2.673,1.248c-1.123,0-1.989-0.425-2.604-1.282c-0.612-0.851-0.922-2.128-0.934-3.826V26.437H276.953
		L276.953,26.437z M299.455,45.989h4.414v-7.861h7.02v-3.597h-7.02v-4.469h7.51v-3.626h-11.924V45.989L299.455,45.989z
		 M333.16,34.819h-7.283v3.454h3.021v4.091c-0.179,0.077-0.46,0.136-0.833,0.184c-0.377,0.049-0.814,0.078-1.316,0.078
		c-0.908,0-1.736-0.146-2.494-0.425c-0.756-0.288-1.405-0.702-1.951-1.25c-0.553-0.547-0.979-1.215-1.277-2.007
		c-0.3-0.788-0.449-1.687-0.456-2.702c0.007-1.064,0.171-1.992,0.5-2.786c0.323-0.799,0.783-1.46,1.367-1.986
		c0.59-0.528,1.276-0.926,2.065-1.188c0.783-0.262,1.646-0.393,2.565-0.393c0.712,0,1.345,0.038,1.894,0.106
		c0.543,0.072,1.033,0.173,1.457,0.301c0.434,0.123,0.826,0.271,1.18,0.44l0.928-3.604c-0.318-0.141-0.746-0.273-1.273-0.414
		c-0.526-0.136-1.137-0.254-1.836-0.346c-0.703-0.087-1.471-0.135-2.315-0.141c-1.614,0-3.097,0.228-4.446,0.684
		c-1.351,0.454-2.533,1.117-3.533,1.991c-1,0.875-1.779,1.944-2.334,3.211c-0.559,1.272-0.84,2.724-0.857,4.356
		c0,0.958,0.107,1.872,0.322,2.737c0.215,0.866,0.526,1.67,0.937,2.409c0.405,0.734,0.909,1.391,1.5,1.963
		c0.894,0.854,1.995,1.508,3.312,1.948c1.31,0.439,2.859,0.662,4.638,0.662c0.87-0.005,1.714-0.065,2.539-0.185
		c0.821-0.113,1.575-0.257,2.262-0.424c0.69-0.17,1.267-0.335,1.728-0.494V34.819H333.16z"/>
	<g>
		<path d="M276.91,52.623v2.476c0,1.407,0.652,2.032,1.771,2.032c1.154,0,1.849-0.651,1.849-2.022v-2.484h-1.002v2.545
			c0,0.792-0.289,1.158-0.813,1.158c-0.508,0-0.805-0.389-0.805-1.158v-2.545L276.91,52.623L276.91,52.623z M283.421,57.058v-1.334
			c0-0.729-0.012-1.351-0.045-1.941h0.029c0.207,0.519,0.504,1.083,0.766,1.564l0.944,1.711h1.054v-4.435h-0.92v1.289
			c0,0.672,0.02,1.271,0.08,1.856h-0.015c-0.204-0.502-0.458-1.055-0.722-1.521l-0.922-1.626h-1.174v4.436H283.421L283.421,57.058z
			 M288.153,52.623v4.435h1.001v-4.435H288.153L288.153,52.623z M293.344,57.058l1.491-4.435h-1.062l-0.57,1.896
			c-0.146,0.504-0.285,1.034-0.397,1.565h-0.021c-0.104-0.553-0.244-1.056-0.396-1.585l-0.539-1.876h-1.099l1.422,4.435H293.344
			L293.344,57.058z M299.056,54.368h-1.635v-0.924h1.727v-0.821h-2.725v4.435h2.824v-0.82h-1.826v-1.055h1.635V54.368
			L299.056,54.368z M301.035,57.058h0.994V55.31h0.297c0.416,0.006,0.604,0.148,0.729,0.711c0.124,0.549,0.235,0.912,0.301,1.037
			h1.026c-0.09-0.172-0.219-0.752-0.355-1.26c-0.111-0.412-0.283-0.699-0.589-0.826v-0.02c0.374-0.139,0.778-0.528,0.778-1.084
			c0-0.404-0.146-0.712-0.415-0.921c-0.314-0.259-0.774-0.355-1.431-0.355c-0.539,0-1.015,0.038-1.338,0.097v4.369H301.035z
			 M302.029,53.372c0.072-0.018,0.209-0.032,0.452-0.032c0.462,0,0.735,0.211,0.735,0.608c0,0.386-0.293,0.636-0.793,0.636h-0.396
			L302.029,53.372L302.029,53.372z M305.873,56.854c0.248,0.136,0.746,0.275,1.258,0.275c1.214,0,1.781-0.633,1.781-1.374
			c0-0.636-0.365-1.042-1.147-1.333c-0.581-0.224-0.82-0.347-0.82-0.631c0-0.223,0.208-0.426,0.646-0.426
			c0.426,0,0.75,0.123,0.92,0.211l0.224-0.803c-0.262-0.127-0.624-0.224-1.133-0.224c-1.037,0-1.675,0.572-1.675,1.325
			c0,0.652,0.486,1.061,1.223,1.323c0.532,0.185,0.744,0.352,0.744,0.62c0,0.293-0.244,0.484-0.708,0.484
			c-0.421,0-0.843-0.136-1.106-0.275L305.873,56.854L305.873,56.854z M310.707,52.623v4.435h0.998v-4.435H310.707L310.707,52.623z
			 M313.685,57.036c0.24,0.033,0.615,0.068,1.135,0.068c0.87,0,1.588-0.186,2.055-0.572c0.418-0.361,0.726-0.948,0.726-1.799
			c0-0.791-0.285-1.342-0.746-1.683c-0.425-0.321-0.974-0.46-1.823-0.46c-0.496,0-0.976,0.031-1.345,0.098L313.685,57.036
			L313.685,57.036z M314.682,53.399c0.085-0.021,0.235-0.041,0.454-0.041c0.865,0,1.406,0.453,1.406,1.408
			c0,1.061-0.599,1.56-1.514,1.555c-0.117,0-0.263,0-0.348-0.021L314.682,53.399L314.682,53.399z M321.667,55.919l0.345,1.139h1.073
			l-1.379-4.435h-1.31l-1.351,4.435h1.033l0.313-1.139H321.667L321.667,55.919z M320.537,55.168l0.27-0.938
			c0.066-0.256,0.138-0.594,0.197-0.856h0.021c0.067,0.257,0.146,0.591,0.218,0.856l0.277,0.938H320.537L320.537,55.168z
			 M324.787,57.036c0.242,0.033,0.616,0.068,1.141,0.068c0.865,0,1.583-0.186,2.05-0.572c0.422-0.361,0.729-0.948,0.729-1.799
			c0-0.791-0.291-1.342-0.748-1.683c-0.424-0.321-0.976-0.46-1.824-0.46c-0.498,0-0.98,0.031-1.348,0.098V57.036L324.787,57.036z
			 M325.787,53.399c0.084-0.021,0.236-0.041,0.452-0.041c0.87,0,1.407,0.453,1.407,1.408c0,1.061-0.598,1.56-1.514,1.555
			c-0.116,0-0.262,0-0.348-0.021v-2.9H325.787z M333.105,54.368h-1.629v-0.924h1.729v-0.821h-2.729v4.435h2.82v-0.82h-1.82v-1.055
			h1.629V54.368z"/>
		<path d="M276.896,63.618h0.996v-1.781h1.593v-0.816h-1.593V60.01h1.705v-0.821h-2.701V63.618L276.896,63.618z M282.8,60.929
			h-1.627V60.01h1.726v-0.821h-2.728v4.431h2.82v-0.821h-1.818v-1.052h1.628L282.8,60.929L282.8,60.929z M283.677,63.601
			c0.244,0.032,0.617,0.064,1.137,0.064c0.869,0,1.586-0.18,2.05-0.572c0.423-0.357,0.73-0.947,0.73-1.796
			c0-0.788-0.292-1.338-0.753-1.682c-0.418-0.318-0.969-0.462-1.816-0.462c-0.499,0-0.979,0.035-1.348,0.101V63.601L283.677,63.601z
			 M284.68,59.964c0.082-0.02,0.229-0.041,0.45-0.041c0.865,0,1.404,0.455,1.404,1.408c0,1.059-0.599,1.557-1.511,1.551
			c-0.12,0-0.263,0-0.345-0.02L284.68,59.964L284.68,59.964z M290.89,60.929h-1.635V60.01h1.732v-0.821h-2.729v4.431h2.816v-0.821
			h-1.82v-1.052h1.635V60.929L290.89,60.929z M291.762,63.618h0.993v-1.749h0.291c0.416,0,0.604,0.151,0.735,0.712
			c0.121,0.548,0.232,0.911,0.302,1.037h1.025c-0.086-0.172-0.219-0.753-0.357-1.26c-0.11-0.409-0.283-0.698-0.588-0.824v-0.02
			c0.381-0.139,0.779-0.525,0.779-1.082c0-0.404-0.146-0.709-0.414-0.923c-0.318-0.255-0.775-0.356-1.434-0.356
			c-0.537,0-1.012,0.039-1.334,0.101L291.762,63.618L291.762,63.618z M292.755,59.938c0.072-0.021,0.209-0.035,0.455-0.035
			c0.457,0,0.73,0.212,0.73,0.609c0,0.385-0.294,0.633-0.792,0.633h-0.394V59.938L292.755,59.938z M298.021,62.479l0.342,1.139
			h1.079l-1.384-4.43h-1.311l-1.353,4.43h1.04l0.309-1.139H298.021L298.021,62.479z M296.891,61.729l0.269-0.938
			c0.071-0.257,0.139-0.594,0.196-0.855h0.021c0.064,0.258,0.142,0.595,0.218,0.855l0.274,0.938H296.891L296.891,61.729z
			 M299.973,63.618h2.763v-0.844h-1.764v-3.586h-0.999V63.618L299.973,63.618z M304.846,63.601c0.241,0.032,0.612,0.064,1.135,0.064
			c0.868,0,1.586-0.188,2.054-0.572c0.418-0.361,0.729-0.947,0.729-1.796c0-0.788-0.294-1.34-0.753-1.682
			c-0.422-0.322-0.975-0.462-1.82-0.462c-0.499,0-0.979,0.035-1.345,0.101V63.601L304.846,63.601z M305.843,59.964
			c0.088-0.02,0.232-0.041,0.451-0.041c0.867,0,1.41,0.455,1.41,1.408c0,1.059-0.6,1.557-1.515,1.551c-0.121,0-0.26,0-0.349-0.02
			v-2.898H305.843z M312.055,60.929h-1.628V60.01h1.727v-0.821h-2.729v4.431h2.818v-0.821h-1.816v-1.052h1.628V60.929
			L312.055,60.929z M318.815,61.086h-1.649v0.783h0.682v0.928c-0.076,0.031-0.264,0.06-0.485,0.06c-0.817,0-1.397-0.528-1.397-1.444
			c0-0.965,0.639-1.442,1.472-1.442c0.487,0,0.782,0.08,1.028,0.191l0.207-0.814c-0.219-0.092-0.655-0.203-1.229-0.203
			c-1.449,0-2.523,0.842-2.529,2.319c0,0.649,0.223,1.224,0.623,1.609c0.409,0.388,0.994,0.594,1.803,0.594
			c0.584,0,1.168-0.146,1.479-0.25v-2.33H318.815z M321.482,63.69c1.3,0,2.171-0.875,2.171-2.334c0-1.224-0.741-2.241-2.103-2.241
			c-1.301,0-2.155,0.993-2.155,2.321c0,1.261,0.772,2.254,2.081,2.254H321.482L321.482,63.69z M321.519,62.894
			c-0.672,0-1.073-0.648-1.073-1.481c0-0.832,0.388-1.501,1.078-1.501s1.065,0.684,1.065,1.479c0,0.868-0.387,1.506-1.065,1.506
			h-0.005V62.894z M324.319,59.188v4.43h0.998v-4.43H324.319L324.319,59.188z M328.482,62.479l0.346,1.139h1.075l-1.378-4.43h-1.309
			l-1.354,4.43h1.04l0.306-1.139H328.482L328.482,62.479z M327.357,61.729l0.271-0.938c0.058-0.257,0.135-0.594,0.192-0.855h0.019
			c0.065,0.258,0.146,0.592,0.22,0.855l0.272,0.938H327.357L327.357,61.729z M328.029,58.122l-0.57,0.829h0.789l0.819-0.829H328.029
			L328.029,58.122z M330.326,63.415c0.252,0.138,0.75,0.275,1.256,0.275c1.217,0,1.78-0.633,1.78-1.373
			c0-0.631-0.36-1.041-1.146-1.332c-0.575-0.223-0.818-0.346-0.818-0.629c0-0.224,0.209-0.428,0.643-0.428
			c0.428,0,0.75,0.127,0.92,0.211l0.225-0.802c-0.262-0.126-0.622-0.224-1.128-0.224c-1.042,0-1.679,0.572-1.679,1.328
			c0,0.648,0.483,1.06,1.223,1.32c0.533,0.186,0.746,0.35,0.746,0.618c0,0.295-0.245,0.484-0.705,0.484
			c-0.428,0-0.852-0.136-1.111-0.273L330.326,63.415z"/>
	</g>
</g>
<rect x="243.439" y="20.542" fill="none" width="22.873" height="13.194"/>
</svg>
