<?xml version="1.0" encoding="UTF-8" standalone="no"?>
<!-- Generator: Adobe Illustrator 16.0.0, SVG Export Plug-In . SVG Version: 6.00 Build 0)  -->

<svg
   xmlns:dc="http://purl.org/dc/elements/1.1/"
   xmlns:cc="http://creativecommons.org/ns#"
   xmlns:rdf="http://www.w3.org/1999/02/22-rdf-syntax-ns#"
   xmlns:svg="http://www.w3.org/2000/svg"
   xmlns="http://www.w3.org/2000/svg"
   xmlns:sodipodi="http://sodipodi.sourceforge.net/DTD/sodipodi-0.dtd"
   xmlns:inkscape="http://www.inkscape.org/namespaces/inkscape"
   version="1.1"
   id="Camada_1"
   x="0px"
   y="0px"
   width="193.76779"
   height="140"
   xml:space="preserve"
   inkscape:version="0.48.3.1 r9886"
   sodipodi:docname="UFG.svg"><metadata
   id="metadata85"><rdf:RDF><cc:Work
       rdf:about=""><dc:format>image/svg+xml</dc:format><dc:type
         rdf:resource="http://purl.org/dc/dcmitype/StillImage" /><dc:title /></cc:Work></rdf:RDF></metadata><defs
   id="defs83" /><sodipodi:namedview
   pagecolor="#ffffff"
   bordercolor="#666666"
   borderopacity="1"
   objecttolerance="10"
   gridtolerance="10"
   guidetolerance="10"
   inkscape:pageopacity="0"
   inkscape:pageshadow="2"
   inkscape:window-width="1198"
   inkscape:window-height="793"
   id="namedview81"
   showgrid="false"
   inkscape:zoom="4.0000002"
   inkscape:cx="64.004502"
   inkscape:cy="72.142743"
   inkscape:window-x="29"
   inkscape:window-y="63"
   inkscape:window-maximized="0"
   inkscape:current-layer="Camada_1"
   fit-margin-top="0"
   fit-margin-left="14"
   fit-margin-right="24"
   fit-margin-bottom="0" />
  
  
  

  

  

<g
   transform="matrix(1.2958404,0,0,1.2958404,-262.21616,19.929503)"
   id="g5"><g
     id="g7"><polygon
       style="fill:#007dc5"
       points="222.671,59.176 217.912,56.423 213.156,53.672 213.156,48.176 213.156,42.679 217.912,39.929 222.671,37.18 227.429,39.929 232.183,42.679 232.183,48.176 232.183,53.672 227.429,56.423 "
       id="polygon9" /><polygon
       style="fill:#007dc5"
       points="255.072,75.681 250.309,72.931 245.546,70.174 245.546,64.673 245.546,59.174 250.309,56.423 255.072,53.667 259.833,56.423 264.596,59.174 264.596,64.673 264.596,70.174 259.833,72.931 "
       id="polygon11" /><polygon
       style="fill:#007dc5"
       points="254.875,40.333 249.16,37.032 243.439,33.736 243.439,27.138 243.439,20.542 249.16,17.242 254.875,13.945 260.596,17.242 266.312,20.542 266.312,27.138 266.312,33.736 260.596,37.032 "
       id="polygon13" /><polygon
       style="fill:#007dc5"
       points="262.708,55.862 258.889,53.662 255.072,51.467 255.072,47.078 255.072,42.684 258.889,40.487 262.708,38.291 266.524,40.487 270.343,42.684 270.343,47.078 270.343,51.467 266.524,53.662 "
       id="polygon15" /><polygon
       style="fill:#007dc5"
       points="237.931,70.16 235.066,68.515 232.203,66.866 232.203,63.58 232.203,60.289 235.066,58.642 237.931,56.997 240.798,58.642 243.664,60.289 243.664,63.58 243.664,66.866 240.798,68.515 "
       id="polygon17" /><polygon
       style="fill:#007dc5"
       points="232.203,40.459 228.396,38.264 224.591,36.067 224.591,31.674 224.591,27.279 228.396,25.084 232.203,22.889 236.007,25.084 239.812,27.279 239.812,31.674 239.812,36.067 236.007,38.264 "
       id="polygon19" /></g><path
     inkscape:connector-curvature="0"
     d="m 276.953,26.437 v 10.908 c 0.004,2.063 0.312,3.762 0.926,5.082 0.617,1.326 1.498,2.308 2.664,2.94 1.16,0.632 2.564,0.947 4.215,0.942 1.707,0 3.166,-0.32 4.383,-0.967 1.217,-0.649 2.145,-1.631 2.791,-2.95 0.645,-1.315 0.973,-2.979 0.979,-4.989 V 26.437 h -4.41 v 11.227 c -0.004,1.737 -0.314,3.021 -0.928,3.86 -0.615,0.836 -1.506,1.253 -2.673,1.248 -1.123,0 -1.989,-0.425 -2.604,-1.282 -0.612,-0.851 -0.922,-2.128 -0.934,-3.826 V 26.437 h -4.409 l 0,0 z m 22.502,19.552 h 4.414 v -7.861 h 7.02 v -3.597 h -7.02 v -4.469 h 7.51 v -3.626 h -11.924 v 19.553 l 0,0 z m 33.705,-11.17 h -7.283 v 3.454 h 3.021 v 4.091 c -0.179,0.077 -0.46,0.136 -0.833,0.184 -0.377,0.049 -0.814,0.078 -1.316,0.078 -0.908,0 -1.736,-0.146 -2.494,-0.425 -0.756,-0.288 -1.405,-0.702 -1.951,-1.25 -0.553,-0.547 -0.979,-1.215 -1.277,-2.007 -0.3,-0.788 -0.449,-1.687 -0.456,-2.702 0.007,-1.064 0.171,-1.992 0.5,-2.786 0.323,-0.799 0.783,-1.46 1.367,-1.986 0.59,-0.528 1.276,-0.926 2.065,-1.188 0.783,-0.262 1.646,-0.393 2.565,-0.393 0.712,0 1.345,0.038 1.894,0.106 0.543,0.072 1.033,0.173 1.457,0.301 0.434,0.123 0.826,0.271 1.18,0.44 l 0.928,-3.604 c -0.318,-0.141 -0.746,-0.273 -1.273,-0.414 -0.526,-0.136 -1.137,-0.254 -1.836,-0.346 -0.703,-0.087 -1.471,-0.135 -2.315,-0.141 -1.614,0 -3.097,0.228 -4.446,0.684 -1.351,0.454 -2.533,1.117 -3.533,1.991 -1,0.875 -1.779,1.944 -2.334,3.211 -0.559,1.272 -0.84,2.724 -0.857,4.356 0,0.958 0.107,1.872 0.322,2.737 0.215,0.866 0.526,1.67 0.937,2.409 0.405,0.734 0.909,1.391 1.5,1.963 0.894,0.854 1.995,1.508 3.312,1.948 1.31,0.439 2.859,0.662 4.638,0.662 0.87,-0.005 1.714,-0.065 2.539,-0.185 0.821,-0.113 1.575,-0.257 2.262,-0.424 0.69,-0.17 1.267,-0.335 1.728,-0.494 v -10.27 h -0.011 z"
     id="path21" /><g
     id="g23"><path
       inkscape:connector-curvature="0"
       d="m 276.91,52.623 v 2.476 c 0,1.407 0.652,2.032 1.771,2.032 1.154,0 1.849,-0.651 1.849,-2.022 v -2.484 h -1.002 v 2.545 c 0,0.792 -0.289,1.158 -0.813,1.158 -0.508,0 -0.805,-0.389 -0.805,-1.158 v -2.545 l -1,-0.002 0,0 z m 6.511,4.435 v -1.334 c 0,-0.729 -0.012,-1.351 -0.045,-1.941 h 0.029 c 0.207,0.519 0.504,1.083 0.766,1.564 l 0.944,1.711 h 1.054 v -4.435 h -0.92 v 1.289 c 0,0.672 0.02,1.271 0.08,1.856 h -0.015 c -0.204,-0.502 -0.458,-1.055 -0.722,-1.521 l -0.922,-1.626 h -1.174 v 4.436 h 0.925 l 0,10e-4 z m 4.732,-4.435 v 4.435 h 1.001 v -4.435 h -1.001 l 0,0 z m 5.191,4.435 1.491,-4.435 h -1.062 l -0.57,1.896 c -0.146,0.504 -0.285,1.034 -0.397,1.565 h -0.021 c -0.104,-0.553 -0.244,-1.056 -0.396,-1.585 l -0.539,-1.876 h -1.099 l 1.422,4.435 h 1.171 l 0,0 z m 5.712,-2.69 h -1.635 v -0.924 h 1.727 v -0.821 h -2.725 v 4.435 h 2.824 v -0.82 h -1.826 v -1.055 h 1.635 v -0.815 l 0,0 z m 1.979,2.69 h 0.994 V 55.31 h 0.297 c 0.416,0.006 0.604,0.148 0.729,0.711 0.124,0.549 0.235,0.912 0.301,1.037 h 1.026 c -0.09,-0.172 -0.219,-0.752 -0.355,-1.26 -0.111,-0.412 -0.283,-0.699 -0.589,-0.826 v -0.02 c 0.374,-0.139 0.778,-0.528 0.778,-1.084 0,-0.404 -0.146,-0.712 -0.415,-0.921 -0.314,-0.259 -0.774,-0.355 -1.431,-0.355 -0.539,0 -1.015,0.038 -1.338,0.097 v 4.369 h 0.003 z m 0.994,-3.686 c 0.072,-0.018 0.209,-0.032 0.452,-0.032 0.462,0 0.735,0.211 0.735,0.608 0,0.386 -0.293,0.636 -0.793,0.636 h -0.396 l 0.002,-1.212 0,0 z m 3.844,3.482 c 0.248,0.136 0.746,0.275 1.258,0.275 1.214,0 1.781,-0.633 1.781,-1.374 0,-0.636 -0.365,-1.042 -1.147,-1.333 -0.581,-0.224 -0.82,-0.347 -0.82,-0.631 0,-0.223 0.208,-0.426 0.646,-0.426 0.426,0 0.75,0.123 0.92,0.211 l 0.224,-0.803 c -0.262,-0.127 -0.624,-0.224 -1.133,-0.224 -1.037,0 -1.675,0.572 -1.675,1.325 0,0.652 0.486,1.061 1.223,1.323 0.532,0.185 0.744,0.352 0.744,0.62 0,0.293 -0.244,0.484 -0.708,0.484 -0.421,0 -0.843,-0.136 -1.106,-0.275 l -0.207,0.828 0,0 z m 4.834,-4.231 v 4.435 h 0.998 v -4.435 h -0.998 l 0,0 z m 2.978,4.413 c 0.24,0.033 0.615,0.068 1.135,0.068 0.87,0 1.588,-0.186 2.055,-0.572 0.418,-0.361 0.726,-0.948 0.726,-1.799 0,-0.791 -0.285,-1.342 -0.746,-1.683 -0.425,-0.321 -0.974,-0.46 -1.823,-0.46 -0.496,0 -0.976,0.031 -1.345,0.098 l -0.002,4.348 0,0 z m 0.997,-3.637 c 0.085,-0.021 0.235,-0.041 0.454,-0.041 0.865,0 1.406,0.453 1.406,1.408 0,1.061 -0.599,1.56 -1.514,1.555 -0.117,0 -0.263,0 -0.348,-0.021 l 0.002,-2.901 0,0 z m 6.985,2.52 0.345,1.139 h 1.073 l -1.379,-4.435 h -1.31 l -1.351,4.435 h 1.033 l 0.313,-1.139 h 1.276 l 0,0 z m -1.13,-0.751 0.27,-0.938 c 0.066,-0.256 0.138,-0.594 0.197,-0.856 h 0.021 c 0.067,0.257 0.146,0.591 0.218,0.856 l 0.277,0.938 h -0.983 l 0,0 z m 4.25,1.868 c 0.242,0.033 0.616,0.068 1.141,0.068 0.865,0 1.583,-0.186 2.05,-0.572 0.422,-0.361 0.729,-0.948 0.729,-1.799 0,-0.791 -0.291,-1.342 -0.748,-1.683 -0.424,-0.321 -0.976,-0.46 -1.824,-0.46 -0.498,0 -0.98,0.031 -1.348,0.098 v 4.348 l 0,0 z m 1,-3.637 c 0.084,-0.021 0.236,-0.041 0.452,-0.041 0.87,0 1.407,0.453 1.407,1.408 0,1.061 -0.598,1.56 -1.514,1.555 -0.116,0 -0.262,0 -0.348,-0.021 v -2.9 h 0.003 z m 7.318,0.969 h -1.629 v -0.924 h 1.729 v -0.821 h -2.729 v 4.435 h 2.82 v -0.82 h -1.82 v -1.055 h 1.629 v -0.815 z"
       id="path25" /><path
       inkscape:connector-curvature="0"
       d="m 276.896,63.618 h 0.996 v -1.781 h 1.593 v -0.816 h -1.593 V 60.01 h 1.705 v -0.821 h -2.701 v 4.429 l 0,0 z m 5.904,-2.689 h -1.627 V 60.01 h 1.726 v -0.821 h -2.728 v 4.431 h 2.82 v -0.821 h -1.818 v -1.052 h 1.628 l -10e-4,-0.818 0,0 z m 0.877,2.672 c 0.244,0.032 0.617,0.064 1.137,0.064 0.869,0 1.586,-0.18 2.05,-0.572 0.423,-0.357 0.73,-0.947 0.73,-1.796 0,-0.788 -0.292,-1.338 -0.753,-1.682 -0.418,-0.318 -0.969,-0.462 -1.816,-0.462 -0.499,0 -0.979,0.035 -1.348,0.101 v 4.347 l 0,0 z m 1.003,-3.637 c 0.082,-0.02 0.229,-0.041 0.45,-0.041 0.865,0 1.404,0.455 1.404,1.408 0,1.059 -0.599,1.557 -1.511,1.551 -0.12,0 -0.263,0 -0.345,-0.02 l 0.002,-2.898 0,0 z m 6.21,0.965 h -1.635 V 60.01 h 1.732 v -0.821 h -2.729 v 4.431 h 2.816 v -0.821 h -1.82 v -1.052 h 1.635 v -0.818 l 10e-4,0 z m 0.872,2.689 h 0.993 v -1.749 h 0.291 c 0.416,0 0.604,0.151 0.735,0.712 0.121,0.548 0.232,0.911 0.302,1.037 h 1.025 c -0.086,-0.172 -0.219,-0.753 -0.357,-1.26 -0.11,-0.409 -0.283,-0.698 -0.588,-0.824 v -0.02 c 0.381,-0.139 0.779,-0.525 0.779,-1.082 0,-0.404 -0.146,-0.709 -0.414,-0.923 -0.318,-0.255 -0.775,-0.356 -1.434,-0.356 -0.537,0 -1.012,0.039 -1.334,0.101 l 0.002,4.364 0,0 z m 0.993,-3.68 c 0.072,-0.021 0.209,-0.035 0.455,-0.035 0.457,0 0.73,0.212 0.73,0.609 0,0.385 -0.294,0.633 -0.792,0.633 h -0.394 v -1.207 l 10e-4,0 z m 5.266,2.541 0.342,1.139 h 1.079 l -1.384,-4.43 h -1.311 l -1.353,4.43 h 1.04 l 0.309,-1.139 h 1.278 l 0,0 z m -1.13,-0.75 0.269,-0.938 c 0.071,-0.257 0.139,-0.594 0.196,-0.855 h 0.021 c 0.064,0.258 0.142,0.595 0.218,0.855 l 0.274,0.938 h -0.978 l 0,0 z m 3.082,1.889 h 2.763 v -0.844 h -1.764 v -3.586 h -0.999 v 4.43 l 0,0 z m 4.873,-0.017 c 0.241,0.032 0.612,0.064 1.135,0.064 0.868,0 1.586,-0.188 2.054,-0.572 0.418,-0.361 0.729,-0.947 0.729,-1.796 0,-0.788 -0.294,-1.34 -0.753,-1.682 -0.422,-0.322 -0.975,-0.462 -1.82,-0.462 -0.499,0 -0.979,0.035 -1.345,0.101 v 4.347 l 0,0 z m 0.997,-3.637 c 0.088,-0.02 0.232,-0.041 0.451,-0.041 0.867,0 1.41,0.455 1.41,1.408 0,1.059 -0.6,1.557 -1.515,1.551 -0.121,0 -0.26,0 -0.349,-0.02 v -2.898 h 0.003 z m 6.212,0.965 h -1.628 V 60.01 h 1.727 v -0.821 h -2.729 v 4.431 h 2.818 v -0.821 h -1.816 v -1.052 h 1.628 v -0.818 l 0,0 z m 6.76,0.157 h -1.649 v 0.783 h 0.682 v 0.928 c -0.076,0.031 -0.264,0.06 -0.485,0.06 -0.817,0 -1.397,-0.528 -1.397,-1.444 0,-0.965 0.639,-1.442 1.472,-1.442 0.487,0 0.782,0.08 1.028,0.191 l 0.207,-0.814 c -0.219,-0.092 -0.655,-0.203 -1.229,-0.203 -1.449,0 -2.523,0.842 -2.529,2.319 0,0.649 0.223,1.224 0.623,1.609 0.409,0.388 0.994,0.594 1.803,0.594 0.584,0 1.168,-0.146 1.479,-0.25 v -2.33 h -0.005 z m 2.667,2.604 c 1.3,0 2.171,-0.875 2.171,-2.334 0,-1.224 -0.741,-2.241 -2.103,-2.241 -1.301,0 -2.155,0.993 -2.155,2.321 0,1.261 0.772,2.254 2.081,2.254 h 0.006 l 0,0 z m 0.037,-0.796 c -0.672,0 -1.073,-0.648 -1.073,-1.481 0,-0.832 0.388,-1.501 1.078,-1.501 0.69,0 1.065,0.684 1.065,1.479 0,0.868 -0.387,1.506 -1.065,1.506 h -0.005 v -0.003 z m 2.8,-3.706 v 4.43 h 0.998 v -4.43 h -0.998 l 0,0 z m 4.163,3.291 0.346,1.139 h 1.075 l -1.378,-4.43 h -1.309 l -1.354,4.43 h 1.04 l 0.306,-1.139 h 1.274 l 0,0 z m -1.125,-0.75 0.271,-0.938 c 0.058,-0.257 0.135,-0.594 0.192,-0.855 h 0.019 c 0.065,0.258 0.146,0.592 0.22,0.855 l 0.272,0.938 h -0.974 l 0,0 z m 0.672,-3.607 -0.57,0.829 h 0.789 l 0.819,-0.829 h -1.038 l 0,0 z m 2.297,5.293 c 0.252,0.138 0.75,0.275 1.256,0.275 1.217,0 1.78,-0.633 1.78,-1.373 0,-0.631 -0.36,-1.041 -1.146,-1.332 -0.575,-0.223 -0.818,-0.346 -0.818,-0.629 0,-0.224 0.209,-0.428 0.643,-0.428 0.428,0 0.75,0.127 0.92,0.211 l 0.225,-0.802 c -0.262,-0.126 -0.622,-0.224 -1.128,-0.224 -1.042,0 -1.679,0.572 -1.679,1.328 0,0.648 0.483,1.06 1.223,1.32 0.533,0.186 0.746,0.35 0.746,0.618 0,0.295 -0.245,0.484 -0.705,0.484 -0.428,0 -0.852,-0.136 -1.111,-0.273 l -0.206,0.825 z"
       id="path27" /></g></g></svg>