<?xml version="1.0" encoding="utf-8"?>
<!-- Generator: Adobe Illustrator 16.0.0, SVG Export Plug-In . SVG Version: 6.00 Build 0)  -->
<!DOCTYPE svg PUBLIC "-//W3C//DTD SVG 1.1//EN" "http://www.w3.org/Graphics/SVG/1.1/DTD/svg11.dtd" [
	<!ENTITY ns_extend "http://ns.adobe.com/Extensibility/1.0/">
	<!ENTITY ns_ai "http://ns.adobe.com/AdobeIllustrator/10.0/">
	<!ENTITY ns_graphs "http://ns.adobe.com/Graphs/1.0/">
	<!ENTITY ns_vars "http://ns.adobe.com/Variables/1.0/">
	<!ENTITY ns_imrep "http://ns.adobe.com/ImageReplacement/1.0/">
	<!ENTITY ns_sfw "http://ns.adobe.com/SaveForWeb/1.0/">
	<!ENTITY ns_custom "http://ns.adobe.com/GenericCustomNamespace/1.0/">
	<!ENTITY ns_adobe_xpath "http://ns.adobe.com/XPath/1.0/">
]>
<svg version="1.1" xmlns:x="&ns_extend;" xmlns:i="&ns_ai;" xmlns:graph="&ns_graphs;"
	 xmlns="http://www.w3.org/2000/svg" xmlns:xlink="http://www.w3.org/1999/xlink" x="0px" y="0px" width="132px" height="67.791px"
	 viewBox="0 0 132 67.791" enable-background="new 0 0 132 67.791" xml:space="preserve">
<metadata>
	<sfw  xmlns="&ns_sfw;">
		<slices></slices>
		<sliceSourceBounds  y="-8576" x="-7876.79" bottomLeftOrigin="true" width="16580.875" height="16473.5"></sliceSourceBounds>
	</sfw>
</metadata>
<g id="Camada_1">
	<g>
		<g>
			<polygon fill-rule="evenodd" clip-rule="evenodd" fill="#0071B5" points="10.447,25.513 15.67,28.533 20.894,31.551 
				20.894,37.588 20.894,43.625 15.67,46.646 10.447,49.664 5.224,46.646 0,43.625 0,37.588 0,31.551 5.224,28.533 			"/>
			<polygon fill-rule="evenodd" clip-rule="evenodd" fill="#0071B5" points="46.028,43.619 51.257,46.641 56.487,49.663 
				56.487,55.706 56.487,61.748 51.257,64.769 46.028,67.791 40.799,64.769 35.569,61.748 35.569,55.706 35.569,49.663 
				40.799,46.641 			"/>
			<polygon fill-rule="evenodd" clip-rule="evenodd" fill="#0071B5" points="45.814,0 52.092,3.622 58.371,7.244 58.371,14.488 
				58.371,21.731 52.092,25.354 45.814,28.976 39.535,25.354 33.257,21.731 33.257,14.488 33.257,7.244 39.535,3.622 			"/>
			<polygon fill-rule="evenodd" clip-rule="evenodd" fill="#0071B5" points="54.413,26.736 58.604,29.147 62.797,31.559 
				62.797,36.382 62.797,41.205 58.604,43.616 54.413,46.028 50.221,43.616 46.028,41.205 46.028,36.382 46.028,31.559 
				50.221,29.147 			"/>
			<polygon fill-rule="evenodd" clip-rule="evenodd" fill="#0071B5" points="27.207,47.273 30.355,49.08 33.502,50.887 
				33.502,54.501 33.502,58.115 30.355,59.921 27.207,61.729 24.06,59.921 20.913,58.115 20.913,54.501 20.913,50.887 24.06,49.08 
							"/>
			<polygon fill-rule="evenodd" clip-rule="evenodd" fill="#0071B5" points="20.914,9.82 25.093,12.232 29.273,14.644 
				29.273,19.468 29.273,24.292 25.093,26.704 20.914,29.115 16.735,26.704 12.555,24.292 12.555,19.468 12.555,14.644 
				16.735,12.232 			"/>
		</g>
		<path fill="#211915" d="M70.055,13.716v11.979c0.005,2.267,0.345,4.132,1.019,5.581c0.675,1.455,1.646,2.533,2.921,3.228
			c1.275,0.696,2.819,1.041,4.631,1.036c1.874,0,3.478-0.351,4.815-1.062c1.333-0.712,2.353-1.79,3.064-3.239
			c0.707-1.445,1.067-3.271,1.073-5.479V13.716h-4.843v12.329c-0.005,1.907-0.345,3.319-1.019,4.237
			c-0.675,0.919-1.651,1.375-2.931,1.369c-1.237,0-2.188-0.466-2.862-1.406c-0.674-0.934-1.014-2.337-1.025-4.201V13.716H70.055
			L70.055,13.716z M94.767,35.189h4.844v-8.633h7.71v-3.952h-7.71v-4.905h8.251v-3.982H94.767V35.189L94.767,35.189z
			 M131.778,22.923h-7.997v3.791h3.313v4.492c-0.197,0.085-0.504,0.149-0.913,0.202c-0.414,0.053-0.897,0.085-1.444,0.085
			c-0.999,0-1.912-0.159-2.741-0.467c-0.828-0.314-1.545-0.77-2.145-1.371c-0.605-0.599-1.073-1.333-1.402-2.204
			c-0.33-0.865-0.495-1.852-0.5-2.967c0.005-1.169,0.186-2.188,0.547-3.059c0.356-0.876,0.861-1.604,1.503-2.183
			c0.647-0.58,1.401-1.015,2.267-1.307c0.86-0.286,1.806-0.43,2.82-0.43c0.78,0,1.476,0.043,2.076,0.117
			c0.6,0.08,1.137,0.191,1.604,0.329c0.472,0.138,0.903,0.298,1.291,0.484l1.02-3.956c-0.351-0.154-0.818-0.302-1.397-0.457
			c-0.579-0.148-1.248-0.276-2.018-0.377c-0.77-0.096-1.614-0.148-2.543-0.154c-1.769,0-3.398,0.25-4.88,0.749
			c-1.486,0.499-2.782,1.226-3.881,2.188c-1.099,0.961-1.955,2.135-2.565,3.526c-0.611,1.397-0.923,2.99-0.94,4.784
			c0,1.051,0.117,2.055,0.356,3.006c0.234,0.951,0.574,1.832,1.025,2.645c0.446,0.807,0.998,1.529,1.646,2.156
			c0.982,0.939,2.193,1.656,3.637,2.14c1.44,0.482,3.138,0.727,5.092,0.727c0.956-0.005,1.886-0.074,2.788-0.202
			c0.903-0.126,1.731-0.281,2.485-0.467c0.759-0.186,1.391-0.366,1.896-0.542V22.923z"/>
		<g>
			<path fill-rule="evenodd" clip-rule="evenodd" fill="#211915" d="M70.01,42.474v2.714c0,1.545,0.714,2.232,1.941,2.232
				c1.271,0,2.029-0.715,2.029-2.217v-2.729h-1.097v2.794c0,0.866-0.318,1.27-0.896,1.27c-0.556,0-0.88-0.426-0.88-1.27v-2.794
				H70.01L70.01,42.474z M77.161,47.338v-1.465c0-0.794-0.015-1.48-0.05-2.13h0.028c0.231,0.571,0.556,1.191,0.845,1.719l1.04,1.876
				h1.155v-4.865h-1.011v1.415c0,0.737,0.021,1.394,0.086,2.036h-0.015c-0.224-0.549-0.505-1.154-0.794-1.667l-1.01-1.783h-1.286
				v4.865H77.161L77.161,47.338z M82.355,42.474v4.865h1.098v-4.865H82.355L82.355,42.474z M88.055,47.338l1.639-4.865h-1.169
				l-0.621,2.08c-0.166,0.555-0.317,1.132-0.44,1.717h-0.021c-0.116-0.606-0.268-1.155-0.434-1.74l-0.593-2.057h-1.205l1.559,4.865
				H88.055L88.055,47.338z M94.324,44.387h-1.789v-1.011h1.898v-0.902h-2.997v4.865h3.097v-0.902h-1.999v-1.154h1.789V44.387
				L94.324,44.387z M96.501,47.338h1.091v-1.92h0.324c0.455,0.008,0.664,0.166,0.802,0.782c0.136,0.601,0.259,1.002,0.332,1.138
				h1.126c-0.093-0.188-0.238-0.826-0.389-1.383c-0.123-0.45-0.311-0.768-0.649-0.905v-0.021c0.417-0.152,0.858-0.577,0.858-1.187
				c0-0.445-0.16-0.784-0.455-1.014c-0.346-0.282-0.852-0.39-1.574-0.39c-0.591,0-1.111,0.043-1.466,0.108V47.338L96.501,47.338z
				 M97.593,43.297c0.08-0.022,0.23-0.037,0.498-0.037c0.505,0,0.809,0.23,0.809,0.668c0,0.424-0.325,0.697-0.873,0.697h-0.433
				V43.297L97.593,43.297z M101.812,47.115c0.275,0.151,0.823,0.304,1.379,0.304c1.335,0,1.956-0.694,1.956-1.51
				c0-0.693-0.397-1.14-1.256-1.458c-0.635-0.246-0.903-0.383-0.903-0.693c0-0.246,0.232-0.469,0.708-0.469
				c0.47,0,0.824,0.138,1.011,0.232l0.245-0.882c-0.288-0.137-0.686-0.245-1.241-0.245c-1.141,0-1.841,0.627-1.841,1.458
				c0,0.715,0.535,1.162,1.344,1.452c0.583,0.202,0.815,0.382,0.815,0.678c0,0.324-0.267,0.534-0.772,0.534
				c-0.47,0-0.931-0.152-1.221-0.303L101.812,47.115L101.812,47.115z M107.123,42.474v4.865h1.097v-4.865H107.123L107.123,42.474z
				 M110.39,47.317c0.267,0.037,0.679,0.074,1.249,0.074c0.953,0,1.739-0.203,2.252-0.629c0.461-0.397,0.801-1.039,0.801-1.971
				c0-0.866-0.317-1.471-0.823-1.848c-0.461-0.354-1.068-0.505-2-0.505c-0.548,0-1.076,0.036-1.479,0.108V47.317L110.39,47.317z
				 M111.487,43.325c0.093-0.021,0.259-0.043,0.498-0.043c0.953,0,1.544,0.499,1.544,1.545c0,1.161-0.657,1.71-1.66,1.703
				c-0.13,0-0.289,0-0.382-0.022V43.325L111.487,43.325z M119.158,46.09l0.375,1.249h1.185l-1.517-4.865h-1.436l-1.487,4.865h1.141
				l0.338-1.249H119.158L119.158,46.09z M117.916,45.268l0.296-1.033c0.073-0.28,0.152-0.65,0.217-0.938h0.022
				c0.072,0.281,0.159,0.65,0.238,0.938l0.303,1.033H117.916L117.916,45.268z M122.583,47.317c0.267,0.037,0.678,0.074,1.249,0.074
				c0.954,0,1.74-0.203,2.252-0.629c0.462-0.397,0.802-1.039,0.802-1.971c0-0.866-0.318-1.471-0.823-1.848
				c-0.462-0.354-1.069-0.505-2-0.505c-0.548,0-1.075,0.036-1.479,0.108V47.317L122.583,47.317z M123.68,43.325
				c0.094-0.021,0.26-0.043,0.498-0.043c0.953,0,1.545,0.499,1.545,1.545c0,1.161-0.658,1.71-1.661,1.703
				c-0.13,0-0.289,0-0.383-0.022V43.325L123.68,43.325z M131.719,44.387h-1.79v-1.011h1.898v-0.902h-2.996v4.865h3.097v-0.902h-2
				v-1.154h1.79V44.387z"/>
			<path fill-rule="evenodd" clip-rule="evenodd" fill="#211915" d="M69.993,54.544h1.097v-1.957h1.747v-0.895H71.09v-1.111h1.869
				v-0.903h-2.966V54.544L69.993,54.544z M76.48,51.591h-1.791v-1.01h1.898v-0.903h-2.995v4.865h3.097v-0.902h-2v-1.156h1.791
				V51.591L76.48,51.591z M77.44,54.522c0.267,0.038,0.678,0.073,1.248,0.073c0.952,0,1.743-0.199,2.252-0.629
				c0.465-0.393,0.802-1.04,0.802-1.972c0-0.865-0.32-1.469-0.823-1.848c-0.465-0.35-1.068-0.504-2-0.504
				c-0.548,0-1.076,0.036-1.479,0.107V54.522L77.44,54.522z M78.537,50.531c0.094-0.022,0.26-0.044,0.499-0.044
				c0.953,0,1.544,0.498,1.544,1.545c0,1.162-0.657,1.709-1.661,1.703c-0.13-0.001-0.288,0-0.382-0.021V50.531L78.537,50.531z
				 M85.358,51.591h-1.79v-1.01h1.898v-0.903h-2.996v4.865h3.097v-0.902h-1.999v-1.156h1.79V51.591L85.358,51.591z M86.318,54.544
				h1.09v-1.921h0.325c0.454,0,0.662,0.167,0.801,0.782c0.135,0.602,0.259,1,0.332,1.139h1.126
				c-0.094-0.189-0.239-0.827-0.391-1.384c-0.123-0.45-0.311-0.767-0.65-0.904v-0.022c0.418-0.151,0.859-0.576,0.859-1.188
				c0-0.445-0.161-0.78-0.455-1.015c-0.349-0.277-0.852-0.389-1.573-0.389c-0.593,0-1.111,0.043-1.466,0.107V54.544L86.318,54.544z
				 M87.408,50.501c0.079-0.021,0.231-0.036,0.498-0.036c0.505,0,0.809,0.23,0.809,0.667c0,0.423-0.325,0.697-0.874,0.697h-0.433
				V50.501L87.408,50.501z M93.19,53.294l0.376,1.25h1.183l-1.516-4.865h-1.437l-1.487,4.865h1.141l0.339-1.25H93.19L93.19,53.294z
				 M91.949,52.472l0.296-1.032c0.08-0.279,0.151-0.65,0.216-0.938h0.021c0.072,0.282,0.154,0.65,0.238,0.938l0.303,1.032H91.949
				L91.949,52.472z M95.334,54.544h3.032V53.62h-1.934v-3.941h-1.098V54.544L95.334,54.544z M100.682,54.522
				c0.268,0.038,0.679,0.073,1.25,0.073c0.952,0,1.739-0.203,2.252-0.629c0.462-0.397,0.801-1.04,0.801-1.972
				c0-0.865-0.317-1.472-0.822-1.848c-0.463-0.353-1.07-0.504-2-0.504c-0.548,0-1.076,0.036-1.48,0.107V54.522L100.682,54.522z
				 M101.78,50.531c0.093-0.022,0.259-0.044,0.498-0.044c0.953,0,1.545,0.498,1.545,1.545c0,1.162-0.657,1.711-1.661,1.703
				c-0.13,0-0.289,0-0.382-0.021V50.531L101.78,50.531z M108.601,51.591h-1.791v-1.01h1.899v-0.903h-2.996v4.865h3.097v-0.902h-2
				v-1.156h1.791V51.591L108.601,51.591z M116.026,51.765h-1.812v0.858h0.751v1.019c-0.087,0.036-0.29,0.064-0.534,0.064
				c-0.902,0-1.538-0.581-1.538-1.588c0-1.058,0.7-1.58,1.617-1.58c0.534,0,0.858,0.087,1.126,0.21l0.231-0.896
				c-0.238-0.101-0.722-0.223-1.35-0.223c-1.595,0-2.772,0.924-2.779,2.548c0,0.712,0.246,1.343,0.686,1.769
				c0.448,0.426,1.09,0.65,1.978,0.65c0.643,0,1.285-0.16,1.625-0.275V51.765L116.026,51.765z M118.956,54.624
				c1.423,0,2.382-0.96,2.382-2.562c0-1.343-0.815-2.462-2.31-2.462c-1.43,0-2.367,1.09-2.367,2.548
				c0,1.386,0.851,2.477,2.287,2.477H118.956L118.956,54.624z M118.993,53.75c-0.736,0-1.177-0.715-1.177-1.632
				c0-0.909,0.426-1.646,1.184-1.646c0.758,0,1.17,0.751,1.17,1.624c0,0.953-0.426,1.653-1.17,1.653H118.993L118.993,53.75z
				 M122.068,49.679v4.865h1.097v-4.865H122.068L122.068,49.679z M126.644,53.294l0.375,1.25h1.185l-1.517-4.865h-1.436
				l-1.487,4.865h1.141l0.339-1.25H126.644L126.644,53.294z M125.402,52.472l0.296-1.032c0.073-0.282,0.151-0.65,0.217-0.938h0.022
				c0.071,0.282,0.159,0.649,0.237,0.938l0.304,1.032H125.402L125.402,52.472z M126.146,48.509l-0.627,0.909h0.866l0.903-0.909
				H126.146L126.146,48.509z M128.666,54.32c0.273,0.152,0.823,0.304,1.379,0.304c1.336,0,1.956-0.693,1.956-1.509
				c0-0.693-0.397-1.142-1.255-1.458c-0.635-0.246-0.902-0.383-0.902-0.693c0-0.246,0.23-0.469,0.707-0.469
				c0.469,0,0.823,0.137,1.011,0.23l0.245-0.88c-0.289-0.137-0.686-0.246-1.241-0.246c-1.141,0-1.841,0.627-1.841,1.458
				c0,0.714,0.534,1.163,1.343,1.451c0.585,0.202,0.816,0.383,0.816,0.679c0,0.325-0.268,0.534-0.772,0.534
				c-0.469,0-0.932-0.152-1.22-0.303L128.666,54.32z"/>
		</g>
	</g>
</g>
<g id="Camada_2">
</g>
</svg>
