<?xml version="1.0" encoding="utf-8"?>
<!-- Generator: Adobe Illustrator 16.0.0, SVG Export Plug-In . SVG Version: 6.00 Build 0)  -->
<!DOCTYPE svg PUBLIC "-//W3C//DTD SVG 1.1//EN" "http://www.w3.org/Graphics/SVG/1.1/DTD/svg11.dtd" [
	<!ENTITY ns_extend "http://ns.adobe.com/Extensibility/1.0/">
	<!ENTITY ns_ai "http://ns.adobe.com/AdobeIllustrator/10.0/">
	<!ENTITY ns_graphs "http://ns.adobe.com/Graphs/1.0/">
	<!ENTITY ns_vars "http://ns.adobe.com/Variables/1.0/">
	<!ENTITY ns_imrep "http://ns.adobe.com/ImageReplacement/1.0/">
	<!ENTITY ns_sfw "http://ns.adobe.com/SaveForWeb/1.0/">
	<!ENTITY ns_custom "http://ns.adobe.com/GenericCustomNamespace/1.0/">
	<!ENTITY ns_adobe_xpath "http://ns.adobe.com/XPath/1.0/">
]>
<svg version="1.1" id="Camada_1" xmlns:x="&ns_extend;" xmlns:i="&ns_ai;" xmlns:graph="&ns_graphs;"
	 xmlns="http://www.w3.org/2000/svg" xmlns:xlink="http://www.w3.org/1999/xlink" x="0px" y="0px" width="129.633px"
	 height="47.623px" viewBox="0 0 129.633 47.623" enable-background="new 0 0 129.633 47.623" xml:space="preserve">
<metadata>
	<sfw  xmlns="&ns_sfw;">
		<slices></slices>
		<sliceSourceBounds  width="16976" height="18609" x="-8272" y="-8576" bottomLeftOrigin="true"></sliceSourceBounds>
	</sfw>
</metadata>
<g>
	<polygon fill-rule="evenodd" clip-rule="evenodd" fill="#0071B6" points="7.353,17.863 11.029,19.988 14.707,22.115 14.707,26.365 
		14.707,30.615 11.029,32.738 7.353,34.863 3.677,32.738 0,30.615 0,26.365 0,22.115 3.677,19.988 7.353,17.863 	"/>
	<polygon fill-rule="evenodd" clip-rule="evenodd" fill="#0071B6" points="32.398,30.609 36.08,32.734 39.76,34.861 39.76,39.115 
		39.76,43.369 36.08,45.496 32.398,47.623 28.717,45.496 25.037,43.369 25.037,39.115 25.037,34.861 28.717,32.734 32.398,30.609 	
		"/>
	<polygon fill-rule="evenodd" clip-rule="evenodd" fill="#0071B6" points="32.395,0 36.814,2.549 41.233,5.098 41.233,10.197 
		41.233,15.297 36.814,17.846 32.395,20.396 27.975,17.846 23.555,15.297 23.555,10.197 23.555,5.098 27.975,2.549 32.395,0 	"/>
	<polygon fill-rule="evenodd" clip-rule="evenodd" fill="#0071B6" points="38.301,18.725 41.252,20.422 44.202,22.119 
		44.202,25.514 44.202,28.908 41.252,30.605 38.301,32.303 35.35,30.605 32.398,28.908 32.398,25.514 32.398,22.119 35.35,20.422 
		38.301,18.725 	"/>
	<polygon fill-rule="evenodd" clip-rule="evenodd" fill="#0071B6" points="19.15,33.18 21.366,34.451 23.582,35.725 23.582,38.268 
		23.582,40.812 21.366,42.084 19.15,43.357 16.936,42.084 14.72,40.812 14.72,38.268 14.72,35.725 16.936,34.451 19.15,33.18 	"/>
	<polygon fill-rule="evenodd" clip-rule="evenodd" fill="#0071B6" points="14.721,6.818 17.662,8.516 20.605,10.213 20.605,13.607 
		20.605,17.004 17.662,18.699 14.721,20.398 11.778,18.699 8.837,17.004 8.837,13.607 8.837,10.213 11.778,8.516 14.721,6.818 	"/>
	<path fill-rule="evenodd" clip-rule="evenodd" fill="#211915" d="M50.119,10.393v15.432c0,8.783,4.062,12.689,11.04,12.689
		c7.224,0,11.532-4.07,11.532-12.609V10.393h-6.238v15.883c0,4.926-1.805,7.225-5.089,7.225c-3.159,0-5.007-2.422-5.007-7.225
		V10.393H50.119L50.119,10.393z M81.954,38.055h6.239V26.932h9.932v-5.088h-9.932v-6.322h10.629v-5.129H81.954V38.055L81.954,38.055
		z M129.633,22.254h-10.301v4.883h4.268v5.787c-0.492,0.205-1.643,0.369-3.037,0.369c-5.131,0-8.742-3.303-8.742-9.029
		c0-6.02,3.98-8.986,9.193-8.986c3.037,0,4.885,0.492,6.402,1.195l1.314-5.094c-1.355-0.578-4.105-1.275-7.676-1.275
		c-9.07,0-15.76,5.254-15.801,14.49c0,4.047,1.395,7.639,3.898,10.055c2.545,2.42,6.197,3.699,11.246,3.699
		c3.652,0,7.305-0.908,9.234-1.566V22.254L129.633,22.254z"/>
</g>
</svg>
