<?xml version="1.0" encoding="UTF-8" standalone="no"?>
<!-- Generator: Adobe Illustrator 16.0.0, SVG Export Plug-In . SVG Version: 6.00 Build 0)  -->

<svg
   xmlns:dc="http://purl.org/dc/elements/1.1/"
   xmlns:cc="http://creativecommons.org/ns#"
   xmlns:rdf="http://www.w3.org/1999/02/22-rdf-syntax-ns#"
   xmlns:svg="http://www.w3.org/2000/svg"
   xmlns="http://www.w3.org/2000/svg"
   xmlns:sodipodi="http://sodipodi.sourceforge.net/DTD/sodipodi-0.dtd"
   xmlns:inkscape="http://www.inkscape.org/namespaces/inkscape"
   version="1.1"
   id="Camada_1"
   x="0px"
   y="0px"
   width="220"
   height="100"
   xml:space="preserve"
   inkscape:version="0.91 r13725"
   sodipodi:docname="UFG_logo2.svg"><metadata
     id="metadata85"><rdf:RDF><cc:Work
         rdf:about=""><dc:format>image/svg+xml</dc:format><dc:type
           rdf:resource="http://purl.org/dc/dcmitype/StillImage" /><dc:title></dc:title></cc:Work></rdf:RDF></metadata><defs
     id="defs83" /><sodipodi:namedview
     pagecolor="#ffffff"
     bordercolor="#666666"
     borderopacity="1"
     objecttolerance="10"
     gridtolerance="10"
     guidetolerance="10"
     inkscape:pageopacity="0"
     inkscape:pageshadow="2"
     inkscape:window-width="1375"
     inkscape:window-height="876"
     id="namedview81"
     showgrid="false"
     inkscape:zoom="2.0000001"
     inkscape:cx="27.358549"
     inkscape:cy="56.736948"
     inkscape:window-x="65"
     inkscape:window-y="24"
     inkscape:window-maximized="1"
     inkscape:current-layer="g5"
     fit-margin-top="0"
     fit-margin-left="14"
     fit-margin-right="24"
     fit-margin-bottom="0" /><g
     transform="matrix(1.2958404,0,0,1.2958404,-243.96616,-8.8204975)"
     id="g5"><g
       id="g7"
       transform="matrix(0.66250003,0,0,0.66250003,71.888516,13.776323)"><polygon
         style="fill:#007dc5"
         points="232.183,53.672 227.429,56.423 222.671,59.176 217.912,56.423 213.156,53.672 213.156,48.176 213.156,42.679 217.912,39.929 222.671,37.18 227.429,39.929 232.183,42.679 232.183,48.176 "
         id="polygon9"
         transform="translate(0,0.57877626)" /><polygon
         style="fill:#007dc5"
         points="264.596,70.174 259.833,72.931 255.072,75.681 250.309,72.931 245.546,70.174 245.546,64.673 245.546,59.174 250.309,56.423 255.072,53.667 259.833,56.423 264.596,59.174 264.596,64.673 "
         id="polygon11"
         transform="translate(0,0.57877626)" /><polygon
         style="fill:#007dc5"
         points="266.312,33.736 260.596,37.032 254.875,40.333 249.16,37.032 243.439,33.736 243.439,27.138 243.439,20.542 249.16,17.242 254.875,13.945 260.596,17.242 266.312,20.542 266.312,27.138 "
         id="polygon13"
         transform="translate(0,0.57877626)" /><polygon
         style="fill:#007dc5"
         points="270.343,51.467 266.524,53.662 262.708,55.862 258.889,53.662 255.072,51.467 255.072,47.078 255.072,42.684 258.889,40.487 262.708,38.291 266.524,40.487 270.343,42.684 270.343,47.078 "
         id="polygon15"
         transform="translate(0,0.57877626)" /><polygon
         style="fill:#007dc5"
         points="243.664,66.866 240.798,68.515 237.931,70.16 235.066,68.515 232.203,66.866 232.203,63.58 232.203,60.289 235.066,58.642 237.931,56.997 240.798,58.642 243.664,60.289 243.664,63.58 "
         id="polygon17"
         transform="translate(0,0.57877626)" /><polygon
         style="fill:#007dc5"
         points="239.812,36.067 236.007,38.264 232.203,40.459 228.396,38.264 224.591,36.067 224.591,31.674 224.591,27.279 228.396,25.084 232.203,22.889 236.007,25.084 239.812,27.279 239.812,31.674 "
         id="polygon19"
         transform="translate(0,0.57877626)" /></g><path
       inkscape:connector-curvature="0"
       d="m 257.34956,33.06848 0,13.670513 c 0.005,2.585467 0.39101,4.71475 1.16051,6.369048 0.77326,1.661817 1.87738,2.892514 3.33866,3.684571 1.45378,0.792057 3.21336,1.186832 5.28247,1.180567 2.13933,0 3.96783,-0.401041 5.49304,-1.2119 1.5252,-0.813362 2.68822,-2.044059 3.49783,-3.697104 0.80836,-1.64803 1.21943,-3.733447 1.22693,-6.252491 l 0,-13.743204 -5.52685,0 0,14.070302 c -0.005,2.176907 -0.39353,3.786087 -1.16301,4.837567 -0.77078,1.047722 -1.88742,1.57033 -3.34996,1.564063 -1.40741,0 -2.49273,-0.532632 -3.26348,-1.606673 -0.767,-1.06652 -1.15552,-2.666928 -1.17055,-4.794957 l 0,-14.070302 -5.52559,0 0,0 z m 28.20074,24.503658 5.53189,0 0,-9.851845 8.79785,0 0,-4.507962 -8.79785,0 0,-5.600798 9.41194,0 0,-4.544305 -14.94383,0 0,24.50491 0,0 z m 42.24099,-13.998869 -9.12745,0 0,4.328747 3.78607,0 0,5.127068 c -0.22433,0.09651 -0.5765,0.170443 -1.04395,0.2306 -0.47247,0.06142 -1.02016,0.09776 -1.64928,0.09776 -1.13796,0 -2.17565,-0.182965 -3.12563,-0.532633 -0.94746,-0.360938 -1.76083,-0.879786 -2.4451,-1.56657 -0.69306,-0.685531 -1.22694,-1.522706 -1.60041,-2.515284 -0.37598,-0.987566 -0.56272,-2.114244 -0.57148,-3.386298 0.008,-1.333463 0.21429,-2.496485 0.62662,-3.491569 0.4048,-1.001353 0.9813,-1.829753 1.7132,-2.488967 0.73943,-0.661718 1.59915,-1.160515 2.58797,-1.488867 0.98129,-0.328353 2.06288,-0.492531 3.21461,-0.492531 0.89232,0 1.68563,0.04762 2.37366,0.132835 0.68053,0.09024 1.29462,0.216814 1.826,0.377231 0.54392,0.154145 1.03519,0.339631 1.47883,0.551432 l 1.16303,-4.516733 c -0.39852,-0.176715 -0.93491,-0.34214 -1.5954,-0.518848 -0.6592,-0.170443 -1.42493,-0.318327 -2.30098,-0.433626 -0.88103,-0.109034 -1.84353,-0.169184 -2.90128,-0.176715 -2.02275,0 -3.88133,0.285742 -5.57197,0.857227 -1.69316,0.568978 -3.17449,1.399887 -4.42775,2.495234 -1.25325,1.096597 -2.22954,2.436329 -2.92511,4.024201 -0.70056,1.594142 -1.05273,3.413869 -1.07402,5.459183 0,1.200621 0.13418,2.346096 0.40354,3.430162 0.26943,1.085319 0.65922,2.092936 1.1743,3.019094 0.50758,0.91989 1.13922,1.743277 1.87988,2.460139 1.12041,1.070281 2.50024,1.88991 4.15078,2.441342 1.64176,0.550181 3.58306,0.829655 5.81259,0.829655 1.09035,-0.0062 2.1481,-0.08146 3.18204,-0.231851 1.0289,-0.141623 1.97387,-0.322088 2.83485,-0.53138 0.86476,-0.213043 1.58789,-0.419842 2.16563,-0.619109 l 0,-12.870937 -0.0128,0 z"
       id="path21" /></g></svg>