<svg xmlns="http://www.w3.org/2000/svg" width="70" height="56" viewBox="0 0 70 56">
    <path fill="#FFF" fill-rule="evenodd" d="M31.597 16.914l10.542-2.252v8.518c5.28-2.22 8.757-2.22 10.432 0l-.069 12.49c-3.835-2.023-7.29-1.818-10.363.616l-.019 9.753-10.523 1.86v-7.58c-4.317 1.65-7.518 1.65-9.604 0l-.283-12.671c4.026 1.11 7.322.91 9.887-.599V16.914zm2.167-1.591l-6.96 1.273v8.41c-2.604 1.441-5.101 1.441-7.49 0l-.21 8.711-7.22 2.962-.222 18.408L0 49.756.078 6.488 11.601.19l.244 23.487 10.228-5.198L22.29 0l11.297 5.896.177 9.427zm24.076 7.42l-5.33-5.629-.013 4.082c-2.02-1.856-4.843-2.441-8.472-1.756v-6.705H41.05V6.372L52.497.792 70 18.272l-12.16 4.473zm.121 11.335l11.615 4.479L52.451 56l-11.795-5.502v-3.295h3.37v-7.996c3.84-2.29 6.648-2.73 8.425-1.322l-.054 1.688 5.564-5.495zM22.104 55.214V42.4c1.535.346 2.898.346 4.089 0l4.264 6.527 2.84-.12V50l-11.193 5.214z"/>
</svg>
