<svg xmlns="http://www.w3.org/2000/svg" width="80" height="80" viewBox="0 0 80 80">
    <defs>
        <radialGradient id="a" cx="18.384%" cy="89.863%" r="106.399%" fx="18.384%" fy="89.863%">
            <stop offset="0%" stop-color="#FFCF4E"/>
            <stop offset="27.396%" stop-color="#F44E50"/>
            <stop offset="100%" stop-color="#5554C9"/>
        </radialGradient>
    </defs>
    <g fill="none" fill-rule="evenodd">
        <circle cx="40" cy="40" r="40" fill="url(#a)"/>
        <g fill="#FFF" fill-rule="nonzero">
            <path d="M40 22.637c5.658 0 6.328.025 8.553.124 2.068.091 3.185.438 3.93.728.984.38 1.695.844 2.432 1.58.744.744 1.199 1.448 1.588 2.432.29.744.637 1.87.728 3.93.099 2.233.124 2.903.124 8.552 0 5.65-.025 6.329-.124 8.554-.091 2.068-.439 3.185-.728 3.929-.38.984-.844 1.696-1.58 2.432-.745.744-1.448 1.2-2.432 1.588-.745.29-1.87.637-3.93.728-2.233.1-2.903.124-8.553.124s-6.328-.025-8.553-.124c-2.068-.09-3.185-.438-3.93-.728-.984-.38-1.695-.844-2.431-1.58-.745-.744-1.2-1.447-1.588-2.432-.29-.744-.637-1.87-.728-3.929-.1-2.233-.125-2.903-.125-8.553s.025-6.328.125-8.554c.09-2.068.438-3.184.728-3.929.38-.984.843-1.696 1.58-2.432.744-.744 1.447-1.2 2.431-1.588.745-.29 1.87-.637 3.93-.728 2.225-.1 2.895-.124 8.553-.124zm0-3.813c-5.75 0-6.469.024-8.727.124-2.25.099-3.797.463-5.137.984-1.398.546-2.58 1.266-3.755 2.449-1.183 1.174-1.903 2.357-2.449 3.747-.521 1.348-.885 2.887-.984 5.137-.1 2.266-.124 2.986-.124 8.735 0 5.75.024 6.469.124 8.727.099 2.25.463 3.797.984 5.137.546 1.398 1.266 2.58 2.449 3.755a10.351 10.351 0 0 0 3.747 2.44c1.348.522 2.887.886 5.137.985 2.258.1 2.978.124 8.727.124 5.749 0 6.468-.025 8.727-.124 2.25-.1 3.797-.463 5.137-.984a10.351 10.351 0 0 0 3.747-2.44 10.351 10.351 0 0 0 2.44-3.748c.521-1.348.885-2.887.985-5.137.099-2.258.124-2.978.124-8.727 0-5.749-.025-6.468-.124-8.727-.1-2.25-.464-3.797-.985-5.137-.52-1.406-1.24-2.589-2.424-3.763a10.351 10.351 0 0 0-3.747-2.44c-1.348-.522-2.887-.886-5.137-.985-2.266-.108-2.986-.132-8.735-.132z"/>
            <path d="M40 29.122c-6.006 0-10.878 4.872-10.878 10.878S33.994 50.878 40 50.878 50.878 46.006 50.878 40 46.006 29.122 40 29.122zm0 17.934a7.057 7.057 0 0 1 0-14.112 7.057 7.057 0 0 1 0 14.112zM53.847 28.692a2.54 2.54 0 1 1-5.079 0 2.54 2.54 0 0 1 5.08 0z"/>
        </g>
    </g>
</svg>
