<svg width="18" height="18" viewBox="0 0 18 18" fill="none" xmlns="http://www.w3.org/2000/svg">
<path d="M16.3127 0H1.68729C1.24017 0.00146948 0.811788 0.179767 0.495667 0.495969C0.179545 0.812171 0.00135593 1.2406 0 1.68771V16.3123C0.00135651 16.7595 0.179604 17.188 0.495819 17.5042C0.812033 17.8204 1.24052 17.9986 1.68771 18H16.3123C16.7595 17.9986 17.188 17.8204 17.5042 17.5042C17.8204 17.188 17.9986 16.7595 18 16.3123V1.68771C17.9986 1.24052 17.8204 0.812033 17.5042 0.495819C17.188 0.179604 16.7595 0.00135651 16.3123 0H16.3127ZM6.75 14.625H4.5V6.75H6.75V14.625ZM5.625 5.625C5.47722 5.62517 5.33085 5.59619 5.19428 5.53971C5.05771 5.48323 4.93363 5.40037 4.82913 5.29587C4.72463 5.19137 4.64177 5.06729 4.58529 4.93072C4.52881 4.79415 4.49983 4.64778 4.5 4.5C4.49983 4.35222 4.52881 4.20585 4.58529 4.06928C4.64177 3.93271 4.72463 3.80863 4.82913 3.70413C4.93363 3.59963 5.05771 3.51677 5.19428 3.46029C5.33085 3.40381 5.47722 3.37483 5.625 3.375C5.77278 3.37483 5.91915 3.40381 6.05572 3.46029C6.19229 3.51677 6.31637 3.59963 6.42087 3.70413C6.52537 3.80863 6.60823 3.93271 6.66471 4.06928C6.72119 4.20585 6.75017 4.35222 6.75 4.5C6.75017 4.64778 6.72119 4.79415 6.66471 4.93072C6.60823 5.06729 6.52537 5.19137 6.42087 5.29587C6.31637 5.40037 6.19229 5.48323 6.05572 5.53971C5.91915 5.59619 5.77278 5.62517 5.625 5.625V5.625ZM14.625 14.625H12.375V10.125C12.3752 9.97722 12.3462 9.83085 12.2897 9.69428C12.2332 9.55771 12.1504 9.43363 12.0459 9.32913C11.9414 9.22463 11.8173 9.14177 11.6807 9.08529C11.5442 9.02881 11.3978 8.99983 11.25 9C11.1022 8.99983 10.9558 9.02881 10.8193 9.08529C10.6827 9.14177 10.5586 9.22463 10.4541 9.32913C10.3496 9.43363 10.2668 9.55771 10.2103 9.69428C10.1538 9.83085 10.1248 9.97722 10.125 10.125V14.625H7.875V6.75H10.125V8.14586C10.5891 7.50943 11.2993 6.75 12.0939 6.75C13.4931 6.75 14.625 8.00871 14.625 9.56271V14.625Z" fill="white"/>
</svg>
