<svg width="18" height="18" viewBox="0 0 18 18" fill="none" xmlns="http://www.w3.org/2000/svg">
<path fill-rule="evenodd" clip-rule="evenodd" d="M18 9C18 13.9706 13.9706 18 9 18C7.37917 18 5.85842 17.5715 4.54482 16.8217L0 18L1.23053 13.5455C0.44839 12.2115 0 10.6581 0 9C0 4.02944 4.02944 0 9 0C13.9706 0 18 4.02944 18 9ZM16.4703 9C16.4703 13.1257 13.1257 16.4703 9 16.4703C7.43911 16.4703 5.99003 15.9915 4.79158 15.1729L2.14164 15.8839L2.87348 13.2755C2.02658 12.0642 1.52975 10.5901 1.52975 9C1.52975 4.87429 4.87429 1.52975 9 1.52975C13.1257 1.52975 16.4703 4.87429 16.4703 9Z" fill="white"/>
<path d="M4.64023 7.98011C4.00794 6.2464 4.97168 5.21808 5.55808 4.89513C5.71105 4.79963 6.01661 4.82286 6.27196 4.84413C6.57791 4.86961 6.6459 5.0141 6.70539 5.09909C6.90086 5.609 7.31219 6.67473 7.39378 6.85829C7.49576 7.08776 7.52126 7.16424 7.39378 7.39371C7.2663 7.62317 7.01134 7.90361 6.83287 8.08209C6.68839 8.22658 6.73038 8.31055 6.83106 8.5119L6.83287 8.51552C6.93485 8.71948 7.37708 9.50984 8.05667 10.0453C8.89802 10.7081 9.40794 10.9376 9.79037 11.1161C10.0963 11.2588 10.2493 11.1246 10.3003 11.0651C10.4873 10.8441 10.8918 10.3563 11.0142 10.1727C11.1366 9.98917 11.3711 10.0113 11.4731 10.0453C11.9915 10.2832 13.0742 10.7846 13.2578 10.8866C13.4873 11.0141 13.4873 11.0906 13.4873 11.3201C13.4873 11.5495 13.4093 12.3638 12.7479 12.7478C11.9575 13.2067 11.7026 13.4107 10.0708 12.9518C8.24172 12.4373 5.4306 10.1472 4.64023 7.98011Z" fill="white"/>
</svg>
