<svg xmlns="http://www.w3.org/2000/svg" width="87" height="60" viewBox="0 0 87 60">
    <path fill="#FFF" fill-rule="nonzero" d="M85.164 12.946s-.84-5.881-3.428-8.464c-3.277-3.399-6.94-3.416-8.62-3.616C61.082 0 43.018 0 43.018 0h-.034S24.921 0 12.89.866c-1.68.2-5.344.217-8.62 3.616C1.68 7.065.856 12.946.856 12.946S0 19.844 0 26.76v6.465c0 6.898.857 13.813.857 13.813s.84 5.882 3.411 8.464c3.277 3.4 7.579 3.283 9.495 3.65 6.89.65 29.256.849 29.256.849s18.081-.033 30.113-.883c1.68-.2 5.344-.217 8.62-3.616 2.589-2.582 3.429-8.464 3.429-8.464s.857-6.898.857-13.813V26.76c-.017-6.898-.874-13.813-.874-13.813zM34.113 41.072V17.095l23.24 12.03-23.24 11.947z"/>
</svg>
