<svg xmlns="http://www.w3.org/2000/svg" width="80" height="80" viewBox="0 0 80 80">
    <g fill="none" fill-rule="evenodd">
        <circle cx="40" cy="40" r="40" fill="#CD201E"/>
        <path fill="#FFF" fill-rule="nonzero" d="M63.851 30.336s-.472-3.333-1.926-4.796c-1.841-1.926-3.9-1.936-4.844-2.049C50.321 23 40.171 23 40.171 23h-.019s-10.15 0-16.91.491c-.944.113-3.003.123-4.844 2.049-1.454 1.463-1.916 4.796-1.916 4.796S16 34.246 16 38.164v3.663c0 3.909.482 7.827.482 7.827s.472 3.333 1.916 4.797c1.841 1.926 4.258 1.86 5.335 2.067 3.871.369 16.438.482 16.438.482s10.16-.019 16.92-.5c.944-.114 3.002-.123 4.843-2.05 1.455-1.463 1.927-4.796 1.927-4.796s.481-3.909.481-7.827v-3.663c-.01-3.91-.49-7.828-.49-7.828zM35.167 46.274V32.687l13.058 6.817-13.058 6.77z"/>
    </g>
</svg>
