<svg xmlns="http://www.w3.org/2000/svg" width="73" height="46" viewBox="0 0 73 46">
    <g fill="#231F20" fill-rule="evenodd">
        <path fill-rule="nonzero" d="M.173.98C1.633.714 3.657.514 6.411.514c2.987 0 5.177.633 6.604 1.832 1.328 1.1 2.19 2.865 2.19 4.963 0 2.13-.664 3.896-1.924 5.096-1.627 1.631-4.182 2.398-7.068 2.398-.764 0-1.46-.033-1.991-.134v8.46H.173V.98zM4.222 11.44c.498.132 1.16.167 1.991.167 3.052 0 4.911-1.5 4.911-4.13 0-2.499-1.725-3.831-4.546-3.831-1.129 0-1.926.1-2.356.2v7.594zM18.06.98c1.526-.266 3.816-.466 6.172-.466 3.219 0 5.409.533 6.902 1.799 1.228 1.032 1.925 2.597 1.925 4.496 0 2.897-1.958 4.862-4.048 5.628v.1c1.592.6 2.555 2.165 3.12 4.33.696 2.798 1.293 5.395 1.758 6.261h-4.214c-.331-.666-.863-2.498-1.493-5.295-.63-2.932-1.692-3.864-4.015-3.93H22.11v9.226H18.06V.98zm4.049 9.926h2.422c2.754 0 4.48-1.466 4.48-3.698 0-2.464-1.726-3.597-4.38-3.597-1.295 0-2.124.1-2.523.2v7.095zM36.277.98c1.46-.266 3.484-.466 6.238-.466 2.987 0 5.177.633 6.604 1.832 1.328 1.1 2.19 2.865 2.19 4.963 0 2.13-.663 3.896-1.924 5.096-1.627 1.631-4.182 2.398-7.068 2.398-.764 0-1.46-.033-1.991-.134v8.46h-4.049V.98zm4.049 10.459c.497.132 1.16.167 1.99.167 3.053 0 4.912-1.5 4.912-4.13 0-2.499-1.726-3.831-4.547-3.831-1.128 0-1.925.1-2.355.2v7.594z"/>
        <path d="M72.082 22.097c-1.426.533-4.214 1.266-7.2 1.266-3.783 0-6.637-.966-8.76-2.998-1.992-1.898-3.154-4.862-3.12-8.26 0-7.094 5.043-11.657 12.444-11.657 2.753 0 4.91.567 5.939 1.066l-.896 3.298c-1.228-.533-2.72-.966-5.077-.966-4.778 0-8.13 2.831-8.13 8.06 0 5.096 3.12 8.127 7.765 8.127 1.46 0 2.556-.2 3.087-.467V13.97h-3.95v-3.23h7.898v11.357z"/>
        <g>
            <path fill-rule="nonzero" d="M14.885 30.972a8.08 8.08 0 0 1 1.432-.108c.687 0 1.19.145 1.518.421.304.253.502.658.502 1.14 0 .49-.15.896-.442 1.171-.372.375-.96.551-1.624.551a2.57 2.57 0 0 1-.456-.03v1.943h-.93v-5.088zm.93 2.402c.115.031.268.038.457.038.702 0 1.129-.344 1.129-.949 0-.573-.396-.88-1.044-.88-.26 0-.442.023-.541.046v1.745zM19.147 30.972c.35-.062.876-.108 1.418-.108.739 0 1.243.123 1.585.413.282.238.442.597.442 1.033 0 .666-.45 1.118-.93 1.293v.023c.367.138.588.497.716.995.162.642.299 1.24.406 1.438h-.97c-.075-.153-.198-.573-.341-1.216-.146-.674-.39-.888-.923-.903h-.472v2.12h-.93v-5.088h-.001zm.93 2.28h.556c.632 0 1.03-.337 1.03-.85 0-.565-.397-.826-1.006-.826-.299 0-.488.022-.58.046v1.63zM28.043 33.428c0 1.73-1.044 2.717-2.462 2.717-1.45 0-2.364-1.11-2.364-2.625 0-1.583.992-2.7 2.44-2.7 1.502-.002 2.386 1.14 2.386 2.608zm-3.835.076c0 1.048.526 1.883 1.425 1.883.908 0 1.418-.842 1.418-1.92 0-.973-.48-1.891-1.418-1.891-.93 0-1.425.865-1.425 1.928zm2.653-3.81l-.954.918h-.755l.673-.919h1.036z"/>
            <path d="M30.483 33.695v.65h-1.945v-.65z"/>
            <path fill-rule="nonzero" d="M31.251 30.972a8.87 8.87 0 0 1 1.418-.108c.739 0 1.243.123 1.587.413.28.238.442.597.442 1.033 0 .666-.45 1.118-.93 1.293v.023c.365.138.586.497.717.995.16.642.296 1.24.403 1.438h-.969c-.075-.153-.197-.573-.342-1.216-.146-.674-.39-.888-.923-.903h-.472v2.12h-.93v-5.088zm.93 2.28h.557c.633 0 1.03-.337 1.03-.85 0-.565-.397-.826-1.008-.826-.296 0-.488.022-.58.046v1.63h.001z"/>
            <path d="M38.464 33.772h-1.936v1.515h2.166v.773H35.59v-5.157h2.987v.773h-2.05v1.331h1.936zM40.454 30.903v5.157h-.937v-5.157zM42.513 31.691h-1.464v-.788h3.878v.788H43.45v4.37h-.937v-4.37z"/>
            <path fill-rule="nonzero" d="M50.089 33.428c0 1.73-1.044 2.717-2.462 2.717-1.448 0-2.363-1.11-2.363-2.625 0-1.583.99-2.7 2.44-2.7 1.5-.002 2.385 1.14 2.385 2.608zm-3.834.076c0 1.048.526 1.883 1.427 1.883.907 0 1.418-.842 1.418-1.92 0-.973-.481-1.891-1.418-1.891-.931 0-1.427.865-1.427 1.928zM50.899 30.972c.35-.062.876-.108 1.418-.108.738 0 1.243.123 1.585.413.282.238.442.597.442 1.033 0 .666-.45 1.118-.93 1.293v.023c.367.138.588.497.716.995.162.642.298 1.24.405 1.438h-.968c-.076-.153-.199-.573-.343-1.216-.145-.674-.39-.888-.923-.903h-.471v2.12h-.93v-5.088h-.001zm.93 2.28h.556c.632 0 1.029-.337 1.029-.85 0-.565-.396-.826-1.006-.826-.298 0-.488.022-.58.046v1.63z"/>
            <path d="M56.173 30.903v5.157h-.938v-5.157z"/>
            <path fill-rule="nonzero" d="M58.277 34.598l-.442 1.462h-.969l1.648-5.157h1.197l1.67 5.157h-1.006l-.466-1.462h-1.632zm1.47-.71l-.403-1.271c-.098-.314-.182-.666-.258-.964h-.016c-.077.298-.153.657-.244.964l-.396 1.27h1.317zM63.673 30.972c.413-.07.938-.108 1.496-.108.96 0 1.624.2 2.095.597.495.405.801 1.018.801 1.898 0 .918-.313 1.606-.8 2.05-.511.467-1.328.705-2.326.705-.55 0-.96-.031-1.266-.07v-5.072zm.938 4.37c.13.022.328.022.52.022 1.219.007 1.942-.666 1.942-1.974.009-1.14-.648-1.79-1.822-1.79-.296 0-.51.022-.64.053v3.689z"/>
            <path d="M71.755 33.772h-1.936v1.515h2.166v.773h-3.103v-5.157h2.987v.773h-2.05v1.331h1.936v.765z"/>
        </g>
        <g>
            <path fill-rule="nonzero" d="M12.873 38.72c.335-.061.8-.107 1.433-.107.687 0 1.189.145 1.517.421.305.253.503.658.503 1.14 0 .49-.153.896-.442 1.171-.373.375-.96.551-1.624.551-.175 0-.335-.007-.457-.03v1.943h-.93V38.72zm.93 2.403c.114.03.267.038.457.038.701 0 1.129-.345 1.129-.949 0-.574-.396-.88-1.044-.88-.26 0-.442.022-.542.046v1.745zM21.694 41.176c0 1.73-1.045 2.717-2.463 2.717-1.448 0-2.363-1.11-2.363-2.625 0-1.584.991-2.701 2.44-2.701 1.5 0 2.386 1.14 2.386 2.61zm-3.836.077c0 1.048.527 1.882 1.426 1.882.907 0 1.418-.841 1.418-1.92 0-.972-.48-1.89-1.418-1.89-.93 0-1.426.865-1.426 1.928zm2.653-3.81l-.953.917h-.755l.671-.918h1.037z"/>
            <path d="M22.479 42.784c.305.175.763.329 1.243.329.602 0 .937-.283.937-.705 0-.39-.259-.62-.915-.856-.845-.306-1.387-.758-1.387-1.5 0-.842.7-1.485 1.814-1.485.557 0 .969.123 1.236.26l-.23.758a2.173 2.173 0 0 0-1.021-.244c-.595 0-.854.32-.854.62 0 .397.298.581.984.85.892.336 1.326.787 1.326 1.53 0 .826-.624 1.546-1.951 1.546-.542 0-1.105-.154-1.388-.321l.206-.782zM28.089 41.444v.65h-1.944v-.65zM32.975 43.572a5.063 5.063 0 0 1-1.655.291c-.87 0-1.524-.222-2.012-.689-.458-.435-.725-1.117-.717-1.898 0-1.63 1.159-2.677 2.86-2.677.632 0 1.128.13 1.365.244l-.206.758c-.281-.123-.625-.222-1.166-.222-1.099 0-1.869.65-1.869 1.851 0 1.171.717 1.867 1.784 1.867.336 0 .587-.046.71-.107v-1.285h-.908v-.742h1.815v2.609h-.001z"/>
            <path fill-rule="nonzero" d="M33.935 38.72c.35-.061.878-.107 1.418-.107.74 0 1.243.123 1.587.413.28.237.442.597.442 1.033 0 .665-.45 1.117-.93 1.293v.023c.365.138.586.497.716.995.16.642.297 1.239.404 1.438h-.969c-.075-.153-.197-.573-.342-1.217-.145-.673-.39-.887-.923-.902h-.472v2.12h-.93V38.72zm.93 2.28h.557c.632 0 1.03-.336 1.03-.848 0-.567-.397-.827-1.007-.827-.297 0-.488.022-.58.046V41zM39.302 42.347l-.442 1.462h-.969l1.647-5.157h1.197l1.67 5.157h-1.007l-.465-1.462h-1.631zm1.471-.71l-.403-1.272c-.1-.313-.184-.665-.26-.964h-.015c-.077.299-.153.658-.244.964l-.396 1.271h1.318zM43.121 38.72c.412-.07.937-.107 1.495-.107.96 0 1.623.2 2.096.597.495.405.8 1.017.8 1.898 0 .918-.312 1.606-.8 2.05-.51.467-1.327.704-2.326.704-.549 0-.96-.03-1.265-.07V38.72zm.937 4.37c.13.022.328.022.519.022 1.22.007 1.944-.666 1.944-1.974.008-1.14-.648-1.79-1.822-1.79-.297 0-.51.022-.64.053v3.688z"/>
            <path d="M49.258 38.652v3.007c0 1.01.419 1.476 1.052 1.476.679 0 1.082-.467 1.082-1.476v-3.007h.938v2.946c0 1.592-.816 2.296-2.05 2.296-1.19 0-1.96-.666-1.96-2.288v-2.954h.938z"/>
            <path fill-rule="nonzero" d="M54.434 42.347l-.442 1.462h-.969l1.647-5.157h1.197l1.669 5.157H56.53l-.465-1.462h-1.631zm1.47-.71l-.403-1.272c-.098-.313-.183-.665-.258-.964h-.017c-.076.299-.152.658-.243.964l-.396 1.271h1.318z"/>
            <path d="M61.936 43.656c-.213.107-.664.222-1.266.23l-.16.283c.289.061.541.26.541.597 0 .497-.434.674-.845.674-.221 0-.45-.054-.61-.138l.136-.421a.953.953 0 0 0 .428.107c.16 0 .29-.061.29-.215 0-.168-.207-.26-.596-.305l.306-.613c-1.365-.169-2.173-1.132-2.173-2.563 0-1.7 1.175-2.725 2.744-2.725.619 0 1.06.13 1.251.229l-.206.75c-.243-.107-.58-.199-1.005-.199-1.044 0-1.8.659-1.8 1.898 0 1.133.663 1.86 1.792 1.86.374 0 .777-.077 1.022-.192l.15.743z"/>
            <path fill-rule="nonzero" d="M63.796 42.347l-.442 1.462h-.97l1.648-5.157h1.197l1.669 5.157h-1.006l-.465-1.462h-1.631zm-.138-4.01c-.015-.566.206-.887.556-.887.192 0 .328.07.473.154.13.076.244.145.351.145.123 0 .183-.069.206-.314h.45c.008.589-.19.857-.564.857a.905.905 0 0 1-.48-.146c-.144-.076-.237-.137-.343-.137-.107 0-.175.114-.19.329h-.459zm1.609 3.3l-.404-1.272c-.099-.313-.183-.665-.259-.964h-.016c-.076.299-.152.658-.243.964l-.397 1.271h1.319zM72.174 41.176c0 1.73-1.045 2.717-2.463 2.717-1.448 0-2.363-1.11-2.363-2.625 0-1.584.991-2.701 2.44-2.701 1.501 0 2.386 1.14 2.386 2.61zm-3.835.077c0 1.048.527 1.882 1.426 1.882.907 0 1.418-.841 1.418-1.92 0-.972-.48-1.89-1.418-1.89-.93 0-1.426.865-1.426 1.928z"/>
        </g>
    </g>
</svg>
