<svg xmlns="http://www.w3.org/2000/svg" width="83" height="40" viewBox="0 0 83 40">
    <g fill="#FFF" fill-rule="evenodd">
        <path d="M3.075 16.804L0 18.584V25.694l3.075 1.776 3.08 1.779 3.076-1.78 3.078-1.775v-7.112L9.23 16.804l-3.077-1.777zM27.118 25.69l3.081 1.778 3.082 1.78v7.118l-3.082 1.78-3.08 1.778-3.08-1.778-3.081-1.78v-7.118l3.081-1.78zM26.99 0l-3.697 2.135-3.7 2.133V12.799l3.7 2.133 3.698 2.132 3.7-2.132 3.701-2.133V4.268l-3.7-2.133zM32.06 15.746l2.472 1.42L37 18.587v5.68l-2.47 1.42-2.471 1.42-2.47-1.42-2.472-1.42v-5.68l2.471-1.42zM16.03 27.84l1.855 1.066 1.853 1.064v4.258l-1.853 1.065-1.855 1.063-1.855-1.063-1.853-1.064V29.97l1.853-1.064zM12.321 5.786l2.462 1.419 2.462 1.422v5.682l-2.462 1.42-2.461 1.42-2.463-1.42-2.462-1.42V8.628L9.86 7.204zM82.83 12.815h-5.211v2.47h2.157v2.926c-.128.057-.328.097-.596.132-.27.034-.583.054-.94.054-.65 0-1.247-.103-1.785-.303a3.9 3.9 0 0 1-1.397-.892 3.906 3.906 0 0 1-.913-1.438c-.217-.563-.324-1.204-.327-1.933.003-.759.118-1.425.353-1.991.233-.57.563-1.045.981-1.423a4.17 4.17 0 0 1 1.479-.848 5.793 5.793 0 0 1 1.838-.283c.508 0 .963.029 1.353.08.389.049.74.121 1.047.21.307.092.586.194.838.317l.665-2.578a6.11 6.11 0 0 0-.91-.295 11.43 11.43 0 0 0-1.315-.25c-.5-.06-1.053-.097-1.657-.099-1.152 0-2.215.163-3.182.487-.97.328-1.814.801-2.53 1.428a6.447 6.447 0 0 0-1.67 2.295c-.399.908-.603 1.948-.613 3.115 0 .687.076 1.342.232 1.96.153.621.373 1.193.668 1.724.291.524.65.994 1.071 1.405.642.61 1.432 1.079 2.37 1.394.94.311 2.048.473 3.323.473.62-.002 1.224-.05 1.815-.133a16.041 16.041 0 0 0 2.855-.655v-7.349zm-24.122 7.99h3.155V15.18h5.023V12.61h-5.023v-3.2h5.378V6.818h-8.533v13.987zM42.6 6.818v7.801c.002 1.477.228 2.693.666 3.635.44.95 1.073 1.652 1.9 2.106.832.453 1.841.676 3.022.676 1.222 0 2.266-.231 3.138-.693.87-.466 1.534-1.167 1.997-2.11.46-.941.695-2.13.699-3.57V6.819h-3.156v8.03c-.005 1.245-.224 2.163-.665 2.761-.44.598-1.078.897-1.91.892-.806 0-1.426-.302-1.867-.915-.439-.609-.658-1.522-.668-2.738v-8.03h-3.156zM82.79 26.798h-1.166v-.655h1.236v-.59h-1.95v3.166h2.015v-.588h-1.3v-.75h1.166v-.583zm-5.239-.692c.061-.013.17-.029.326-.029.62 0 1.007.325 1.007 1.007 0 .76-.429 1.112-1.083 1.111-.084 0-.189 0-.25-.016v-2.073zm-.714 2.599c.174.025.443.052.812.052.622 0 1.136-.134 1.468-.413.302-.258.524-.677.524-1.284 0-.564-.208-.957-.539-1.203-.297-.227-.695-.326-1.301-.326-.358 0-.701.022-.964.066v3.108zm-3.041-1.333l.19-.673c.047-.184.099-.423.144-.61h.015c.044.18.098.423.153.61l.2.673h-.702zm.807.534l.246.813h.77l-.987-3.166h-.936l-.97 3.166h.743l.221-.813h.913zm-4.998-1.8c.059-.013.169-.029.324-.029.62 0 1.005.325 1.005 1.007 0 .76-.426 1.112-1.08 1.111-.085 0-.19 0-.25-.016v-2.073zm-.717 2.599c.175.025.441.052.816.052.62 0 1.13-.134 1.465-.413.303-.258.524-.677.524-1.284 0-.564-.208-.957-.537-1.203-.3-.227-.695-.326-1.302-.326-.358 0-.702.022-.966.066v3.108zm-2.128.014h.717v-3.166h-.717v3.166zm-3.461-.142c.179.099.538.196.898.196.871 0 1.276-.45 1.276-.982 0-.453-.26-.744-.817-.953-.416-.158-.59-.25-.59-.45 0-.159.148-.306.46-.306.305 0 .536.088.66.154l.16-.578a1.876 1.876 0 0 0-.81-.16c-.744 0-1.2.41-1.2.951 0 .466.348.758.876.947.38.13.532.249.532.442 0 .21-.177.346-.504.346-.305 0-.606-.098-.796-.197l-.145.59zm-2.75-2.489c.05-.012.149-.024.324-.024.33 0 .528.15.528.435 0 .275-.214.454-.572.454h-.28v-.865zm-.713 2.631h.712v-1.248h.21c.298.003.434.109.524.508.09.393.17.652.218.74h.732c-.06-.121-.154-.537-.253-.9-.08-.292-.203-.498-.423-.59v-.012c.273-.1.559-.378.559-.774 0-.289-.103-.51-.297-.66-.224-.186-.555-.252-1.023-.252-.388 0-.728.026-.959.066v3.122zm-1.416-1.921h-1.169v-.655h1.239v-.59h-1.952v3.166h2.017v-.588h-1.304v-.75h1.169v-.583zm-4.087 1.921l1.068-3.166h-.764l-.404 1.352c-.108.361-.207.74-.287 1.119h-.014a12.293 12.293 0 0 0-.284-1.134l-.386-1.337h-.785l1.02 3.166h.836zm-3.716 0h.714v-3.166h-.714v3.166zm-3.386 0v-.953c0-.516-.01-.963-.034-1.387h.02c.153.373.364.776.552 1.12l.676 1.22h.754v-3.166h-.657v.92c0 .48.01.908.053 1.327h-.008a9.11 9.11 0 0 0-.519-1.085l-.659-1.162h-.836v3.166h.658zm-4.66-3.166v1.768c0 1.006.463 1.452 1.266 1.452.828 0 1.323-.466 1.323-1.446v-1.774h-.717v1.819c0 .566-.208.824-.584.824-.36 0-.573-.275-.573-.824v-1.819h-.715zM80.8 33.27c.178.099.535.196.9.196.87 0 1.273-.45 1.273-.983 0-.452-.256-.742-.82-.951-.411-.158-.587-.248-.587-.45 0-.16.153-.304.462-.304.306 0 .536.088.659.148l.16-.572c-.188-.093-.447-.158-.809-.158-.743 0-1.199.406-1.199.95 0 .464.348.755.875.944.38.13.532.25.532.441 0 .213-.178.347-.504.347-.307 0-.609-.096-.798-.195l-.143.586zm-1.642-3.788l-.409.59h.564l.591-.59h-.746zm-.486 2.584l.194-.673c.048-.185.1-.422.142-.61h.015c.047.183.103.421.155.61l.198.673h-.704zm.813.535l.243.815h.772l-.988-3.172h-.937l-.97 3.172h.742l.226-.815h.912zm-2.986.815h.716v-3.172H76.5v3.172zm-2.001-.518c-.48 0-.768-.468-.768-1.064 0-.593.275-1.073.77-1.073s.762.492.762 1.062c0 .619-.275 1.075-.761 1.075h-.003zm-.027.568c.929 0 1.556-.627 1.556-1.669 0-.875-.533-1.601-1.507-1.601-.934 0-1.542.708-1.542 1.656 0 .904.554 1.614 1.49 1.614h.003zm-1.908-1.86h-1.181v.558h.49v.662c-.06.025-.189.042-.349.042-.59 0-1.004-.377-1.004-1.034 0-.689.458-1.027 1.054-1.027.349 0 .562.054.735.135l.15-.583a2.424 2.424 0 0 0-.877-.145c-1.04 0-1.808.599-1.813 1.658 0 .465.16.876.446 1.15.294.279.714.428 1.29.428.418 0 .836-.107 1.059-.18v-1.665zm-4.839-.115h-1.169v-.656h1.238v-.59H65.84v3.171h2.02v-.59h-1.305v-.75h1.17v-.585zm-4.447-.69c.061-.015.17-.028.325-.028.622 0 1.008.324 1.008 1.004 0 .759-.43 1.115-1.085 1.11-.083 0-.187 0-.248-.012v-2.073zm-.716 2.6c.175.023.443.049.817.049.618 0 1.13-.132 1.465-.41.302-.258.523-.677.523-1.286 0-.563-.205-.959-.537-1.205-.3-.227-.695-.328-1.304-.328-.356 0-.7.023-.964.073V33.4zm-3.484.015h1.977v-.603h-1.262v-2.569h-.715v3.172zm-2.207-1.35l.192-.673c.054-.182.1-.422.142-.61h.014c.045.183.1.423.154.61l.198.673h-.7zm.81.535l.244.815h.771l-.988-3.172h-.934l-.973 3.172h.746l.219-.815h.914zm-3.769-1.819c.051-.015.152-.025.324-.025.33 0 .526.15.526.436 0 .274-.211.454-.569.454h-.28v-.865zm-.71 2.634h.71v-1.252h.21c.298 0 .432.106.524.508.09.393.169.655.217.744h.732c-.06-.126-.154-.538-.255-.904-.079-.291-.2-.499-.421-.587v-.016c.27-.095.558-.372.558-.77 0-.292-.104-.51-.297-.663-.225-.18-.553-.255-1.024-.255-.386 0-.726.03-.954.073v3.122zm-.627-1.925h-1.168v-.656h1.238v-.59h-1.95v3.171h2.016v-.59h-1.304v-.75h1.168v-.585zm-4.445-.69c.06-.015.17-.028.324-.028.623 0 1.006.324 1.006 1.004 0 .759-.427 1.115-1.08 1.11-.086 0-.19 0-.25-.012v-2.073zm-.717 2.6c.175.023.445.049.818.049.618 0 1.133-.131 1.462-.41.31-.255.526-.677.526-1.286 0-.563-.21-.957-.536-1.205-.303-.227-.696-.328-1.303-.328-.357 0-.703.023-.967.073V33.4zm-.625-1.91h-1.168v-.656h1.239v-.59h-1.95v3.171h2.015v-.59H45.62v-.75h1.168v-.585zm-4.227 1.925h.716v-1.279h1.137v-.578h-1.137v-.724h1.217v-.59H42.56v3.171z"/>
    </g>
</svg>
