<svg xmlns="http://www.w3.org/2000/svg" width="29" height="20" viewBox="0 0 29 20">
    <g fill="#0072B9" fill-rule="nonzero">
        <path d="M13.536 19.96c-.469 0-.928-.133-1.326-.386L6.785 16.12H2.486C1.113 16.12 0 14.995 0 13.608V6.353c0-1.387 1.113-2.511 2.486-2.511h4.299L12.21.387a2.472 2.472 0 0 1 3.43.785c.25.402.383.867.382 1.342v14.934c0 1.387-1.113 2.511-2.486 2.511zM2.763 13.33h4.42c.26-.001.514.072.734.211l5.343 3.4V3.02l-5.343 3.4c-.22.138-.475.212-.734.211h-4.42v6.697zM19.932 15.288a1.388 1.388 0 0 1-1.384-1.392c0-.366.14-.718.395-.98a4.215 4.215 0 0 0-.059-5.919l-.002-.002a1.406 1.406 0 0 1-.047-1.973 1.372 1.372 0 0 1 1.98-.02c2.726 2.696 2.771 7.113.102 9.865l-.002.002c-.258.268-.613.42-.983.42z"/>
        <path d="M24.154 19.192A1.388 1.388 0 0 1 22.77 17.8c0-.366.142-.718.395-.98 3.719-3.828 3.66-9.977-.13-13.732l-.002-.002a1.406 1.406 0 0 1-.048-1.973 1.372 1.372 0 0 1 1.982-.02c4.88 4.833 4.958 12.748.172 17.678l-.001.002a1.367 1.367 0 0 1-.984.42z"/>
    </g>
</svg>
